<?xml version="1.0" encoding="UTF-8"?>
<svg xmlns="http://www.w3.org/2000/svg" xmlns:xlink="http://www.w3.org/1999/xlink" version="1.2" >
<font id="BonavaSans-Medium">
<font-face  font-family="Bonava Sans" units-per-em="2048" ascent="1651" descent="-397" font-style="normal" font-weight="400" font-stretch="normal" cap-height="1511" x-height="1069" underline-position="-303" underline-thickness="50" />
<missing-glyph  horiz-adv-x="1169" d="M109 1389 L1061 1389 L1061 0 L109 0 L109 1389 Z M887 1282 L283 1282 L584 799 L887 1282 Z M520 694 L221 1167 L221 221 L520 694 Z M946 1167 L649 694 L946 221 L946 1167 Z M887 106 L584 590 L283 106 L887 106 Z " />
<glyph glyph-name="space" unicode="&#x20;" horiz-adv-x="557" d="" />
<glyph glyph-name="uni00A0" unicode="&#xa0;" horiz-adv-x="557" d="" />
<glyph glyph-name="A" unicode="A" horiz-adv-x="1442" d="M1044 336 L389 336 L260 0 L4 0 L610 1511 L836 1511 L1438 0 L1174 0 L1044 336 Z M956 559 L719 1176 L715 1176 L477 559 L956 559 Z " />
<glyph glyph-name="B" unicode="B" horiz-adv-x="1419" d="M1358 420 Q1358 291 1291.5 196 Q1225 101 1109 50.5 Q993 0 848 0 L154 0 L154 1511 L852 1511 Q993 1511 1099.5 1463.5 Q1206 1416 1264.5 1327.5 Q1323 1239 1323 1120 Q1323 1005 1261.5 914.5 Q1200 824 1096 778 L1096 776 Q1217 739 1287.5 645.5 Q1358 552 1358 420 Z M401 1284 L401 866 L815 866 Q890 866 948.5 891.5 Q1007 917 1040 965 Q1073 1013 1073 1079 Q1073 1177 1005 1230.5 Q937 1284 825 1284 L401 1284 Z M1108 442 Q1108 543 1036.5 598 Q965 653 846 653 L401 653 L401 227 L848 227 Q923 227 981.5 252 Q1040 277 1074 325 Q1108 373 1108 442 Z " />
<glyph glyph-name="C" unicode="C" horiz-adv-x="1489" d="M788 -23 Q572 -23 411.5 78.5 Q251 180 165.5 356.5 Q80 533 80 752 Q80 972 166.5 1150 Q253 1328 414.5 1431 Q576 1534 793 1534 Q965 1534 1099.5 1468 Q1234 1402 1319 1283 Q1404 1164 1432 1008 L1182 1008 Q1145 1147 1042 1225 Q939 1303 793 1303 Q648 1303 544.5 1231 Q441 1159 387.5 1035.5 Q334 912 334 760 Q334 604 388.5 479 Q443 354 546.5 281.5 Q650 209 791 209 Q889 209 970.5 245 Q1052 281 1108 348 Q1164 415 1186 506 L1434 506 Q1406 348 1319.5 228.5 Q1233 109 1097 43 Q961 -23 788 -23 Z " />
<glyph glyph-name="D" unicode="D" horiz-adv-x="1530" d="M682 1511 Q933 1511 1106 1410 Q1279 1309 1364.5 1138.5 Q1450 968 1450 760 Q1450 542 1360.5 369.5 Q1271 197 1100 98.5 Q929 0 694 0 L154 0 L154 1511 L682 1511 Z M1196 754 Q1196 924 1130.5 1043 Q1065 1162 944 1223 Q823 1284 659 1284 L403 1284 L403 227 L674 227 Q837 227 954.5 288.5 Q1072 350 1134 468 Q1196 586 1196 754 Z " />
<glyph glyph-name="E" unicode="E" horiz-adv-x="1315" d="M154 1511 L1212 1511 L1212 1284 L401 1284 L401 877 L1165 877 L1165 651 L401 651 L401 227 L1219 227 L1219 0 L154 0 L154 1511 Z " />
<glyph glyph-name="F" unicode="F" horiz-adv-x="1272" d="M154 1511 L1204 1511 L1204 1284 L403 1284 L403 854 L1155 854 L1155 629 L403 629 L403 0 L154 0 L154 1511 Z " />
<glyph glyph-name="G" unicode="G" horiz-adv-x="1552" d="M1485 797 Q1489 759 1489 739 Q1489 519 1410.5 346.5 Q1332 174 1177.5 75.5 Q1023 -23 801 -23 Q574 -23 411 81 Q248 185 164 361 Q80 537 80 748 Q80 970 167 1149 Q254 1328 418 1431 Q582 1534 803 1534 Q974 1534 1108 1471 Q1242 1408 1329 1294.5 Q1416 1181 1448 1030 L1196 1030 Q1151 1160 1049 1231.5 Q947 1303 801 1303 Q655 1303 549.5 1230.5 Q444 1158 389 1033.5 Q334 909 334 754 Q334 597 389.5 471.5 Q445 346 551.5 274.5 Q658 203 805 203 Q987 203 1096.5 303 Q1206 403 1233 573 L786 573 L786 797 L1485 797 Z " />
<glyph glyph-name="H" unicode="H" horiz-adv-x="1540" d="M154 1511 L403 1511 L403 877 L1137 877 L1137 1511 L1386 1511 L1386 0 L1137 0 L1137 649 L403 649 L403 0 L154 0 L154 1511 Z " />
<glyph glyph-name="I" unicode="I" horiz-adv-x="557" d="M154 1511 L403 1511 L403 0 L154 0 L154 1511 Z " />
<glyph glyph-name="J" unicode="J" horiz-adv-x="1165" d="M1020 449 Q1020 307 963 200.5 Q906 94 796 35.5 Q686 -23 532 -23 Q384 -23 275.5 34 Q167 91 109 196 Q51 301 49 442 L291 442 Q293 337 353.5 272.5 Q414 208 528 207 Q645 208 707.5 272.5 Q770 337 770 444 L770 1511 L1020 1511 L1020 449 Z " />
<glyph glyph-name="K" unicode="K" horiz-adv-x="1374" d="M803 913 L1360 0 L1069 0 L627 743 L403 520 L403 0 L154 0 L154 1511 L403 1511 L403 813 L406 813 L1065 1511 L1374 1511 L803 913 Z " />
<glyph glyph-name="L" unicode="L" horiz-adv-x="1212" d="M154 1511 L403 1511 L403 231 L1161 231 L1161 0 L154 0 L154 1511 Z " />
<glyph glyph-name="M" unicode="M" horiz-adv-x="1866" d="M481 1511 L930 326 L934 326 L1384 1511 L1712 1511 L1712 0 L1464 0 L1464 1122 L1460 1122 L1028 0 L829 0 L399 1118 L395 1118 L395 0 L154 0 L154 1511 L481 1511 Z " />
<glyph glyph-name="N" unicode="N" horiz-adv-x="1559" d="M1405 1511 L1405 0 L1167 0 L399 1130 L395 1130 L395 0 L154 0 L154 1511 L422 1511 L1159 426 L1163 426 L1163 1511 L1405 1511 Z " />
<glyph glyph-name="O" unicode="O" horiz-adv-x="1610" d="M80 756 Q80 973 167.5 1150 Q255 1327 419.5 1430.5 Q584 1534 805 1534 Q1026 1534 1190.5 1430.5 Q1355 1327 1442.5 1150 Q1530 973 1530 756 Q1530 538 1441.5 360.5 Q1353 183 1188.5 80 Q1024 -23 805 -23 Q585 -23 420.5 80 Q256 183 168 360.5 Q80 538 80 756 Z M1276 756 Q1276 910 1221 1034 Q1166 1158 1059.5 1230.5 Q953 1303 805 1303 Q657 1303 550.5 1230.5 Q444 1158 389 1034 Q334 910 334 756 Q334 603 388.5 478.5 Q443 354 549.5 281.5 Q656 209 805 209 Q954 209 1060.5 281.5 Q1167 354 1221.5 478.5 Q1276 603 1276 756 Z " />
<glyph glyph-name="P" unicode="P" horiz-adv-x="1407" d="M1352 1020 Q1352 868 1280.5 755.5 Q1209 643 1085 582.5 Q961 522 807 522 L403 522 L403 0 L154 0 L154 1511 L811 1511 Q963 1511 1086 1452.5 Q1209 1394 1280.5 1283 Q1352 1172 1352 1020 Z M1100 1016 Q1100 1103 1060 1163 Q1020 1223 949.5 1253.5 Q879 1284 788 1284 L403 1284 L403 750 L788 750 Q930 750 1015 819 Q1100 888 1100 1016 Z " />
<glyph glyph-name="Q" unicode="Q" horiz-adv-x="1610" d="M1133 49 L1393 -211 L1229 -377 L874 -20 Q852 -23 805 -23 Q585 -23 420.5 80 Q256 183 168 360.5 Q80 538 80 756 Q80 973 167.5 1150 Q255 1327 419.5 1430.5 Q584 1534 805 1534 Q1026 1534 1190.5 1430.5 Q1355 1327 1442.5 1150 Q1530 973 1530 756 Q1530 598 1483 459.5 Q1436 321 1346.5 215.5 Q1257 110 1133 49 Z M805 209 Q954 209 1060.5 281.5 Q1167 354 1221.5 478.5 Q1276 603 1276 756 Q1276 910 1221 1034 Q1166 1158 1059.5 1230.5 Q953 1303 805 1303 Q657 1303 550.5 1230.5 Q444 1158 389 1034 Q334 910 334 756 Q334 603 388.5 478.5 Q443 354 549.5 281.5 Q656 209 805 209 Z " />
<glyph glyph-name="R" unicode="R" horiz-adv-x="1423" d="M766 567 L403 567 L403 0 L154 0 L154 1511 L815 1511 Q965 1511 1083 1457 Q1201 1403 1268 1298.5 Q1335 1194 1335 1049 Q1335 885 1247.5 771.5 Q1160 658 1010 612 L1370 0 L1094 0 L766 567 Z M403 791 L793 791 Q877 791 942.5 819 Q1008 847 1045.5 902.5 Q1083 958 1083 1038 Q1083 1158 1004 1221 Q925 1284 795 1284 L403 1284 L403 791 Z " />
<glyph glyph-name="S" unicode="S" horiz-adv-x="1323" d="M662 199 Q763 199 838.5 226 Q914 253 954.5 303.5 Q995 354 995 422 Q995 486 959.5 526 Q924 566 843.5 596 Q763 626 610 659 Q450 694 345.5 737 Q241 780 176 862.5 Q111 945 111 1081 Q111 1213 177.5 1316 Q244 1419 368 1476.5 Q492 1534 659 1534 Q826 1534 950 1479 Q1074 1424 1141.5 1323.5 Q1209 1223 1212 1090 L963 1090 Q963 1195 884 1254 Q805 1313 662 1313 Q521 1313 444 1257 Q367 1201 365 1106 Q365 1041 405.5 1001 Q446 961 523 935.5 Q600 910 741 881 Q907 846 1017 796.5 Q1127 747 1189 663 Q1251 579 1251 449 Q1251 309 1177 202 Q1103 95 968.5 36 Q834 -23 657 -23 Q475 -23 340.5 37 Q206 97 134 206 Q62 315 61 459 L309 459 Q309 335 401.5 267 Q494 199 662 199 Z " />
<glyph glyph-name="T" unicode="T" horiz-adv-x="1364" d="M557 1280 L51 1280 L51 1511 L1313 1511 L1313 1280 L807 1280 L807 0 L557 0 L557 1280 Z " />
<glyph glyph-name="U" unicode="U" horiz-adv-x="1530" d="M1384 1511 L1384 565 Q1384 385 1310 252.5 Q1236 120 1096 48.5 Q956 -23 762 -23 Q578 -23 438.5 47.5 Q299 118 222 251 Q145 384 145 565 L145 1511 L395 1511 L395 565 Q395 458 439 377.5 Q483 297 567 253 Q651 209 768 209 Q885 209 969 253 Q1053 297 1097 377 Q1141 457 1141 565 L1141 1511 L1384 1511 Z " />
<glyph glyph-name="V" unicode="V" horiz-adv-x="1366" d="M803 0 L567 0 L2 1511 L270 1511 L686 360 L690 360 L1104 1511 L1364 1511 L803 0 Z " />
<glyph glyph-name="W" unicode="W" horiz-adv-x="2120" d="M276 1511 L610 346 L614 346 L954 1511 L1180 1511 L1516 352 L1520 352 L1851 1511 L2107 1511 L1647 0 L1405 0 L1065 1112 L1061 1112 L721 0 L471 0 L12 1511 L276 1511 Z " />
<glyph glyph-name="X" unicode="X" horiz-adv-x="1354" d="M676 606 L674 606 L281 0 L8 0 L514 766 L25 1511 L305 1511 L672 942 L674 942 L1047 1511 L1319 1511 L834 782 L1346 0 L1065 0 L676 606 Z " />
<glyph glyph-name="Y" unicode="Y" horiz-adv-x="1366" d="M4 1511 L285 1511 L684 819 L686 819 L1087 1511 L1362 1511 L809 594 L809 0 L559 0 L559 590 L4 1511 Z " />
<glyph glyph-name="Z" unicode="Z" horiz-adv-x="1300" d="M1214 1511 L1214 1319 L379 227 L1229 227 L1229 0 L70 0 L70 193 L905 1284 L88 1284 L88 1511 L1214 1511 Z " />
<glyph glyph-name="Agrave" unicode="&#xc0;" horiz-adv-x="1442" d="M1044 336 L389 336 L260 0 L4 0 L610 1511 L836 1511 L1438 0 L1174 0 L1044 336 Z M956 559 L719 1176 L715 1176 L477 559 L956 559 Z M678 1909 L859 1590 L666 1590 L441 1909 L678 1909 Z " />
<glyph glyph-name="Aacute" unicode="&#xc1;" horiz-adv-x="1442" d="M1044 336 L389 336 L260 0 L4 0 L610 1511 L836 1511 L1438 0 L1174 0 L1044 336 Z M956 559 L719 1176 L715 1176 L477 559 L956 559 Z M588 1590 L769 1909 L1002 1909 L777 1590 L588 1590 Z " />
<glyph glyph-name="Acircumflex" unicode="&#xc2;" horiz-adv-x="1442" d="M1044 336 L389 336 L260 0 L4 0 L610 1511 L836 1511 L1438 0 L1174 0 L1044 336 Z M956 559 L719 1176 L715 1176 L477 559 L956 559 Z M822 1909 L1053 1590 L855 1590 L721 1780 L588 1590 L394 1590 L625 1909 L822 1909 Z " />
<glyph glyph-name="Atilde" unicode="&#xc3;" horiz-adv-x="1442" d="M1044 336 L389 336 L260 0 L4 0 L610 1511 L836 1511 L1438 0 L1174 0 L1044 336 Z M956 559 L719 1176 L715 1176 L477 559 L956 559 Z M560 1885 Q608 1885 651 1869 Q694 1853 750 1823 Q798 1798 826 1787 Q854 1776 883 1776 Q922 1776 944 1799.5 Q966 1823 967 1879 L1086 1879 Q1079 1749 1024.5 1683 Q970 1617 887 1617 Q838 1617 796 1632.5 Q754 1648 696 1678 Q653 1701 623 1713 Q593 1725 564 1725 Q483 1725 480 1623 L361 1623 Q367 1751 422 1818 Q477 1885 560 1885 Z " />
<glyph glyph-name="Adieresis" unicode="&#xc4;" horiz-adv-x="1442" d="M1044 336 L389 336 L260 0 L4 0 L610 1511 L836 1511 L1438 0 L1174 0 L1044 336 Z M956 559 L719 1176 L715 1176 L477 559 L956 559 Z M627 1864 L627 1635 L408 1635 L408 1864 L627 1864 Z M1037 1864 L1037 1635 L818 1635 L818 1864 L1037 1864 Z " />
<glyph glyph-name="Amacron" unicode="&#x100;" horiz-adv-x="1442" d="M1044 336 L389 336 L260 0 L4 0 L610 1511 L836 1511 L1438 0 L1174 0 L1044 336 Z M956 559 L719 1176 L715 1176 L477 559 L956 559 Z M1009 1830 L1009 1672 L428 1672 L428 1830 L1009 1830 Z " />
<glyph glyph-name="Abreve" unicode="&#x102;" horiz-adv-x="1442" d="M1044 336 L389 336 L260 0 L4 0 L610 1511 L836 1511 L1438 0 L1174 0 L1044 336 Z M956 559 L719 1176 L715 1176 L477 559 L956 559 Z M723 1594 Q577 1594 498 1676 Q419 1758 414 1899 L560 1899 Q563 1818 603.5 1770.5 Q644 1723 723 1723 Q804 1723 844 1770 Q884 1817 889 1899 L1035 1899 Q1030 1759 950 1676.5 Q870 1594 723 1594 Z " />
<glyph glyph-name="Aring" unicode="&#xc5;" horiz-adv-x="1440" d="M582 1442 Q535 1473 508 1523 Q481 1573 481 1634 Q481 1699 512 1752.5 Q543 1806 598 1837 Q653 1868 723 1868 Q793 1868 848 1837 Q903 1806 934 1752.5 Q965 1699 965 1634 Q965 1573 938 1523 Q911 1473 862 1442 L1436 0 L1174 0 L1042 336 L391 336 L260 0 L4 0 L582 1442 Z M604 1634 Q604 1580 636 1545.5 Q668 1511 723 1511 Q780 1511 811 1545.5 Q842 1580 842 1634 Q842 1689 811 1724 Q780 1759 723 1759 Q668 1759 636 1723.5 Q604 1688 604 1634 Z M956 559 L719 1176 L715 1176 L477 559 L956 559 Z " />
<glyph glyph-name="Aogonek" unicode="&#x104;" horiz-adv-x="1442" d="M1352 -199 L1438 -199 L1438 -360 L1282 -360 Q1192 -360 1133.5 -335.5 Q1075 -311 1047.5 -271.5 Q1020 -232 1020 -184 Q1020 -128 1058 -79 Q1096 -30 1169 10 L1044 336 L389 336 L260 0 L4 0 L610 1511 L836 1511 L1438 0 Q1243 -69 1243 -143 Q1243 -169 1267 -184 Q1291 -199 1352 -199 Z M956 559 L719 1176 L715 1176 L477 559 L956 559 Z " />
<glyph glyph-name="AE" unicode="&#xc6;" horiz-adv-x="2003" d="M1907 227 L1907 0 L918 0 L918 336 L418 336 L250 0 L-12 0 L762 1511 L1901 1511 L1901 1284 L1163 1284 L1163 877 L1853 877 L1853 651 L1163 651 L1163 227 L1907 227 Z M918 559 L918 1327 L913 1327 L530 559 L918 559 Z " />
<glyph glyph-name="AEacute" unicode="&#x1fc;" horiz-adv-x="2003" d="M1907 227 L1907 0 L918 0 L918 336 L418 336 L250 0 L-12 0 L762 1511 L1901 1511 L1901 1284 L1163 1284 L1163 877 L1853 877 L1853 651 L1163 651 L1163 227 L1907 227 Z M918 559 L918 1327 L913 1327 L530 559 L918 559 Z M1094 1590 L1275 1909 L1508 1909 L1283 1590 L1094 1590 Z " />
<glyph glyph-name="Cacute" unicode="&#x106;" horiz-adv-x="1489" d="M788 -23 Q572 -23 411.5 78.5 Q251 180 165.5 356.5 Q80 533 80 752 Q80 972 166.5 1150 Q253 1328 414.5 1431 Q576 1534 793 1534 Q965 1534 1099.5 1468 Q1234 1402 1319 1283 Q1404 1164 1432 1008 L1182 1008 Q1145 1147 1042 1225 Q939 1303 793 1303 Q648 1303 544.5 1231 Q441 1159 387.5 1035.5 Q334 912 334 760 Q334 604 388.5 479 Q443 354 546.5 281.5 Q650 209 791 209 Q889 209 970.5 245 Q1052 281 1108 348 Q1164 415 1186 506 L1434 506 Q1406 348 1319.5 228.5 Q1233 109 1097 43 Q961 -23 788 -23 Z M633 1590 L814 1909 L1047 1909 L822 1590 L633 1590 Z " />
<glyph glyph-name="Ccircumflex" unicode="&#x108;" horiz-adv-x="1489" d="M788 -23 Q572 -23 411.5 78.5 Q251 180 165.5 356.5 Q80 533 80 752 Q80 972 166.5 1150 Q253 1328 414.5 1431 Q576 1534 793 1534 Q965 1534 1099.5 1468 Q1234 1402 1319 1283 Q1404 1164 1432 1008 L1182 1008 Q1145 1147 1042 1225 Q939 1303 793 1303 Q648 1303 544.5 1231 Q441 1159 387.5 1035.5 Q334 912 334 760 Q334 604 388.5 479 Q443 354 546.5 281.5 Q650 209 791 209 Q889 209 970.5 245 Q1052 281 1108 348 Q1164 415 1186 506 L1434 506 Q1406 348 1319.5 228.5 Q1233 109 1097 43 Q961 -23 788 -23 Z M867 1909 L1098 1590 L900 1590 L766 1780 L633 1590 L439 1590 L670 1909 L867 1909 Z " />
<glyph glyph-name="Ccaron" unicode="&#x10c;" horiz-adv-x="1489" d="M788 -23 Q572 -23 411.5 78.5 Q251 180 165.5 356.5 Q80 533 80 752 Q80 972 166.5 1150 Q253 1328 414.5 1431 Q576 1534 793 1534 Q965 1534 1099.5 1468 Q1234 1402 1319 1283 Q1404 1164 1432 1008 L1182 1008 Q1145 1147 1042 1225 Q939 1303 793 1303 Q648 1303 544.5 1231 Q441 1159 387.5 1035.5 Q334 912 334 760 Q334 604 388.5 479 Q443 354 546.5 281.5 Q650 209 791 209 Q889 209 970.5 245 Q1052 281 1108 348 Q1164 415 1186 506 L1434 506 Q1406 348 1319.5 228.5 Q1233 109 1097 43 Q961 -23 788 -23 Z M670 1590 L439 1909 L637 1909 L771 1719 L904 1909 L1098 1909 L867 1590 L670 1590 Z " />
<glyph glyph-name="Cdotaccent" unicode="&#x10a;" horiz-adv-x="1489" d="M788 -23 Q572 -23 411.5 78.5 Q251 180 165.5 356.5 Q80 533 80 752 Q80 972 166.5 1150 Q253 1328 414.5 1431 Q576 1534 793 1534 Q965 1534 1099.5 1468 Q1234 1402 1319 1283 Q1404 1164 1432 1008 L1182 1008 Q1145 1147 1042 1225 Q939 1303 793 1303 Q648 1303 544.5 1231 Q441 1159 387.5 1035.5 Q334 912 334 760 Q334 604 388.5 479 Q443 354 546.5 281.5 Q650 209 791 209 Q889 209 970.5 245 Q1052 281 1108 348 Q1164 415 1186 506 L1434 506 Q1406 348 1319.5 228.5 Q1233 109 1097 43 Q961 -23 788 -23 Z M879 1864 L879 1635 L656 1635 L656 1864 L879 1864 Z " />
<glyph glyph-name="Ccedilla" unicode="&#xc7;" horiz-adv-x="1489" d="M807 -23 L797 -55 Q881 -65 927 -102 Q973 -139 973 -199 Q973 -272 912 -316 Q851 -360 733 -360 L614 -360 L614 -244 L711 -244 Q747 -244 764.5 -231 Q782 -218 782 -195 Q782 -170 759.5 -155.5 Q737 -141 690 -141 L653 -141 L690 -16 Q502 7 364 112.5 Q226 218 153 384 Q80 550 80 752 Q80 972 166.5 1150 Q253 1328 414.5 1431 Q576 1534 793 1534 Q965 1534 1099.5 1468 Q1234 1402 1319 1283 Q1404 1164 1432 1008 L1182 1008 Q1145 1147 1042 1225 Q939 1303 793 1303 Q648 1303 544.5 1231 Q441 1159 387.5 1035.5 Q334 912 334 760 Q334 604 388.5 479 Q443 354 546.5 281.5 Q650 209 791 209 Q889 209 970.5 245 Q1052 281 1108 348 Q1164 415 1186 506 L1434 506 Q1406 351 1322 233 Q1238 115 1106 48 Q974 -19 807 -23 Z " />
<glyph glyph-name="Dcaron" unicode="&#x10e;" horiz-adv-x="1530" d="M682 1511 Q933 1511 1106 1410 Q1279 1309 1364.5 1138.5 Q1450 968 1450 760 Q1450 542 1360.5 369.5 Q1271 197 1100 98.5 Q929 0 694 0 L154 0 L154 1511 L682 1511 Z M1196 754 Q1196 924 1130.5 1043 Q1065 1162 944 1223 Q823 1284 659 1284 L403 1284 L403 227 L674 227 Q837 227 954.5 288.5 Q1072 350 1134 468 Q1196 586 1196 754 Z M621 1590 L390 1909 L588 1909 L722 1719 L855 1909 L1049 1909 L818 1590 L621 1590 Z " />
<glyph glyph-name="Dcroat" unicode="&#x110;" horiz-adv-x="1538" d="M1458 760 Q1458 542 1368.5 369.5 Q1279 197 1108 98.5 Q937 0 702 0 L162 0 L162 664 L-12 664 L-12 868 L162 868 L162 1511 L690 1511 Q941 1511 1114 1410 Q1287 1309 1372.5 1138.5 Q1458 968 1458 760 Z M1204 754 Q1204 924 1138.5 1043 Q1073 1162 952 1223 Q831 1284 668 1284 L412 1284 L412 868 L729 868 L729 664 L412 664 L412 227 L682 227 Q846 227 963 288.5 Q1080 350 1142 468 Q1204 586 1204 754 Z " />
<glyph glyph-name="Egrave" unicode="&#xc8;" horiz-adv-x="1315" d="M154 1511 L1212 1511 L1212 1284 L401 1284 L401 877 L1165 877 L1165 651 L401 651 L401 227 L1219 227 L1219 0 L154 0 L154 1511 Z M649 1909 L830 1590 L637 1590 L412 1909 L649 1909 Z " />
<glyph glyph-name="Eacute" unicode="&#xc9;" horiz-adv-x="1315" d="M154 1511 L1212 1511 L1212 1284 L401 1284 L401 877 L1165 877 L1165 651 L401 651 L401 227 L1219 227 L1219 0 L154 0 L154 1511 Z M559 1590 L740 1909 L973 1909 L748 1590 L559 1590 Z " />
<glyph glyph-name="Ecircumflex" unicode="&#xca;" horiz-adv-x="1315" d="M154 1511 L1212 1511 L1212 1284 L401 1284 L401 877 L1165 877 L1165 651 L401 651 L401 227 L1219 227 L1219 0 L154 0 L154 1511 Z M793 1909 L1024 1590 L826 1590 L692 1780 L559 1590 L365 1590 L596 1909 L793 1909 Z " />
<glyph glyph-name="Ecaron" unicode="&#x11a;" horiz-adv-x="1315" d="M154 1511 L1212 1511 L1212 1284 L401 1284 L401 877 L1165 877 L1165 651 L401 651 L401 227 L1219 227 L1219 0 L154 0 L154 1511 Z M596 1590 L365 1909 L563 1909 L697 1719 L830 1909 L1024 1909 L793 1590 L596 1590 Z " />
<glyph glyph-name="Edieresis" unicode="&#xcb;" horiz-adv-x="1315" d="M154 1511 L1212 1511 L1212 1284 L401 1284 L401 877 L1165 877 L1165 651 L401 651 L401 227 L1219 227 L1219 0 L154 0 L154 1511 Z M598 1864 L598 1635 L379 1635 L379 1864 L598 1864 Z M1008 1864 L1008 1635 L789 1635 L789 1864 L1008 1864 Z " />
<glyph glyph-name="Emacron" unicode="&#x112;" horiz-adv-x="1315" d="M154 1511 L1212 1511 L1212 1284 L401 1284 L401 877 L1165 877 L1165 651 L401 651 L401 227 L1219 227 L1219 0 L154 0 L154 1511 Z M980 1830 L980 1672 L399 1672 L399 1830 L980 1830 Z " />
<glyph glyph-name="Ebreve" unicode="&#x114;" horiz-adv-x="1315" d="M154 1511 L1212 1511 L1212 1284 L401 1284 L401 877 L1165 877 L1165 651 L401 651 L401 227 L1219 227 L1219 0 L154 0 L154 1511 Z M694 1594 Q548 1594 469 1676 Q390 1758 385 1899 L531 1899 Q534 1818 574.5 1770.5 Q615 1723 694 1723 Q775 1723 815 1770 Q855 1817 860 1899 L1006 1899 Q1001 1759 921 1676.5 Q841 1594 694 1594 Z " />
<glyph glyph-name="Edotaccent" unicode="&#x116;" horiz-adv-x="1315" d="M154 1511 L1212 1511 L1212 1284 L401 1284 L401 877 L1165 877 L1165 651 L401 651 L401 227 L1219 227 L1219 0 L154 0 L154 1511 Z M805 1864 L805 1635 L582 1635 L582 1864 L805 1864 Z " />
<glyph glyph-name="Eogonek" unicode="&#x118;" horiz-adv-x="1315" d="M1024 -143 Q1024 -169 1047.5 -184 Q1071 -199 1133 -199 L1219 -199 L1219 -360 L1063 -360 Q973 -360 914 -335.5 Q855 -311 828 -271.5 Q801 -232 801 -184 Q801 -79 934 0 L154 0 L154 1511 L1212 1511 L1212 1284 L401 1284 L401 877 L1165 877 L1165 651 L401 651 L401 227 L1219 227 L1219 0 Q1024 -69 1024 -143 Z " />
<glyph glyph-name="Gcircumflex" unicode="&#x11c;" horiz-adv-x="1552" d="M1485 797 Q1489 759 1489 739 Q1489 519 1410.5 346.5 Q1332 174 1177.5 75.5 Q1023 -23 801 -23 Q574 -23 411 81 Q248 185 164 361 Q80 537 80 748 Q80 970 167 1149 Q254 1328 418 1431 Q582 1534 803 1534 Q974 1534 1108 1471 Q1242 1408 1329 1294.5 Q1416 1181 1448 1030 L1196 1030 Q1151 1160 1049 1231.5 Q947 1303 801 1303 Q655 1303 549.5 1230.5 Q444 1158 389 1033.5 Q334 909 334 754 Q334 597 389.5 471.5 Q445 346 551.5 274.5 Q658 203 805 203 Q987 203 1096.5 303 Q1206 403 1233 573 L786 573 L786 797 L1485 797 Z M896 1909 L1127 1590 L929 1590 L795 1780 L662 1590 L468 1590 L699 1909 L896 1909 Z " />
<glyph glyph-name="Gbreve" unicode="&#x11e;" horiz-adv-x="1552" d="M1485 797 Q1489 759 1489 739 Q1489 519 1410.5 346.5 Q1332 174 1177.5 75.5 Q1023 -23 801 -23 Q574 -23 411 81 Q248 185 164 361 Q80 537 80 748 Q80 970 167 1149 Q254 1328 418 1431 Q582 1534 803 1534 Q974 1534 1108 1471 Q1242 1408 1329 1294.5 Q1416 1181 1448 1030 L1196 1030 Q1151 1160 1049 1231.5 Q947 1303 801 1303 Q655 1303 549.5 1230.5 Q444 1158 389 1033.5 Q334 909 334 754 Q334 597 389.5 471.5 Q445 346 551.5 274.5 Q658 203 805 203 Q987 203 1096.5 303 Q1206 403 1233 573 L786 573 L786 797 L1485 797 Z M797 1594 Q651 1594 572 1676 Q493 1758 488 1899 L634 1899 Q637 1818 677.5 1770.5 Q718 1723 797 1723 Q878 1723 918 1770 Q958 1817 963 1899 L1109 1899 Q1104 1759 1024 1676.5 Q944 1594 797 1594 Z " />
<glyph glyph-name="Gdotaccent" unicode="&#x120;" horiz-adv-x="1552" d="M1485 797 Q1489 759 1489 739 Q1489 519 1410.5 346.5 Q1332 174 1177.5 75.5 Q1023 -23 801 -23 Q574 -23 411 81 Q248 185 164 361 Q80 537 80 748 Q80 970 167 1149 Q254 1328 418 1431 Q582 1534 803 1534 Q974 1534 1108 1471 Q1242 1408 1329 1294.5 Q1416 1181 1448 1030 L1196 1030 Q1151 1160 1049 1231.5 Q947 1303 801 1303 Q655 1303 549.5 1230.5 Q444 1158 389 1033.5 Q334 909 334 754 Q334 597 389.5 471.5 Q445 346 551.5 274.5 Q658 203 805 203 Q987 203 1096.5 303 Q1206 403 1233 573 L786 573 L786 797 L1485 797 Z M908 1864 L908 1635 L685 1635 L685 1864 L908 1864 Z " />
<glyph glyph-name="Gcommaaccent" unicode="&#x122;" horiz-adv-x="1552" d="M1485 797 Q1489 759 1489 739 Q1489 519 1410.5 346.5 Q1332 174 1177.5 75.5 Q1023 -23 801 -23 Q574 -23 411 81 Q248 185 164 361 Q80 537 80 748 Q80 970 167 1149 Q254 1328 418 1431 Q582 1534 803 1534 Q974 1534 1108 1471 Q1242 1408 1329 1294.5 Q1416 1181 1448 1030 L1196 1030 Q1151 1160 1049 1231.5 Q947 1303 801 1303 Q655 1303 549.5 1230.5 Q444 1158 389 1033.5 Q334 909 334 754 Q334 597 389.5 471.5 Q445 346 551.5 274.5 Q658 203 805 203 Q987 203 1096.5 303 Q1206 403 1233 573 L786 573 L786 797 L1485 797 Z M606 -393 L713 -74 L936 -74 L783 -393 L606 -393 Z " />
<glyph glyph-name="Hcircumflex" unicode="&#x124;" horiz-adv-x="1540" d="M154 1511 L403 1511 L403 877 L1137 877 L1137 1511 L1386 1511 L1386 0 L1137 0 L1137 649 L403 649 L403 0 L154 0 L154 1511 Z M869 1909 L1100 1590 L902 1590 L768 1780 L635 1590 L441 1590 L672 1909 L869 1909 Z " />
<glyph glyph-name="Hbar" unicode="&#x126;" horiz-adv-x="1538" d="M1538 1112 L1386 1112 L1386 0 L1137 0 L1137 649 L403 649 L403 0 L154 0 L154 1112 L0 1112 L0 1313 L154 1313 L154 1511 L403 1511 L403 1313 L1137 1313 L1137 1511 L1386 1511 L1386 1313 L1538 1313 L1538 1112 Z M1137 1112 L403 1112 L403 877 L1137 877 L1137 1112 Z " />
<glyph glyph-name="Igrave" unicode="&#xcc;" horiz-adv-x="557" d="M154 1511 L403 1511 L403 0 L154 0 L154 1511 Z M234 1909 L415 1590 L222 1590 L-3 1909 L234 1909 Z " />
<glyph glyph-name="Iacute" unicode="&#xcd;" horiz-adv-x="557" d="M154 1511 L403 1511 L403 0 L154 0 L154 1511 Z M144 1590 L325 1909 L558 1909 L333 1590 L144 1590 Z " />
<glyph glyph-name="Icircumflex" unicode="&#xce;" horiz-adv-x="557" d="M154 1511 L403 1511 L403 0 L154 0 L154 1511 Z M378 1909 L609 1590 L411 1590 L277 1780 L144 1590 L-50 1590 L181 1909 L378 1909 Z " />
<glyph glyph-name="Itilde" unicode="&#x128;" horiz-adv-x="557" d="M154 1511 L403 1511 L403 0 L154 0 L154 1511 Z M116 1885 Q164 1885 207 1869 Q250 1853 306 1823 Q354 1798 382 1787 Q410 1776 439 1776 Q478 1776 500 1799.5 Q522 1823 523 1879 L642 1879 Q635 1749 580.5 1683 Q526 1617 443 1617 Q394 1617 352 1632.5 Q310 1648 252 1678 Q209 1701 179 1713 Q149 1725 120 1725 Q39 1725 36 1623 L-83 1623 Q-77 1751 -22 1818 Q33 1885 116 1885 Z " />
<glyph glyph-name="Idieresis" unicode="&#xcf;" horiz-adv-x="557" d="M154 1511 L403 1511 L403 0 L154 0 L154 1511 Z M183 1864 L183 1635 L-36 1635 L-36 1864 L183 1864 Z M593 1864 L593 1635 L374 1635 L374 1864 L593 1864 Z " />
<glyph glyph-name="Imacron" unicode="&#x12a;" horiz-adv-x="557" d="M154 1511 L403 1511 L403 0 L154 0 L154 1511 Z M565 1830 L565 1672 L-16 1672 L-16 1830 L565 1830 Z " />
<glyph glyph-name="Ibreve" unicode="&#x12c;" horiz-adv-x="557" d="M154 1511 L403 1511 L403 0 L154 0 L154 1511 Z M279 1594 Q133 1594 54 1676 Q-25 1758 -30 1899 L116 1899 Q119 1818 159.5 1770.5 Q200 1723 279 1723 Q360 1723 400 1770 Q440 1817 445 1899 L591 1899 Q586 1759 506 1676.5 Q426 1594 279 1594 Z " />
<glyph glyph-name="Idot" unicode="&#x130;" horiz-adv-x="557" d="M154 1511 L403 1511 L403 0 L154 0 L154 1511 Z M390 1864 L390 1635 L167 1635 L167 1864 L390 1864 Z " />
<glyph glyph-name="Iogonek" unicode="&#x12e;" horiz-adv-x="557" d="M451 -199 L451 -360 L272 -360 Q190 -360 136.5 -336 Q83 -312 58 -272.5 Q33 -233 33 -186 Q33 -80 154 6 L154 1511 L403 1511 L403 0 Q325 -38 289.5 -74 Q254 -110 254 -145 Q254 -199 354 -199 L451 -199 Z " />
<glyph glyph-name="IJ" unicode="&#x132;" horiz-adv-x="1722" d="M154 1511 L403 1511 L403 0 L154 0 L154 1511 Z M1577 449 Q1577 307 1520 200.5 Q1463 94 1353 35.5 Q1243 -23 1089 -23 Q941 -23 832.5 34 Q724 91 666 196 Q608 301 606 442 L848 442 Q850 337 910.5 272.5 Q971 208 1085 207 Q1202 208 1264.5 272.5 Q1327 337 1327 444 L1327 1511 L1577 1511 L1577 449 Z " />
<glyph glyph-name="Jcircumflex" unicode="&#x134;" horiz-adv-x="1165" d="M1020 449 Q1020 307 963 200.5 Q906 94 796 35.5 Q686 -23 532 -23 Q384 -23 275.5 34 Q167 91 109 196 Q51 301 49 442 L291 442 Q293 337 353.5 272.5 Q414 208 528 207 Q645 208 707.5 272.5 Q770 337 770 444 L770 1511 L1020 1511 L1020 449 Z M994 1909 L1225 1590 L1027 1590 L893 1780 L760 1590 L566 1590 L797 1909 L994 1909 Z " />
<glyph glyph-name="Kcommaaccent" unicode="&#x136;" horiz-adv-x="1374" d="M803 913 L1360 0 L1069 0 L627 743 L403 520 L403 0 L154 0 L154 1511 L403 1511 L403 813 L406 813 L1065 1511 L1374 1511 L803 913 Z M524 -393 L631 -74 L854 -74 L701 -393 L524 -393 Z " />
<glyph glyph-name="Lacute" unicode="&#x139;" horiz-adv-x="1212" d="M154 1511 L403 1511 L403 231 L1161 231 L1161 0 L154 0 L154 1511 Z M141 1590 L322 1909 L555 1909 L330 1590 L141 1590 Z " />
<glyph glyph-name="Lcaron" unicode="&#x13d;" horiz-adv-x="1212" d="M154 1511 L403 1511 L403 231 L1161 231 L1161 0 L154 0 L154 1511 Z M873 1513 L746 977 L572 977 L658 1513 L873 1513 Z " />
<glyph glyph-name="Lcommaaccent" unicode="&#x13b;" horiz-adv-x="1212" d="M154 1511 L403 1511 L403 231 L1161 231 L1161 0 L154 0 L154 1511 Z M454 -393 L561 -74 L784 -74 L631 -393 L454 -393 Z " />
<glyph glyph-name="Lslash" unicode="&#x141;" horiz-adv-x="1212" d="M1161 231 L1161 0 L154 0 L154 506 L-8 408 L-8 643 L154 741 L154 1511 L403 1511 L403 891 L653 1042 L653 809 L403 657 L403 231 L1161 231 Z " />
<glyph glyph-name="Ldot" unicode="&#x13f;" horiz-adv-x="1212" d="M154 1511 L403 1511 L403 231 L1161 231 L1161 0 L154 0 L154 1511 Z M1016 938 L1016 670 L749 670 L749 938 L1016 938 Z " />
<glyph glyph-name="Nacute" unicode="&#x143;" horiz-adv-x="1559" d="M1405 1511 L1405 0 L1167 0 L399 1130 L395 1130 L395 0 L154 0 L154 1511 L422 1511 L1159 426 L1163 426 L1163 1511 L1405 1511 Z M645 1590 L826 1909 L1059 1909 L834 1590 L645 1590 Z " />
<glyph glyph-name="Ncaron" unicode="&#x147;" horiz-adv-x="1559" d="M1405 1511 L1405 0 L1167 0 L399 1130 L395 1130 L395 0 L154 0 L154 1511 L422 1511 L1159 426 L1163 426 L1163 1511 L1405 1511 Z M682 1590 L451 1909 L649 1909 L783 1719 L916 1909 L1110 1909 L879 1590 L682 1590 Z " />
<glyph glyph-name="Ntilde" unicode="&#xd1;" horiz-adv-x="1559" d="M1405 1511 L1405 0 L1167 0 L399 1130 L395 1130 L395 0 L154 0 L154 1511 L422 1511 L1159 426 L1163 426 L1163 1511 L1405 1511 Z M617 1885 Q665 1885 708 1869 Q751 1853 807 1823 Q855 1798 883 1787 Q911 1776 940 1776 Q979 1776 1001 1799.5 Q1023 1823 1024 1879 L1143 1879 Q1136 1749 1081.5 1683 Q1027 1617 944 1617 Q895 1617 853 1632.5 Q811 1648 753 1678 Q710 1701 680 1713 Q650 1725 621 1725 Q540 1725 537 1623 L418 1623 Q424 1751 479 1818 Q534 1885 617 1885 Z " />
<glyph glyph-name="Ncommaaccent" unicode="&#x145;" horiz-adv-x="1559" d="M1405 1511 L1405 0 L1167 0 L399 1130 L395 1130 L395 0 L154 0 L154 1511 L422 1511 L1159 426 L1163 426 L1163 1511 L1405 1511 Z M595 -393 L702 -74 L925 -74 L772 -393 L595 -393 Z " />
<glyph glyph-name="Ograve" unicode="&#xd2;" horiz-adv-x="1610" d="M80 756 Q80 973 167.5 1150 Q255 1327 419.5 1430.5 Q584 1534 805 1534 Q1026 1534 1190.5 1430.5 Q1355 1327 1442.5 1150 Q1530 973 1530 756 Q1530 538 1441.5 360.5 Q1353 183 1188.5 80 Q1024 -23 805 -23 Q585 -23 420.5 80 Q256 183 168 360.5 Q80 538 80 756 Z M1276 756 Q1276 910 1221 1034 Q1166 1158 1059.5 1230.5 Q953 1303 805 1303 Q657 1303 550.5 1230.5 Q444 1158 389 1034 Q334 910 334 756 Q334 603 388.5 478.5 Q443 354 549.5 281.5 Q656 209 805 209 Q954 209 1060.5 281.5 Q1167 354 1221.5 478.5 Q1276 603 1276 756 Z M760 1909 L941 1590 L748 1590 L523 1909 L760 1909 Z " />
<glyph glyph-name="Oacute" unicode="&#xd3;" horiz-adv-x="1610" d="M80 756 Q80 973 167.5 1150 Q255 1327 419.5 1430.5 Q584 1534 805 1534 Q1026 1534 1190.5 1430.5 Q1355 1327 1442.5 1150 Q1530 973 1530 756 Q1530 538 1441.5 360.5 Q1353 183 1188.5 80 Q1024 -23 805 -23 Q585 -23 420.5 80 Q256 183 168 360.5 Q80 538 80 756 Z M1276 756 Q1276 910 1221 1034 Q1166 1158 1059.5 1230.5 Q953 1303 805 1303 Q657 1303 550.5 1230.5 Q444 1158 389 1034 Q334 910 334 756 Q334 603 388.5 478.5 Q443 354 549.5 281.5 Q656 209 805 209 Q954 209 1060.5 281.5 Q1167 354 1221.5 478.5 Q1276 603 1276 756 Z M670 1590 L851 1909 L1084 1909 L859 1590 L670 1590 Z " />
<glyph glyph-name="Ocircumflex" unicode="&#xd4;" horiz-adv-x="1610" d="M80 756 Q80 973 167.5 1150 Q255 1327 419.5 1430.5 Q584 1534 805 1534 Q1026 1534 1190.5 1430.5 Q1355 1327 1442.5 1150 Q1530 973 1530 756 Q1530 538 1441.5 360.5 Q1353 183 1188.5 80 Q1024 -23 805 -23 Q585 -23 420.5 80 Q256 183 168 360.5 Q80 538 80 756 Z M1276 756 Q1276 910 1221 1034 Q1166 1158 1059.5 1230.5 Q953 1303 805 1303 Q657 1303 550.5 1230.5 Q444 1158 389 1034 Q334 910 334 756 Q334 603 388.5 478.5 Q443 354 549.5 281.5 Q656 209 805 209 Q954 209 1060.5 281.5 Q1167 354 1221.5 478.5 Q1276 603 1276 756 Z M904 1909 L1135 1590 L937 1590 L803 1780 L670 1590 L476 1590 L707 1909 L904 1909 Z " />
<glyph glyph-name="Otilde" unicode="&#xd5;" horiz-adv-x="1610" d="M80 756 Q80 973 167.5 1150 Q255 1327 419.5 1430.5 Q584 1534 805 1534 Q1026 1534 1190.5 1430.5 Q1355 1327 1442.5 1150 Q1530 973 1530 756 Q1530 538 1441.5 360.5 Q1353 183 1188.5 80 Q1024 -23 805 -23 Q585 -23 420.5 80 Q256 183 168 360.5 Q80 538 80 756 Z M1276 756 Q1276 910 1221 1034 Q1166 1158 1059.5 1230.5 Q953 1303 805 1303 Q657 1303 550.5 1230.5 Q444 1158 389 1034 Q334 910 334 756 Q334 603 388.5 478.5 Q443 354 549.5 281.5 Q656 209 805 209 Q954 209 1060.5 281.5 Q1167 354 1221.5 478.5 Q1276 603 1276 756 Z M642 1885 Q690 1885 733 1869 Q776 1853 832 1823 Q880 1798 908 1787 Q936 1776 965 1776 Q1004 1776 1026 1799.5 Q1048 1823 1049 1879 L1168 1879 Q1161 1749 1106.5 1683 Q1052 1617 969 1617 Q920 1617 878 1632.5 Q836 1648 778 1678 Q735 1701 705 1713 Q675 1725 646 1725 Q565 1725 562 1623 L443 1623 Q449 1751 504 1818 Q559 1885 642 1885 Z " />
<glyph glyph-name="Odieresis" unicode="&#xd6;" horiz-adv-x="1610" d="M80 756 Q80 973 167.5 1150 Q255 1327 419.5 1430.5 Q584 1534 805 1534 Q1026 1534 1190.5 1430.5 Q1355 1327 1442.5 1150 Q1530 973 1530 756 Q1530 538 1441.5 360.5 Q1353 183 1188.5 80 Q1024 -23 805 -23 Q585 -23 420.5 80 Q256 183 168 360.5 Q80 538 80 756 Z M1276 756 Q1276 910 1221 1034 Q1166 1158 1059.5 1230.5 Q953 1303 805 1303 Q657 1303 550.5 1230.5 Q444 1158 389 1034 Q334 910 334 756 Q334 603 388.5 478.5 Q443 354 549.5 281.5 Q656 209 805 209 Q954 209 1060.5 281.5 Q1167 354 1221.5 478.5 Q1276 603 1276 756 Z M709 1864 L709 1635 L490 1635 L490 1864 L709 1864 Z M1119 1864 L1119 1635 L900 1635 L900 1864 L1119 1864 Z " />
<glyph glyph-name="Omacron" unicode="&#x14c;" horiz-adv-x="1610" d="M80 756 Q80 973 167.5 1150 Q255 1327 419.5 1430.5 Q584 1534 805 1534 Q1026 1534 1190.5 1430.5 Q1355 1327 1442.5 1150 Q1530 973 1530 756 Q1530 538 1441.5 360.5 Q1353 183 1188.5 80 Q1024 -23 805 -23 Q585 -23 420.5 80 Q256 183 168 360.5 Q80 538 80 756 Z M1276 756 Q1276 910 1221 1034 Q1166 1158 1059.5 1230.5 Q953 1303 805 1303 Q657 1303 550.5 1230.5 Q444 1158 389 1034 Q334 910 334 756 Q334 603 388.5 478.5 Q443 354 549.5 281.5 Q656 209 805 209 Q954 209 1060.5 281.5 Q1167 354 1221.5 478.5 Q1276 603 1276 756 Z M1091 1830 L1091 1672 L510 1672 L510 1830 L1091 1830 Z " />
<glyph glyph-name="Obreve" unicode="&#x14e;" horiz-adv-x="1610" d="M80 756 Q80 973 167.5 1150 Q255 1327 419.5 1430.5 Q584 1534 805 1534 Q1026 1534 1190.5 1430.5 Q1355 1327 1442.5 1150 Q1530 973 1530 756 Q1530 538 1441.5 360.5 Q1353 183 1188.5 80 Q1024 -23 805 -23 Q585 -23 420.5 80 Q256 183 168 360.5 Q80 538 80 756 Z M1276 756 Q1276 910 1221 1034 Q1166 1158 1059.5 1230.5 Q953 1303 805 1303 Q657 1303 550.5 1230.5 Q444 1158 389 1034 Q334 910 334 756 Q334 603 388.5 478.5 Q443 354 549.5 281.5 Q656 209 805 209 Q954 209 1060.5 281.5 Q1167 354 1221.5 478.5 Q1276 603 1276 756 Z M805 1594 Q659 1594 580 1676 Q501 1758 496 1899 L642 1899 Q645 1818 685.5 1770.5 Q726 1723 805 1723 Q886 1723 926 1770 Q966 1817 971 1899 L1117 1899 Q1112 1759 1032 1676.5 Q952 1594 805 1594 Z " />
<glyph glyph-name="Ohungarumlaut" unicode="&#x150;" horiz-adv-x="1610" d="M80 756 Q80 973 167.5 1150 Q255 1327 419.5 1430.5 Q584 1534 805 1534 Q1026 1534 1190.5 1430.5 Q1355 1327 1442.5 1150 Q1530 973 1530 756 Q1530 538 1441.5 360.5 Q1353 183 1188.5 80 Q1024 -23 805 -23 Q585 -23 420.5 80 Q256 183 168 360.5 Q80 538 80 756 Z M1276 756 Q1276 910 1221 1034 Q1166 1158 1059.5 1230.5 Q953 1303 805 1303 Q657 1303 550.5 1230.5 Q444 1158 389 1034 Q334 910 334 756 Q334 603 388.5 478.5 Q443 354 549.5 281.5 Q656 209 805 209 Q954 209 1060.5 281.5 Q1167 354 1221.5 478.5 Q1276 603 1276 756 Z M529 1590 L707 1909 L912 1909 L695 1590 L529 1590 Z M846 1590 L1035 1909 L1238 1909 L1012 1590 L846 1590 Z " />
<glyph glyph-name="Oslash" unicode="&#xd8;" horiz-adv-x="1610" d="M1530 756 Q1530 538 1441.5 360.5 Q1353 183 1188.5 80 Q1024 -23 805 -23 Q574 -23 401 92 L242 -113 L98 0 L264 213 Q175 317 127.5 456.5 Q80 596 80 756 Q80 973 167.5 1150 Q255 1327 419.5 1430.5 Q584 1534 805 1534 Q1037 1534 1208 1419 L1368 1624 L1511 1511 L1346 1298 Q1435 1192 1482.5 1052.5 Q1530 913 1530 756 Z M422 414 L1061 1231 Q949 1303 805 1303 Q657 1303 550.5 1230.5 Q444 1158 389 1034 Q334 910 334 756 Q334 660 356.5 572.5 Q379 485 422 414 Z M1276 756 Q1276 852 1253.5 939.5 Q1231 1027 1188 1098 L549 281 Q659 209 805 209 Q954 209 1060.5 281.5 Q1167 354 1221.5 478.5 Q1276 603 1276 756 Z " />
<glyph glyph-name="Oslashacute" unicode="&#x1fe;" horiz-adv-x="1610" d="M1530 756 Q1530 538 1441.5 360.5 Q1353 183 1188.5 80 Q1024 -23 805 -23 Q574 -23 401 92 L242 -113 L98 0 L264 213 Q175 317 127.5 456.5 Q80 596 80 756 Q80 973 167.5 1150 Q255 1327 419.5 1430.5 Q584 1534 805 1534 Q1037 1534 1208 1419 L1368 1624 L1511 1511 L1346 1298 Q1435 1192 1482.5 1052.5 Q1530 913 1530 756 Z M422 414 L1061 1231 Q949 1303 805 1303 Q657 1303 550.5 1230.5 Q444 1158 389 1034 Q334 910 334 756 Q334 660 356.5 572.5 Q379 485 422 414 Z M1276 756 Q1276 852 1253.5 939.5 Q1231 1027 1188 1098 L549 281 Q659 209 805 209 Q954 209 1060.5 281.5 Q1167 354 1221.5 478.5 Q1276 603 1276 756 Z M670 1590 L851 1909 L1084 1909 L859 1590 L670 1590 Z " />
<glyph glyph-name="OE" unicode="&#x152;" horiz-adv-x="2120" d="M844 0 Q595 0 422.5 101 Q250 202 165 373 Q80 544 80 752 Q80 970 168.5 1142 Q257 1314 427.5 1412.5 Q598 1511 834 1511 L2017 1511 L2017 1284 L1282 1284 L1282 877 L1970 877 L1970 651 L1282 651 L1282 227 L2023 227 L2023 0 L844 0 Z M1036 1284 L856 1284 Q692 1284 575 1223 Q458 1162 396 1044 Q334 926 334 758 Q334 588 399 468.5 Q464 349 584.5 288 Q705 227 868 227 L1036 227 L1036 1284 Z " />
<glyph glyph-name="Racute" unicode="&#x154;" horiz-adv-x="1423" d="M766 567 L403 567 L403 0 L154 0 L154 1511 L815 1511 Q965 1511 1083 1457 Q1201 1403 1268 1298.5 Q1335 1194 1335 1049 Q1335 885 1247.5 771.5 Q1160 658 1010 612 L1370 0 L1094 0 L766 567 Z M403 791 L793 791 Q877 791 942.5 819 Q1008 847 1045.5 902.5 Q1083 958 1083 1038 Q1083 1158 1004 1221 Q925 1284 795 1284 L403 1284 L403 791 Z M551 1590 L732 1909 L965 1909 L740 1590 L551 1590 Z " />
<glyph glyph-name="Rcaron" unicode="&#x158;" horiz-adv-x="1423" d="M766 567 L403 567 L403 0 L154 0 L154 1511 L815 1511 Q965 1511 1083 1457 Q1201 1403 1268 1298.5 Q1335 1194 1335 1049 Q1335 885 1247.5 771.5 Q1160 658 1010 612 L1370 0 L1094 0 L766 567 Z M403 791 L793 791 Q877 791 942.5 819 Q1008 847 1045.5 902.5 Q1083 958 1083 1038 Q1083 1158 1004 1221 Q925 1284 795 1284 L403 1284 L403 791 Z M588 1590 L357 1909 L555 1909 L689 1719 L822 1909 L1016 1909 L785 1590 L588 1590 Z " />
<glyph glyph-name="Rcommaaccent" unicode="&#x156;" horiz-adv-x="1423" d="M766 567 L403 567 L403 0 L154 0 L154 1511 L815 1511 Q965 1511 1083 1457 Q1201 1403 1268 1298.5 Q1335 1194 1335 1049 Q1335 885 1247.5 771.5 Q1160 658 1010 612 L1370 0 L1094 0 L766 567 Z M403 791 L793 791 Q877 791 942.5 819 Q1008 847 1045.5 902.5 Q1083 958 1083 1038 Q1083 1158 1004 1221 Q925 1284 795 1284 L403 1284 L403 791 Z M528 -393 L635 -74 L858 -74 L705 -393 L528 -393 Z " />
<glyph glyph-name="Sacute" unicode="&#x15a;" horiz-adv-x="1323" d="M662 199 Q763 199 838.5 226 Q914 253 954.5 303.5 Q995 354 995 422 Q995 486 959.5 526 Q924 566 843.5 596 Q763 626 610 659 Q450 694 345.5 737 Q241 780 176 862.5 Q111 945 111 1081 Q111 1213 177.5 1316 Q244 1419 368 1476.5 Q492 1534 659 1534 Q826 1534 950 1479 Q1074 1424 1141.5 1323.5 Q1209 1223 1212 1090 L963 1090 Q963 1195 884 1254 Q805 1313 662 1313 Q521 1313 444 1257 Q367 1201 365 1106 Q365 1041 405.5 1001 Q446 961 523 935.5 Q600 910 741 881 Q907 846 1017 796.5 Q1127 747 1189 663 Q1251 579 1251 449 Q1251 309 1177 202 Q1103 95 968.5 36 Q834 -23 657 -23 Q475 -23 340.5 37 Q206 97 134 206 Q62 315 61 459 L309 459 Q309 335 401.5 267 Q494 199 662 199 Z M524 1590 L705 1909 L938 1909 L713 1590 L524 1590 Z " />
<glyph glyph-name="Scircumflex" unicode="&#x15c;" horiz-adv-x="1323" d="M662 199 Q763 199 838.5 226 Q914 253 954.5 303.5 Q995 354 995 422 Q995 486 959.5 526 Q924 566 843.5 596 Q763 626 610 659 Q450 694 345.5 737 Q241 780 176 862.5 Q111 945 111 1081 Q111 1213 177.5 1316 Q244 1419 368 1476.5 Q492 1534 659 1534 Q826 1534 950 1479 Q1074 1424 1141.5 1323.5 Q1209 1223 1212 1090 L963 1090 Q963 1195 884 1254 Q805 1313 662 1313 Q521 1313 444 1257 Q367 1201 365 1106 Q365 1041 405.5 1001 Q446 961 523 935.5 Q600 910 741 881 Q907 846 1017 796.5 Q1127 747 1189 663 Q1251 579 1251 449 Q1251 309 1177 202 Q1103 95 968.5 36 Q834 -23 657 -23 Q475 -23 340.5 37 Q206 97 134 206 Q62 315 61 459 L309 459 Q309 335 401.5 267 Q494 199 662 199 Z M758 1909 L989 1590 L791 1590 L657 1780 L524 1590 L330 1590 L561 1909 L758 1909 Z " />
<glyph glyph-name="Scaron" unicode="&#x160;" horiz-adv-x="1323" d="M662 199 Q763 199 838.5 226 Q914 253 954.5 303.5 Q995 354 995 422 Q995 486 959.5 526 Q924 566 843.5 596 Q763 626 610 659 Q450 694 345.5 737 Q241 780 176 862.5 Q111 945 111 1081 Q111 1213 177.5 1316 Q244 1419 368 1476.5 Q492 1534 659 1534 Q826 1534 950 1479 Q1074 1424 1141.5 1323.5 Q1209 1223 1212 1090 L963 1090 Q963 1195 884 1254 Q805 1313 662 1313 Q521 1313 444 1257 Q367 1201 365 1106 Q365 1041 405.5 1001 Q446 961 523 935.5 Q600 910 741 881 Q907 846 1017 796.5 Q1127 747 1189 663 Q1251 579 1251 449 Q1251 309 1177 202 Q1103 95 968.5 36 Q834 -23 657 -23 Q475 -23 340.5 37 Q206 97 134 206 Q62 315 61 459 L309 459 Q309 335 401.5 267 Q494 199 662 199 Z M561 1590 L330 1909 L528 1909 L662 1719 L795 1909 L989 1909 L758 1590 L561 1590 Z " />
<glyph glyph-name="Scedilla" unicode="&#x15e;" horiz-adv-x="1323" d="M526 -244 L623 -244 Q659 -244 676.5 -231 Q694 -218 694 -195 Q694 -170 671.5 -155.5 Q649 -141 602 -141 L565 -141 L600 -20 Q434 -11 313 50.5 Q192 112 127 217 Q62 322 61 459 L309 459 Q309 335 401.5 267 Q494 199 662 199 Q763 199 838.5 226 Q914 253 954.5 303.5 Q995 354 995 422 Q995 486 959.5 526 Q924 566 843.5 596 Q763 626 610 659 Q450 694 345.5 737 Q241 780 176 862.5 Q111 945 111 1081 Q111 1213 177.5 1316 Q244 1419 368 1476.5 Q492 1534 659 1534 Q826 1534 950 1479 Q1074 1424 1141.5 1323.5 Q1209 1223 1212 1090 L963 1090 Q963 1195 884 1254 Q805 1313 662 1313 Q521 1313 444 1257 Q367 1201 365 1106 Q365 1041 405.5 1001 Q446 961 523 935.5 Q600 910 741 881 Q907 846 1017 796.5 Q1127 747 1189 663 Q1251 579 1251 449 Q1251 317 1185 214.5 Q1119 112 998.5 51 Q878 -10 719 -20 L709 -55 Q793 -65 839 -102 Q885 -139 885 -199 Q885 -272 824 -316 Q763 -360 645 -360 L526 -360 L526 -244 Z " />
<glyph glyph-name="Scommaaccent" unicode="&#x218;" horiz-adv-x="1323" d="M662 199 Q763 199 838.5 226 Q914 253 954.5 303.5 Q995 354 995 422 Q995 486 959.5 526 Q924 566 843.5 596 Q763 626 610 659 Q450 694 345.5 737 Q241 780 176 862.5 Q111 945 111 1081 Q111 1213 177.5 1316 Q244 1419 368 1476.5 Q492 1534 659 1534 Q826 1534 950 1479 Q1074 1424 1141.5 1323.5 Q1209 1223 1212 1090 L963 1090 Q963 1195 884 1254 Q805 1313 662 1313 Q521 1313 444 1257 Q367 1201 365 1106 Q365 1041 405.5 1001 Q446 961 523 935.5 Q600 910 741 881 Q907 846 1017 796.5 Q1127 747 1189 663 Q1251 579 1251 449 Q1251 309 1177 202 Q1103 95 968.5 36 Q834 -23 657 -23 Q475 -23 340.5 37 Q206 97 134 206 Q62 315 61 459 L309 459 Q309 335 401.5 267 Q494 199 662 199 Z M479 -393 L586 -74 L809 -74 L656 -393 L479 -393 Z " />
<glyph glyph-name="Tcaron" unicode="&#x164;" horiz-adv-x="1364" d="M557 1280 L51 1280 L51 1511 L1313 1511 L1313 1280 L807 1280 L807 0 L557 0 L557 1280 Z M586 1590 L355 1909 L553 1909 L687 1719 L820 1909 L1014 1909 L783 1590 L586 1590 Z " />
<glyph glyph-name="uni021A" unicode="&#x21a;" horiz-adv-x="1364" d="M557 1280 L51 1280 L51 1511 L1313 1511 L1313 1280 L807 1280 L807 0 L557 0 L557 1280 Z M499 -393 L606 -74 L829 -74 L676 -393 L499 -393 Z " />
<glyph glyph-name="uni0162" unicode="&#x162;" horiz-adv-x="1364" d="M743 0 L727 -55 Q812 -65 857.5 -102 Q903 -139 903 -199 Q903 -272 842 -316 Q781 -360 664 -360 L545 -360 L545 -244 L641 -244 Q677 -244 695 -231 Q713 -218 713 -195 Q713 -170 690.5 -155.5 Q668 -141 621 -141 L584 -141 L627 0 L557 0 L557 1280 L51 1280 L51 1511 L1313 1511 L1313 1280 L807 1280 L807 0 L743 0 Z " />
<glyph glyph-name="Tbar" unicode="&#x166;" horiz-adv-x="1364" d="M807 1280 L807 846 L1081 846 L1081 639 L807 639 L807 0 L557 0 L557 639 L283 639 L283 846 L557 846 L557 1280 L51 1280 L51 1511 L1313 1511 L1313 1280 L807 1280 Z " />
<glyph glyph-name="Ugrave" unicode="&#xd9;" horiz-adv-x="1530" d="M1384 1511 L1384 565 Q1384 385 1310 252.5 Q1236 120 1096 48.5 Q956 -23 762 -23 Q578 -23 438.5 47.5 Q299 118 222 251 Q145 384 145 565 L145 1511 L395 1511 L395 565 Q395 458 439 377.5 Q483 297 567 253 Q651 209 768 209 Q885 209 969 253 Q1053 297 1097 377 Q1141 457 1141 565 L1141 1511 L1384 1511 Z M719 1909 L900 1590 L707 1590 L482 1909 L719 1909 Z " />
<glyph glyph-name="Uacute" unicode="&#xda;" horiz-adv-x="1530" d="M1384 1511 L1384 565 Q1384 385 1310 252.5 Q1236 120 1096 48.5 Q956 -23 762 -23 Q578 -23 438.5 47.5 Q299 118 222 251 Q145 384 145 565 L145 1511 L395 1511 L395 565 Q395 458 439 377.5 Q483 297 567 253 Q651 209 768 209 Q885 209 969 253 Q1053 297 1097 377 Q1141 457 1141 565 L1141 1511 L1384 1511 Z M629 1590 L810 1909 L1043 1909 L818 1590 L629 1590 Z " />
<glyph glyph-name="Ucircumflex" unicode="&#xdb;" horiz-adv-x="1530" d="M1384 1511 L1384 565 Q1384 385 1310 252.5 Q1236 120 1096 48.5 Q956 -23 762 -23 Q578 -23 438.5 47.5 Q299 118 222 251 Q145 384 145 565 L145 1511 L395 1511 L395 565 Q395 458 439 377.5 Q483 297 567 253 Q651 209 768 209 Q885 209 969 253 Q1053 297 1097 377 Q1141 457 1141 565 L1141 1511 L1384 1511 Z M863 1909 L1094 1590 L896 1590 L762 1780 L629 1590 L435 1590 L666 1909 L863 1909 Z " />
<glyph glyph-name="Utilde" unicode="&#x168;" horiz-adv-x="1530" d="M1384 1511 L1384 565 Q1384 385 1310 252.5 Q1236 120 1096 48.5 Q956 -23 762 -23 Q578 -23 438.5 47.5 Q299 118 222 251 Q145 384 145 565 L145 1511 L395 1511 L395 565 Q395 458 439 377.5 Q483 297 567 253 Q651 209 768 209 Q885 209 969 253 Q1053 297 1097 377 Q1141 457 1141 565 L1141 1511 L1384 1511 Z M601 1885 Q649 1885 692 1869 Q735 1853 791 1823 Q839 1798 867 1787 Q895 1776 924 1776 Q963 1776 985 1799.5 Q1007 1823 1008 1879 L1127 1879 Q1120 1749 1065.5 1683 Q1011 1617 928 1617 Q879 1617 837 1632.5 Q795 1648 737 1678 Q694 1701 664 1713 Q634 1725 605 1725 Q524 1725 521 1623 L402 1623 Q408 1751 463 1818 Q518 1885 601 1885 Z " />
<glyph glyph-name="Udieresis" unicode="&#xdc;" horiz-adv-x="1530" d="M1384 1511 L1384 565 Q1384 385 1310 252.5 Q1236 120 1096 48.5 Q956 -23 762 -23 Q578 -23 438.5 47.5 Q299 118 222 251 Q145 384 145 565 L145 1511 L395 1511 L395 565 Q395 458 439 377.5 Q483 297 567 253 Q651 209 768 209 Q885 209 969 253 Q1053 297 1097 377 Q1141 457 1141 565 L1141 1511 L1384 1511 Z M668 1864 L668 1635 L449 1635 L449 1864 L668 1864 Z M1078 1864 L1078 1635 L859 1635 L859 1864 L1078 1864 Z " />
<glyph glyph-name="Umacron" unicode="&#x16a;" horiz-adv-x="1530" d="M1384 1511 L1384 565 Q1384 385 1310 252.5 Q1236 120 1096 48.5 Q956 -23 762 -23 Q578 -23 438.5 47.5 Q299 118 222 251 Q145 384 145 565 L145 1511 L395 1511 L395 565 Q395 458 439 377.5 Q483 297 567 253 Q651 209 768 209 Q885 209 969 253 Q1053 297 1097 377 Q1141 457 1141 565 L1141 1511 L1384 1511 Z M1050 1830 L1050 1672 L469 1672 L469 1830 L1050 1830 Z " />
<glyph glyph-name="Ubreve" unicode="&#x16c;" horiz-adv-x="1530" d="M1384 1511 L1384 565 Q1384 385 1310 252.5 Q1236 120 1096 48.5 Q956 -23 762 -23 Q578 -23 438.5 47.5 Q299 118 222 251 Q145 384 145 565 L145 1511 L395 1511 L395 565 Q395 458 439 377.5 Q483 297 567 253 Q651 209 768 209 Q885 209 969 253 Q1053 297 1097 377 Q1141 457 1141 565 L1141 1511 L1384 1511 Z M764 1594 Q618 1594 539 1676 Q460 1758 455 1899 L601 1899 Q604 1818 644.5 1770.5 Q685 1723 764 1723 Q845 1723 885 1770 Q925 1817 930 1899 L1076 1899 Q1071 1759 991 1676.5 Q911 1594 764 1594 Z " />
<glyph glyph-name="Uring" unicode="&#x16e;" horiz-adv-x="1530" d="M1384 1511 L1384 565 Q1384 385 1310 252.5 Q1236 120 1096 48.5 Q956 -23 762 -23 Q578 -23 438.5 47.5 Q299 118 222 251 Q145 384 145 565 L145 1511 L395 1511 L395 565 Q395 458 439 377.5 Q483 297 567 253 Q651 209 768 209 Q885 209 969 253 Q1053 297 1097 377 Q1141 457 1141 565 L1141 1511 L1384 1511 Z M524 1739 Q524 1804 554.5 1857.5 Q585 1911 640 1941.5 Q695 1972 765 1972 Q836 1972 891 1941.5 Q946 1911 976.5 1857.5 Q1007 1804 1007 1739 Q1007 1674 976.5 1621 Q946 1568 891 1537.5 Q836 1507 765 1507 Q695 1507 640 1537.5 Q585 1568 554.5 1621 Q524 1674 524 1739 Z M884 1739 Q884 1793 852.5 1828.5 Q821 1864 765 1864 Q710 1864 678.5 1828.5 Q647 1793 647 1739 Q647 1685 678.5 1650.5 Q710 1616 765 1616 Q822 1616 853 1650.5 Q884 1685 884 1739 Z " />
<glyph glyph-name="Uhungarumlaut" unicode="&#x170;" horiz-adv-x="1530" d="M1384 1511 L1384 565 Q1384 385 1310 252.5 Q1236 120 1096 48.5 Q956 -23 762 -23 Q578 -23 438.5 47.5 Q299 118 222 251 Q145 384 145 565 L145 1511 L395 1511 L395 565 Q395 458 439 377.5 Q483 297 567 253 Q651 209 768 209 Q885 209 969 253 Q1053 297 1097 377 Q1141 457 1141 565 L1141 1511 L1384 1511 Z M488 1590 L666 1909 L871 1909 L654 1590 L488 1590 Z M805 1590 L994 1909 L1197 1909 L971 1590 L805 1590 Z " />
<glyph glyph-name="Uogonek" unicode="&#x172;" horiz-adv-x="1530" d="M821 -360 Q732 -360 674 -335.5 Q616 -311 588.5 -271.5 Q561 -232 561 -184 Q561 -136 588.5 -94 Q616 -52 670 -18 L670 -16 Q511 1 392.5 75 Q274 149 209.5 274 Q145 399 145 565 L145 1511 L395 1511 L395 565 Q395 458 439 377.5 Q483 297 567 253 Q651 209 768 209 Q885 209 969 253 Q1053 297 1097 377 Q1141 457 1141 565 L1141 1511 L1384 1511 L1384 565 Q1384 351 1281.5 207 Q1179 63 987 6 Q782 -54 782 -139 Q782 -165 807.5 -182 Q833 -199 893 -199 L979 -199 L979 -360 L821 -360 Z " />
<glyph glyph-name="Wgrave" unicode="&#x1e80;" horiz-adv-x="2120" d="M276 1511 L610 346 L614 346 L954 1511 L1180 1511 L1516 352 L1520 352 L1851 1511 L2107 1511 L1647 0 L1405 0 L1065 1112 L1061 1112 L721 0 L471 0 L12 1511 L276 1511 Z M1018 1909 L1199 1590 L1006 1590 L781 1909 L1018 1909 Z " />
<glyph glyph-name="Wacute" unicode="&#x1e82;" horiz-adv-x="2120" d="M276 1511 L610 346 L614 346 L954 1511 L1180 1511 L1516 352 L1520 352 L1851 1511 L2107 1511 L1647 0 L1405 0 L1065 1112 L1061 1112 L721 0 L471 0 L12 1511 L276 1511 Z M928 1590 L1109 1909 L1342 1909 L1117 1590 L928 1590 Z " />
<glyph glyph-name="Wcircumflex" unicode="&#x174;" horiz-adv-x="2120" d="M276 1511 L610 346 L614 346 L954 1511 L1180 1511 L1516 352 L1520 352 L1851 1511 L2107 1511 L1647 0 L1405 0 L1065 1112 L1061 1112 L721 0 L471 0 L12 1511 L276 1511 Z M1162 1909 L1393 1590 L1195 1590 L1061 1780 L928 1590 L734 1590 L965 1909 L1162 1909 Z " />
<glyph glyph-name="Wdieresis" unicode="&#x1e84;" horiz-adv-x="2120" d="M276 1511 L610 346 L614 346 L954 1511 L1180 1511 L1516 352 L1520 352 L1851 1511 L2107 1511 L1647 0 L1405 0 L1065 1112 L1061 1112 L721 0 L471 0 L12 1511 L276 1511 Z M967 1864 L967 1635 L748 1635 L748 1864 L967 1864 Z M1377 1864 L1377 1635 L1158 1635 L1158 1864 L1377 1864 Z " />
<glyph glyph-name="Ygrave" unicode="&#x1ef2;" horiz-adv-x="1366" d="M4 1511 L285 1511 L684 819 L686 819 L1087 1511 L1362 1511 L809 594 L809 0 L559 0 L559 590 L4 1511 Z M637 1909 L818 1590 L625 1590 L400 1909 L637 1909 Z " />
<glyph glyph-name="Yacute" unicode="&#xdd;" horiz-adv-x="1366" d="M4 1511 L285 1511 L684 819 L686 819 L1087 1511 L1362 1511 L809 594 L809 0 L559 0 L559 590 L4 1511 Z M547 1590 L728 1909 L961 1909 L736 1590 L547 1590 Z " />
<glyph glyph-name="Ycircumflex" unicode="&#x176;" horiz-adv-x="1366" d="M4 1511 L285 1511 L684 819 L686 819 L1087 1511 L1362 1511 L809 594 L809 0 L559 0 L559 590 L4 1511 Z M781 1909 L1012 1590 L814 1590 L680 1780 L547 1590 L353 1590 L584 1909 L781 1909 Z " />
<glyph glyph-name="Ydieresis" unicode="&#x178;" horiz-adv-x="1366" d="M4 1511 L285 1511 L684 819 L686 819 L1087 1511 L1362 1511 L809 594 L809 0 L559 0 L559 590 L4 1511 Z M586 1864 L586 1635 L367 1635 L367 1864 L586 1864 Z M996 1864 L996 1635 L777 1635 L777 1864 L996 1864 Z " />
<glyph glyph-name="Zacute" unicode="&#x179;" horiz-adv-x="1300" d="M1214 1511 L1214 1319 L379 227 L1229 227 L1229 0 L70 0 L70 193 L905 1284 L88 1284 L88 1511 L1214 1511 Z M512 1590 L693 1909 L926 1909 L701 1590 L512 1590 Z " />
<glyph glyph-name="Zcaron" unicode="&#x17d;" horiz-adv-x="1300" d="M1214 1511 L1214 1319 L379 227 L1229 227 L1229 0 L70 0 L70 193 L905 1284 L88 1284 L88 1511 L1214 1511 Z M549 1590 L318 1909 L516 1909 L650 1719 L783 1909 L977 1909 L746 1590 L549 1590 Z " />
<glyph glyph-name="Zdotaccent" unicode="&#x17b;" horiz-adv-x="1300" d="M1214 1511 L1214 1319 L379 227 L1229 227 L1229 0 L70 0 L70 193 L905 1284 L88 1284 L88 1511 L1214 1511 Z M758 1864 L758 1635 L535 1635 L535 1864 L758 1864 Z " />
<glyph glyph-name="Eng" unicode="&#x14a;" horiz-adv-x="1559" d="M154 1511 L422 1511 L1159 426 L1163 426 L1163 1511 L1405 1511 L1405 61 Q1405 -11 1393 -64 Q1381 -117 1351 -166 Q1321 -215 1266 -270 L1151 -385 L989 -223 L1094 -119 Q1130 -83 1143.5 -55.5 Q1157 -28 1157 14 L399 1130 L395 1130 L395 0 L154 0 L154 1511 Z " />
<glyph glyph-name="Eth" unicode="&#xd0;" horiz-adv-x="1538" d="M1458 760 Q1458 542 1368.5 369.5 Q1279 197 1108 98.5 Q937 0 702 0 L162 0 L162 664 L-12 664 L-12 868 L162 868 L162 1511 L690 1511 Q941 1511 1114 1410 Q1287 1309 1372.5 1138.5 Q1458 968 1458 760 Z M1204 754 Q1204 924 1138.5 1043 Q1073 1162 952 1223 Q831 1284 668 1284 L412 1284 L412 868 L729 868 L729 664 L412 664 L412 227 L682 227 Q846 227 963 288.5 Q1080 350 1142 468 Q1204 586 1204 754 Z " />
<glyph glyph-name="Thorn" unicode="&#xde;" horiz-adv-x="1407" d="M1350 764 Q1350 610 1279 497 Q1208 384 1084 324 Q960 264 805 264 L403 264 L403 0 L154 0 L154 1511 L403 1511 L403 1253 L811 1253 Q963 1253 1085.5 1195 Q1208 1137 1279 1026 Q1350 915 1350 764 Z M1098 758 Q1098 845 1058 905 Q1018 965 947.5 995.5 Q877 1026 786 1026 L403 1026 L403 489 L786 489 Q928 489 1013 558.5 Q1098 628 1098 758 Z " />
<glyph glyph-name="a" unicode="a" horiz-adv-x="1120" d="M754 119 L750 119 Q694 51 615 14 Q536 -23 436 -23 Q326 -23 245.5 17.5 Q165 58 122.5 130.5 Q80 203 80 295 Q80 448 197 524 Q257 565 334 586.5 Q411 608 541 631 Q638 649 677 659.5 Q716 670 733 688.5 Q750 707 750 743 Q750 808 697 848.5 Q644 889 541 889 Q440 889 388.5 849.5 Q337 810 332 741 L106 741 Q112 852 169 931 Q226 1010 324 1051 Q422 1092 551 1092 Q689 1092 785.5 1047 Q882 1002 931.5 919.5 Q981 837 981 725 L981 0 L754 0 L754 119 Z M561 457 Q474 443 423.5 427.5 Q373 412 345 384.5 Q317 357 317 311 Q317 247 362 210.5 Q407 174 487 174 Q566 174 626 204.5 Q686 235 718 285.5 Q750 336 750 395 L750 510 Q688 478 561 457 Z " />
<glyph glyph-name="b" unicode="b" horiz-adv-x="1253" d="M143 1511 L377 1511 L377 944 L381 944 Q441 1015 524 1053.5 Q607 1092 707 1092 Q849 1092 956.5 1019.5 Q1064 947 1122 821.5 Q1180 696 1180 541 Q1180 384 1121 255.5 Q1062 127 951 52 Q840 -23 692 -23 Q594 -23 513.5 13.5 Q433 50 373 119 L369 119 L369 0 L143 0 L143 1511 Z M940 532 Q940 632 907.5 711.5 Q875 791 811 837 Q747 883 655 883 Q562 883 497.5 836.5 Q433 790 401 710.5 Q369 631 369 532 Q369 431 401.5 352.5 Q434 274 498.5 229 Q563 184 655 184 Q745 184 809.5 229 Q874 274 907 353 Q940 432 940 532 Z " />
<glyph glyph-name="c" unicode="c" horiz-adv-x="1116" d="M586 -23 Q430 -23 314 49.5 Q198 122 136 248.5 Q74 375 74 532 Q74 690 136 817.5 Q198 945 315 1018.5 Q432 1092 590 1092 Q717 1092 816 1042.5 Q915 993 976 903.5 Q1037 814 1055 698 L821 698 Q800 786 738.5 835.5 Q677 885 588 885 Q501 885 439 839 Q377 793 345 714 Q313 635 313 537 Q313 436 345 356 Q377 276 439.5 230 Q502 184 590 184 Q681 184 743 235 Q805 286 825 373 L1057 373 Q1039 256 977 166.5 Q915 77 815 27 Q715 -23 586 -23 Z " />
<glyph glyph-name="d" unicode="d" horiz-adv-x="1253" d="M883 0 L883 129 L879 129 Q820 56 736 16.5 Q652 -23 549 -23 Q403 -23 295.5 50 Q188 123 131 248.5 Q74 374 74 530 Q74 688 133.5 816 Q193 944 304 1018 Q415 1092 563 1092 Q656 1092 734 1058 Q812 1024 872 963 L877 963 L877 1511 L1110 1511 L1110 0 L883 0 Z M885 537 Q885 638 851.5 716.5 Q818 795 754 839 Q690 883 600 883 Q509 883 444 837.5 Q379 792 346 712.5 Q313 633 313 532 Q313 435 345.5 356 Q378 277 442 230.5 Q506 184 596 184 Q687 184 752.5 230 Q818 276 851.5 356 Q885 436 885 537 Z " />
<glyph glyph-name="e" unicode="e" horiz-adv-x="1143" d="M594 -23 Q433 -23 315.5 48.5 Q198 120 136 245.5 Q74 371 74 530 Q74 693 136 820.5 Q198 948 313 1020 Q428 1092 582 1092 Q731 1092 841.5 1025 Q952 958 1010.5 841.5 Q1069 725 1069 578 Q1069 511 1063 461 L309 461 Q319 379 355 315 Q391 251 452.5 214.5 Q514 178 596 178 Q687 178 749.5 220 Q812 262 834 334 L1063 334 Q1025 163 900.5 70 Q776 -23 594 -23 Z M309 639 L840 639 Q828 757 763.5 824 Q699 891 582 891 Q465 891 395 824 Q325 757 309 639 Z " />
<glyph glyph-name="f" unicode="f" horiz-adv-x="731" d="M219 864 L20 864 L20 1069 L219 1069 L219 1155 Q219 1327 307 1419 Q395 1511 578 1511 L705 1511 L705 1311 L604 1311 Q519 1311 486 1275 Q453 1239 453 1161 L453 1069 L705 1069 L705 864 L453 864 L453 0 L219 0 L219 864 Z " />
<glyph glyph-name="g" unicode="g" horiz-adv-x="1239" d="M586 -188 Q717 -188 790.5 -124.5 Q864 -61 864 72 L864 178 L860 178 Q802 111 722 74 Q642 37 541 37 Q401 37 295 104 Q189 171 131.5 289.5 Q74 408 74 557 Q74 706 132.5 828 Q191 950 299 1021 Q407 1092 549 1092 Q647 1092 726 1054.5 Q805 1017 864 948 L868 948 L868 1069 L1096 1069 L1096 96 Q1096 -60 1033 -167.5 Q970 -275 854.5 -329 Q739 -383 582 -383 Q373 -383 243 -287 Q113 -191 90 -12 L330 -12 Q349 -100 414.5 -144 Q480 -188 586 -188 Z M868 563 Q868 657 835.5 730.5 Q803 804 741 845.5 Q679 887 592 887 Q504 887 441 844 Q378 801 345.5 727 Q313 653 313 561 Q313 468 344.5 393.5 Q376 319 438.5 276 Q501 233 590 233 Q678 233 740.5 276 Q803 319 835.5 394 Q868 469 868 563 Z " />
<glyph glyph-name="h" unicode="h" horiz-adv-x="1217" d="M143 1511 L377 1511 L377 946 L381 946 Q435 1014 516 1053 Q597 1092 696 1092 Q810 1092 896.5 1042.5 Q983 993 1030 906 Q1077 819 1077 709 L1077 0 L844 0 L844 664 Q844 762 790 822.5 Q736 883 633 883 Q558 883 499.5 850.5 Q441 818 409 758.5 Q377 699 377 621 L377 0 L143 0 L143 1511 Z " />
<glyph glyph-name="i" unicode="i" horiz-adv-x="575" d="M432 1511 L432 1276 L180 1276 L180 1511 L432 1511 Z M432 0 L199 0 L199 864 L31 864 L31 1069 L432 1069 L432 0 Z " />
<glyph glyph-name="j" unicode="j" horiz-adv-x="575" d="M432 1511 L432 1276 L180 1276 L180 1511 L432 1511 Z M432 61 Q432 -13 420 -66 Q408 -119 378.5 -166.5 Q349 -214 295 -268 L178 -385 L25 -231 L131 -125 Q171 -85 185 -53 Q199 -21 199 39 L199 864 L31 864 L31 1069 L432 1069 L432 61 Z " />
<glyph glyph-name="k" unicode="k" horiz-adv-x="1106" d="M705 645 L1085 0 L803 0 L524 477 L377 332 L377 0 L143 0 L143 1511 L377 1511 L377 594 L379 594 L809 1069 L1102 1069 L705 645 Z " />
<glyph glyph-name="l" unicode="l" horiz-adv-x="586" d="M418 0 Q276 0 209.5 73.5 Q143 147 143 279 L143 1511 L377 1511 L377 319 Q377 259 404.5 228 Q432 197 496 197 L553 197 L553 0 L418 0 Z " />
<glyph glyph-name="m" unicode="m" horiz-adv-x="1843" d="M1704 733 L1704 0 L1470 0 L1470 684 Q1470 773 1421 828 Q1372 883 1276 883 Q1208 883 1154.5 852.5 Q1101 822 1070.5 767 Q1040 712 1040 641 L1040 0 L807 0 L807 684 Q807 773 756.5 828 Q706 883 610 883 Q543 883 490 852.5 Q437 822 407 767 Q377 712 377 641 L377 0 L143 0 L143 1069 L369 1069 L369 934 L373 934 Q425 1011 504 1051.5 Q583 1092 686 1092 Q795 1092 875 1046 Q955 1000 997 918 Q1054 1003 1141 1047.5 Q1228 1092 1337 1092 Q1448 1092 1531 1046.5 Q1614 1001 1659 919.5 Q1704 838 1704 733 Z " />
<glyph glyph-name="n" unicode="n" horiz-adv-x="1217" d="M143 1069 L369 1069 L369 942 L373 942 Q426 1013 508 1052.5 Q590 1092 692 1092 Q808 1092 895 1042.5 Q982 993 1029.5 906 Q1077 819 1077 709 L1077 0 L844 0 L844 664 Q844 762 790 822.5 Q736 883 633 883 Q558 883 499.5 850.5 Q441 818 409 758.5 Q377 699 377 621 L377 0 L143 0 L143 1069 Z " />
<glyph glyph-name="o" unicode="o" horiz-adv-x="1214" d="M74 535 Q74 691 138.5 817.5 Q203 944 324 1018 Q445 1092 608 1092 Q770 1092 891 1018 Q1012 944 1076.5 817 Q1141 690 1141 535 Q1141 379 1076.5 252 Q1012 125 891 51 Q770 -23 608 -23 Q445 -23 324 51 Q203 125 138.5 252 Q74 379 74 535 Z M901 535 Q901 634 867 713.5 Q833 793 767 839 Q701 885 608 885 Q516 885 449 839 Q382 793 347.5 713 Q313 633 313 535 Q313 436 347.5 356.5 Q382 277 449 230.5 Q516 184 608 184 Q701 184 767 230 Q833 276 867 356 Q901 436 901 535 Z " />
<glyph glyph-name="p" unicode="p" horiz-adv-x="1253" d="M143 1069 L369 1069 L369 938 L373 938 Q434 1012 517.5 1052 Q601 1092 700 1092 Q847 1092 955.5 1019.5 Q1064 947 1122 821 Q1180 695 1180 539 Q1180 382 1120 254 Q1060 126 949 51.5 Q838 -23 690 -23 Q596 -23 517.5 10 Q439 43 381 104 L377 104 L377 -360 L143 -360 L143 1069 Z M940 532 Q940 632 907.5 711.5 Q875 791 811 837 Q747 883 655 883 Q563 883 498.5 837 Q434 791 401.5 711.5 Q369 632 369 532 Q369 430 402 351 Q435 272 499 228 Q563 184 655 184 Q746 184 810 229.5 Q874 275 907 353.5 Q940 432 940 532 Z " />
<glyph glyph-name="q" unicode="q" horiz-adv-x="1253" d="M877 -360 L877 123 L872 123 Q812 55 729.5 16 Q647 -23 549 -23 Q403 -23 295.5 49.5 Q188 122 131 247.5 Q74 373 74 528 Q74 686 133 814.5 Q192 943 302 1017.5 Q412 1092 559 1092 Q660 1092 741 1054.5 Q822 1017 881 948 L885 948 L885 1069 L1110 1069 L1110 -360 L877 -360 Z M885 537 Q885 637 852 715.5 Q819 794 755 838.5 Q691 883 600 883 Q509 883 444.5 838 Q380 793 346.5 713.5 Q313 634 313 532 Q313 432 345.5 353.5 Q378 275 442.5 229.5 Q507 184 598 184 Q690 184 755 230 Q820 276 852.5 356 Q885 436 885 537 Z " />
<glyph glyph-name="r" unicode="r" horiz-adv-x="784" d="M369 1069 L369 913 L373 913 Q421 997 490 1044.5 Q559 1092 647 1092 Q695 1092 750 1073 L750 842 Q696 854 645 854 Q562 854 501.5 819 Q441 784 409 725 Q377 666 377 596 L377 0 L143 0 L143 1069 L369 1069 Z " />
<glyph glyph-name="s" unicode="s" horiz-adv-x="991" d="M496 168 Q592 168 647 203.5 Q702 239 702 301 Q702 338 680.5 361.5 Q659 385 605.5 404 Q552 423 446 446 Q333 470 257.5 502 Q182 534 135 595.5 Q88 657 88 756 Q88 854 137.5 930 Q187 1006 279.5 1049 Q372 1092 498 1092 Q621 1092 712.5 1052 Q804 1012 853.5 938 Q903 864 905 766 L680 766 Q680 829 633 864 Q586 899 498 899 Q412 899 364.5 867 Q317 835 317 780 Q317 741 343.5 717.5 Q370 694 420.5 678 Q471 662 571 641 Q694 614 772 578 Q850 542 892 481.5 Q934 421 934 326 Q934 222 880 143 Q826 64 726 20.5 Q626 -23 494 -23 Q357 -23 258 20.5 Q159 64 106.5 143.5 Q54 223 53 330 L276 330 Q276 252 333 210 Q390 168 496 168 Z " />
<glyph glyph-name="t" unicode="t" horiz-adv-x="750" d="M215 1069 L215 1313 L449 1395 L449 1069 L698 1069 L698 864 L449 864 L449 338 Q449 263 483.5 230 Q518 197 604 197 L698 197 L698 0 L541 0 Q215 0 215 299 L215 864 L16 864 L16 1069 L215 1069 Z " />
<glyph glyph-name="u" unicode="u" horiz-adv-x="1214" d="M1071 1069 L1071 0 L844 0 L844 121 L840 121 Q785 52 703.5 14.5 Q622 -23 522 -23 Q408 -23 321 25.5 Q234 74 186.5 160.5 Q139 247 139 356 L139 1069 L373 1069 L373 401 Q373 306 426.5 245 Q480 184 582 184 Q656 184 714 217 Q772 250 805 310 Q838 370 838 449 L838 1069 L1071 1069 Z " />
<glyph glyph-name="v" unicode="v" horiz-adv-x="1077" d="M276 1069 L541 317 L545 317 L809 1069 L1059 1069 L643 0 L434 0 L18 1069 L276 1069 Z " />
<glyph glyph-name="w" unicode="w" horiz-adv-x="1583" d="M29 1069 L283 1069 L489 344 L494 344 L719 1069 L874 1069 L1098 346 L1102 346 L1309 1069 L1554 1069 L1202 0 L1004 0 L793 649 L788 649 L575 0 L377 0 L29 1069 Z " />
<glyph glyph-name="x" unicode="x" horiz-adv-x="1059" d="M381 545 L39 1069 L307 1069 L532 696 L535 696 L762 1069 L1022 1069 L678 547 L1038 0 L770 0 L526 395 L524 395 L281 0 L20 0 L381 545 Z " />
<glyph glyph-name="y" unicode="y" horiz-adv-x="1077" d="M1059 1069 L707 150 Q657 20 602.5 -62 Q548 -144 461 -231 L307 -385 L154 -231 L322 -63 Q383 -2 414 45 L18 1069 L276 1069 L543 311 L547 311 L809 1069 L1059 1069 Z " />
<glyph glyph-name="z" unicode="z" horiz-adv-x="1020" d="M948 1069 L948 893 L379 205 L965 205 L965 0 L70 0 L70 174 L637 864 L82 864 L82 1069 L948 1069 Z " />
<glyph glyph-name="agrave" unicode="&#xe0;" horiz-adv-x="1120" d="M754 119 L750 119 Q694 51 615 14 Q536 -23 436 -23 Q326 -23 245.5 17.5 Q165 58 122.5 130.5 Q80 203 80 295 Q80 448 197 524 Q257 565 334 586.5 Q411 608 541 631 Q638 649 677 659.5 Q716 670 733 688.5 Q750 707 750 743 Q750 808 697 848.5 Q644 889 541 889 Q440 889 388.5 849.5 Q337 810 332 741 L106 741 Q112 852 169 931 Q226 1010 324 1051 Q422 1092 551 1092 Q689 1092 785.5 1047 Q882 1002 931.5 919.5 Q981 837 981 725 L981 0 L754 0 L754 119 Z M561 457 Q474 443 423.5 427.5 Q373 412 345 384.5 Q317 357 317 311 Q317 247 362 210.5 Q407 174 487 174 Q566 174 626 204.5 Q686 235 718 285.5 Q750 336 750 395 L750 510 Q688 478 561 457 Z M506 1503 L687 1184 L494 1184 L269 1503 L506 1503 Z " />
<glyph glyph-name="aacute" unicode="&#xe1;" horiz-adv-x="1120" d="M754 119 L750 119 Q694 51 615 14 Q536 -23 436 -23 Q326 -23 245.5 17.5 Q165 58 122.5 130.5 Q80 203 80 295 Q80 448 197 524 Q257 565 334 586.5 Q411 608 541 631 Q638 649 677 659.5 Q716 670 733 688.5 Q750 707 750 743 Q750 808 697 848.5 Q644 889 541 889 Q440 889 388.5 849.5 Q337 810 332 741 L106 741 Q112 852 169 931 Q226 1010 324 1051 Q422 1092 551 1092 Q689 1092 785.5 1047 Q882 1002 931.5 919.5 Q981 837 981 725 L981 0 L754 0 L754 119 Z M561 457 Q474 443 423.5 427.5 Q373 412 345 384.5 Q317 357 317 311 Q317 247 362 210.5 Q407 174 487 174 Q566 174 626 204.5 Q686 235 718 285.5 Q750 336 750 395 L750 510 Q688 478 561 457 Z M416 1184 L597 1503 L830 1503 L605 1184 L416 1184 Z " />
<glyph glyph-name="acircumflex" unicode="&#xe2;" horiz-adv-x="1120" d="M754 119 L750 119 Q694 51 615 14 Q536 -23 436 -23 Q326 -23 245.5 17.5 Q165 58 122.5 130.5 Q80 203 80 295 Q80 448 197 524 Q257 565 334 586.5 Q411 608 541 631 Q638 649 677 659.5 Q716 670 733 688.5 Q750 707 750 743 Q750 808 697 848.5 Q644 889 541 889 Q440 889 388.5 849.5 Q337 810 332 741 L106 741 Q112 852 169 931 Q226 1010 324 1051 Q422 1092 551 1092 Q689 1092 785.5 1047 Q882 1002 931.5 919.5 Q981 837 981 725 L981 0 L754 0 L754 119 Z M561 457 Q474 443 423.5 427.5 Q373 412 345 384.5 Q317 357 317 311 Q317 247 362 210.5 Q407 174 487 174 Q566 174 626 204.5 Q686 235 718 285.5 Q750 336 750 395 L750 510 Q688 478 561 457 Z M650 1503 L881 1184 L683 1184 L549 1374 L416 1184 L222 1184 L453 1503 L650 1503 Z " />
<glyph glyph-name="atilde" unicode="&#xe3;" horiz-adv-x="1120" d="M754 119 L750 119 Q694 51 615 14 Q536 -23 436 -23 Q326 -23 245.5 17.5 Q165 58 122.5 130.5 Q80 203 80 295 Q80 448 197 524 Q257 565 334 586.5 Q411 608 541 631 Q638 649 677 659.5 Q716 670 733 688.5 Q750 707 750 743 Q750 808 697 848.5 Q644 889 541 889 Q440 889 388.5 849.5 Q337 810 332 741 L106 741 Q112 852 169 931 Q226 1010 324 1051 Q422 1092 551 1092 Q689 1092 785.5 1047 Q882 1002 931.5 919.5 Q981 837 981 725 L981 0 L754 0 L754 119 Z M561 457 Q474 443 423.5 427.5 Q373 412 345 384.5 Q317 357 317 311 Q317 247 362 210.5 Q407 174 487 174 Q566 174 626 204.5 Q686 235 718 285.5 Q750 336 750 395 L750 510 Q688 478 561 457 Z M388 1479 Q436 1479 479 1463 Q522 1447 578 1417 Q626 1392 654 1381 Q682 1370 711 1370 Q750 1370 772 1393.5 Q794 1417 795 1473 L914 1473 Q907 1343 852.5 1277 Q798 1211 715 1211 Q666 1211 624 1226.5 Q582 1242 524 1272 Q481 1295 451 1307 Q421 1319 392 1319 Q311 1319 308 1217 L189 1217 Q195 1345 250 1412 Q305 1479 388 1479 Z " />
<glyph glyph-name="adieresis" unicode="&#xe4;" horiz-adv-x="1120" d="M754 119 L750 119 Q694 51 615 14 Q536 -23 436 -23 Q326 -23 245.5 17.5 Q165 58 122.5 130.5 Q80 203 80 295 Q80 448 197 524 Q257 565 334 586.5 Q411 608 541 631 Q638 649 677 659.5 Q716 670 733 688.5 Q750 707 750 743 Q750 808 697 848.5 Q644 889 541 889 Q440 889 388.5 849.5 Q337 810 332 741 L106 741 Q112 852 169 931 Q226 1010 324 1051 Q422 1092 551 1092 Q689 1092 785.5 1047 Q882 1002 931.5 919.5 Q981 837 981 725 L981 0 L754 0 L754 119 Z M561 457 Q474 443 423.5 427.5 Q373 412 345 384.5 Q317 357 317 311 Q317 247 362 210.5 Q407 174 487 174 Q566 174 626 204.5 Q686 235 718 285.5 Q750 336 750 395 L750 510 Q688 478 561 457 Z M455 1458 L455 1229 L236 1229 L236 1458 L455 1458 Z M865 1458 L865 1229 L646 1229 L646 1458 L865 1458 Z " />
<glyph glyph-name="amacron" unicode="&#x101;" horiz-adv-x="1120" d="M754 119 L750 119 Q694 51 615 14 Q536 -23 436 -23 Q326 -23 245.5 17.5 Q165 58 122.5 130.5 Q80 203 80 295 Q80 448 197 524 Q257 565 334 586.5 Q411 608 541 631 Q638 649 677 659.5 Q716 670 733 688.5 Q750 707 750 743 Q750 808 697 848.5 Q644 889 541 889 Q440 889 388.5 849.5 Q337 810 332 741 L106 741 Q112 852 169 931 Q226 1010 324 1051 Q422 1092 551 1092 Q689 1092 785.5 1047 Q882 1002 931.5 919.5 Q981 837 981 725 L981 0 L754 0 L754 119 Z M561 457 Q474 443 423.5 427.5 Q373 412 345 384.5 Q317 357 317 311 Q317 247 362 210.5 Q407 174 487 174 Q566 174 626 204.5 Q686 235 718 285.5 Q750 336 750 395 L750 510 Q688 478 561 457 Z M837 1424 L837 1266 L256 1266 L256 1424 L837 1424 Z " />
<glyph glyph-name="abreve" unicode="&#x103;" horiz-adv-x="1120" d="M754 119 L750 119 Q694 51 615 14 Q536 -23 436 -23 Q326 -23 245.5 17.5 Q165 58 122.5 130.5 Q80 203 80 295 Q80 448 197 524 Q257 565 334 586.5 Q411 608 541 631 Q638 649 677 659.5 Q716 670 733 688.5 Q750 707 750 743 Q750 808 697 848.5 Q644 889 541 889 Q440 889 388.5 849.5 Q337 810 332 741 L106 741 Q112 852 169 931 Q226 1010 324 1051 Q422 1092 551 1092 Q689 1092 785.5 1047 Q882 1002 931.5 919.5 Q981 837 981 725 L981 0 L754 0 L754 119 Z M561 457 Q474 443 423.5 427.5 Q373 412 345 384.5 Q317 357 317 311 Q317 247 362 210.5 Q407 174 487 174 Q566 174 626 204.5 Q686 235 718 285.5 Q750 336 750 395 L750 510 Q688 478 561 457 Z M551 1188 Q405 1188 326 1270 Q247 1352 242 1493 L388 1493 Q391 1412 431.5 1364.5 Q472 1317 551 1317 Q632 1317 672 1364 Q712 1411 717 1493 L863 1493 Q858 1353 778 1270.5 Q698 1188 551 1188 Z " />
<glyph glyph-name="aring" unicode="&#xe5;" horiz-adv-x="1120" d="M754 119 L750 119 Q694 51 615 14 Q536 -23 436 -23 Q326 -23 245.5 17.5 Q165 58 122.5 130.5 Q80 203 80 295 Q80 448 197 524 Q257 565 334 586.5 Q411 608 541 631 Q638 649 677 659.5 Q716 670 733 688.5 Q750 707 750 743 Q750 808 697 848.5 Q644 889 541 889 Q440 889 388.5 849.5 Q337 810 332 741 L106 741 Q112 852 169 931 Q226 1010 324 1051 Q422 1092 551 1092 Q689 1092 785.5 1047 Q882 1002 931.5 919.5 Q981 837 981 725 L981 0 L754 0 L754 119 Z M561 457 Q474 443 423.5 427.5 Q373 412 345 384.5 Q317 357 317 311 Q317 247 362 210.5 Q407 174 487 174 Q566 174 626 204.5 Q686 235 718 285.5 Q750 336 750 395 L750 510 Q688 478 561 457 Z M310 1389 Q310 1454 340.5 1507.5 Q371 1561 426 1591.5 Q481 1622 551 1622 Q622 1622 677 1591.5 Q732 1561 762.5 1507.5 Q793 1454 793 1389 Q793 1324 762.5 1271 Q732 1218 677 1187.5 Q622 1157 551 1157 Q481 1157 426 1187.5 Q371 1218 340.5 1271 Q310 1324 310 1389 Z M670 1389 Q670 1443 638.5 1478.5 Q607 1514 551 1514 Q496 1514 464.5 1478.5 Q433 1443 433 1389 Q433 1335 464.5 1300.5 Q496 1266 551 1266 Q608 1266 639 1300.5 Q670 1335 670 1389 Z " />
<glyph glyph-name="aogonek" unicode="&#x105;" horiz-adv-x="1120" d="M786 -143 Q786 -169 810 -184 Q834 -199 895 -199 L981 -199 L981 -360 L825 -360 Q735 -360 676.5 -335.5 Q618 -311 590.5 -271.5 Q563 -232 563 -184 Q563 -61 754 31 L754 119 L750 119 Q694 51 615 14 Q536 -23 436 -23 Q326 -23 245.5 17.5 Q165 58 122.5 130.5 Q80 203 80 295 Q80 448 197 524 Q257 565 334 586.5 Q411 608 541 631 Q638 649 677 659.5 Q716 670 733 688.5 Q750 707 750 743 Q750 808 697 848.5 Q644 889 541 889 Q440 889 388.5 849.5 Q337 810 332 741 L106 741 Q112 852 169 931 Q226 1010 324 1051 Q422 1092 551 1092 Q689 1092 785.5 1047 Q882 1002 931.5 919.5 Q981 837 981 725 L981 0 Q786 -70 786 -143 Z M561 457 Q474 443 423.5 427.5 Q373 412 345 384.5 Q317 357 317 311 Q317 247 362 210.5 Q407 174 487 174 Q566 174 626 204.5 Q686 235 718 285.5 Q750 336 750 395 L750 510 Q688 478 561 457 Z " />
<glyph glyph-name="ae" unicode="&#xe6;" horiz-adv-x="1794" d="M1253 -23 Q1118 -23 1014.5 33.5 Q911 90 846 190 L844 190 Q784 89 686 33 Q588 -23 449 -23 Q332 -23 248.5 19 Q165 61 122.5 133.5 Q80 206 80 297 Q80 448 197 524 Q257 565 334 586.5 Q411 608 541 631 Q638 649 677 659.5 Q716 670 733 688.5 Q750 707 750 743 Q750 808 697 848.5 Q644 889 541 889 Q440 889 388.5 849.5 Q337 810 332 741 L106 741 Q112 852 168 931 Q224 1010 321 1051 Q418 1092 545 1092 Q667 1092 756 1054 Q845 1016 895 946 L897 946 Q961 1016 1049 1054 Q1137 1092 1243 1092 Q1388 1092 1496 1025 Q1604 958 1662 841 Q1720 724 1720 578 Q1720 511 1714 461 L977 461 Q991 334 1062 256 Q1133 178 1253 178 Q1341 178 1402 220 Q1463 262 1485 334 L1714 334 Q1675 163 1552.5 70 Q1430 -23 1253 -23 Z M979 639 L1491 639 Q1480 757 1415 824 Q1350 891 1235 891 Q1121 891 1057 824.5 Q993 758 979 639 Z M561 457 Q474 444 423.5 429 Q373 414 345 386 Q317 358 317 311 Q317 247 362 210.5 Q407 174 487 174 Q566 174 625.5 204 Q685 234 717.5 284.5 Q750 335 750 395 L750 510 Q681 474 561 457 Z " />
<glyph glyph-name="aeacute" unicode="&#x1fd;" horiz-adv-x="1794" d="M1253 -23 Q1118 -23 1014.5 33.5 Q911 90 846 190 L844 190 Q784 89 686 33 Q588 -23 449 -23 Q332 -23 248.5 19 Q165 61 122.5 133.5 Q80 206 80 297 Q80 448 197 524 Q257 565 334 586.5 Q411 608 541 631 Q638 649 677 659.5 Q716 670 733 688.5 Q750 707 750 743 Q750 808 697 848.5 Q644 889 541 889 Q440 889 388.5 849.5 Q337 810 332 741 L106 741 Q112 852 168 931 Q224 1010 321 1051 Q418 1092 545 1092 Q667 1092 756 1054 Q845 1016 895 946 L897 946 Q961 1016 1049 1054 Q1137 1092 1243 1092 Q1388 1092 1496 1025 Q1604 958 1662 841 Q1720 724 1720 578 Q1720 511 1714 461 L977 461 Q991 334 1062 256 Q1133 178 1253 178 Q1341 178 1402 220 Q1463 262 1485 334 L1714 334 Q1675 163 1552.5 70 Q1430 -23 1253 -23 Z M979 639 L1491 639 Q1480 757 1415 824 Q1350 891 1235 891 Q1121 891 1057 824.5 Q993 758 979 639 Z M561 457 Q474 444 423.5 429 Q373 414 345 386 Q317 358 317 311 Q317 247 362 210.5 Q407 174 487 174 Q566 174 625.5 204 Q685 234 717.5 284.5 Q750 335 750 395 L750 510 Q681 474 561 457 Z M772 1184 L953 1503 L1186 1503 L961 1184 L772 1184 Z " />
<glyph glyph-name="cacute" unicode="&#x107;" horiz-adv-x="1116" d="M586 -23 Q430 -23 314 49.5 Q198 122 136 248.5 Q74 375 74 532 Q74 690 136 817.5 Q198 945 315 1018.5 Q432 1092 590 1092 Q717 1092 816 1042.5 Q915 993 976 903.5 Q1037 814 1055 698 L821 698 Q800 786 738.5 835.5 Q677 885 588 885 Q501 885 439 839 Q377 793 345 714 Q313 635 313 537 Q313 436 345 356 Q377 276 439.5 230 Q502 184 590 184 Q681 184 743 235 Q805 286 825 373 L1057 373 Q1039 256 977 166.5 Q915 77 815 27 Q715 -23 586 -23 Z M436 1184 L617 1503 L850 1503 L625 1184 L436 1184 Z " />
<glyph glyph-name="ccircumflex" unicode="&#x109;" horiz-adv-x="1116" d="M586 -23 Q430 -23 314 49.5 Q198 122 136 248.5 Q74 375 74 532 Q74 690 136 817.5 Q198 945 315 1018.5 Q432 1092 590 1092 Q717 1092 816 1042.5 Q915 993 976 903.5 Q1037 814 1055 698 L821 698 Q800 786 738.5 835.5 Q677 885 588 885 Q501 885 439 839 Q377 793 345 714 Q313 635 313 537 Q313 436 345 356 Q377 276 439.5 230 Q502 184 590 184 Q681 184 743 235 Q805 286 825 373 L1057 373 Q1039 256 977 166.5 Q915 77 815 27 Q715 -23 586 -23 Z M670 1503 L901 1184 L703 1184 L569 1374 L436 1184 L242 1184 L473 1503 L670 1503 Z " />
<glyph glyph-name="ccaron" unicode="&#x10d;" horiz-adv-x="1116" d="M586 -23 Q430 -23 314 49.5 Q198 122 136 248.5 Q74 375 74 532 Q74 690 136 817.5 Q198 945 315 1018.5 Q432 1092 590 1092 Q717 1092 816 1042.5 Q915 993 976 903.5 Q1037 814 1055 698 L821 698 Q800 786 738.5 835.5 Q677 885 588 885 Q501 885 439 839 Q377 793 345 714 Q313 635 313 537 Q313 436 345 356 Q377 276 439.5 230 Q502 184 590 184 Q681 184 743 235 Q805 286 825 373 L1057 373 Q1039 256 977 166.5 Q915 77 815 27 Q715 -23 586 -23 Z M473 1184 L242 1503 L440 1503 L574 1313 L707 1503 L901 1503 L670 1184 L473 1184 Z " />
<glyph glyph-name="cdotaccent" unicode="&#x10b;" horiz-adv-x="1116" d="M586 -23 Q430 -23 314 49.5 Q198 122 136 248.5 Q74 375 74 532 Q74 690 136 817.5 Q198 945 315 1018.5 Q432 1092 590 1092 Q717 1092 816 1042.5 Q915 993 976 903.5 Q1037 814 1055 698 L821 698 Q800 786 738.5 835.5 Q677 885 588 885 Q501 885 439 839 Q377 793 345 714 Q313 635 313 537 Q313 436 345 356 Q377 276 439.5 230 Q502 184 590 184 Q681 184 743 235 Q805 286 825 373 L1057 373 Q1039 256 977 166.5 Q915 77 815 27 Q715 -23 586 -23 Z M682 1458 L682 1229 L459 1229 L459 1458 L682 1458 Z " />
<glyph glyph-name="ccedilla" unicode="&#xe7;" horiz-adv-x="1116" d="M616 -23 L606 -55 Q691 -65 736.5 -102 Q782 -139 782 -199 Q782 -272 721.5 -316 Q661 -360 543 -360 L424 -360 L424 -244 L520 -244 Q556 -244 574 -231 Q592 -218 592 -195 Q592 -170 569.5 -155.5 Q547 -141 500 -141 L463 -141 L500 -16 Q368 3 272 79 Q176 155 125 272.5 Q74 390 74 532 Q74 690 136 817.5 Q198 945 315 1018.5 Q432 1092 590 1092 Q717 1092 816 1042.5 Q915 993 976 903.5 Q1037 814 1055 698 L821 698 Q800 786 738.5 835.5 Q677 885 588 885 Q501 885 439 839 Q377 793 345 714 Q313 635 313 537 Q313 436 345 356 Q377 276 439.5 230 Q502 184 590 184 Q681 184 743 235 Q805 286 825 373 L1057 373 Q1040 260 982.5 172.5 Q925 85 831 34 Q737 -17 616 -23 Z " />
<glyph glyph-name="dcaron" unicode="&#x10f;" horiz-adv-x="1485" d="M883 0 L883 129 L879 129 Q820 56 736 16.5 Q652 -23 549 -23 Q403 -23 295.5 50 Q188 123 131 248.5 Q74 374 74 530 Q74 688 133.5 816 Q193 944 304 1018 Q415 1092 563 1092 Q656 1092 734 1058 Q812 1024 872 963 L877 963 L877 1511 L1110 1511 L1110 0 L883 0 Z M885 537 Q885 638 851.5 716.5 Q818 795 754 839 Q690 883 600 883 Q509 883 444 837.5 Q379 792 346 712.5 Q313 633 313 532 Q313 435 345.5 356 Q378 277 442 230.5 Q506 184 596 184 Q687 184 752.5 230 Q818 276 851.5 356 Q885 436 885 537 Z M1219 1083 L1315 1511 L1536 1511 L1397 1083 L1219 1083 Z " />
<glyph glyph-name="dslash" unicode="&#x111;" horiz-adv-x="1253" d="M1253 1202 L1110 1202 L1110 0 L883 0 L883 129 L879 129 Q820 56 736 16.5 Q652 -23 549 -23 Q403 -23 295.5 50 Q188 123 131 248.5 Q74 374 74 530 Q74 688 133.5 816 Q193 944 304 1018 Q415 1092 563 1092 Q656 1092 734 1058 Q812 1024 872 963 L877 963 L877 1202 L553 1202 L553 1389 L877 1389 L877 1511 L1110 1511 L1110 1389 L1253 1389 L1253 1202 Z M885 537 Q885 638 851.5 716.5 Q818 795 754 839 Q690 883 600 883 Q509 883 444 837.5 Q379 792 346 712.5 Q313 633 313 532 Q313 435 345.5 356 Q378 277 442 230.5 Q506 184 596 184 Q687 184 752.5 230 Q818 276 851.5 356 Q885 436 885 537 Z " />
<glyph glyph-name="egrave" unicode="&#xe8;" horiz-adv-x="1143" d="M594 -23 Q433 -23 315.5 48.5 Q198 120 136 245.5 Q74 371 74 530 Q74 693 136 820.5 Q198 948 313 1020 Q428 1092 582 1092 Q731 1092 841.5 1025 Q952 958 1010.5 841.5 Q1069 725 1069 578 Q1069 511 1063 461 L309 461 Q319 379 355 315 Q391 251 452.5 214.5 Q514 178 596 178 Q687 178 749.5 220 Q812 262 834 334 L1063 334 Q1025 163 900.5 70 Q776 -23 594 -23 Z M309 639 L840 639 Q828 757 763.5 824 Q699 891 582 891 Q465 891 395 824 Q325 757 309 639 Z M530 1503 L711 1184 L518 1184 L293 1503 L530 1503 Z " />
<glyph glyph-name="eacute" unicode="&#xe9;" horiz-adv-x="1143" d="M594 -23 Q433 -23 315.5 48.5 Q198 120 136 245.5 Q74 371 74 530 Q74 693 136 820.5 Q198 948 313 1020 Q428 1092 582 1092 Q731 1092 841.5 1025 Q952 958 1010.5 841.5 Q1069 725 1069 578 Q1069 511 1063 461 L309 461 Q319 379 355 315 Q391 251 452.5 214.5 Q514 178 596 178 Q687 178 749.5 220 Q812 262 834 334 L1063 334 Q1025 163 900.5 70 Q776 -23 594 -23 Z M309 639 L840 639 Q828 757 763.5 824 Q699 891 582 891 Q465 891 395 824 Q325 757 309 639 Z M440 1184 L621 1503 L854 1503 L629 1184 L440 1184 Z " />
<glyph glyph-name="ecircumflex" unicode="&#xea;" horiz-adv-x="1143" d="M594 -23 Q433 -23 315.5 48.5 Q198 120 136 245.5 Q74 371 74 530 Q74 693 136 820.5 Q198 948 313 1020 Q428 1092 582 1092 Q731 1092 841.5 1025 Q952 958 1010.5 841.5 Q1069 725 1069 578 Q1069 511 1063 461 L309 461 Q319 379 355 315 Q391 251 452.5 214.5 Q514 178 596 178 Q687 178 749.5 220 Q812 262 834 334 L1063 334 Q1025 163 900.5 70 Q776 -23 594 -23 Z M309 639 L840 639 Q828 757 763.5 824 Q699 891 582 891 Q465 891 395 824 Q325 757 309 639 Z M674 1503 L905 1184 L707 1184 L573 1374 L440 1184 L246 1184 L477 1503 L674 1503 Z " />
<glyph glyph-name="ecaron" unicode="&#x11b;" horiz-adv-x="1143" d="M594 -23 Q433 -23 315.5 48.5 Q198 120 136 245.5 Q74 371 74 530 Q74 693 136 820.5 Q198 948 313 1020 Q428 1092 582 1092 Q731 1092 841.5 1025 Q952 958 1010.5 841.5 Q1069 725 1069 578 Q1069 511 1063 461 L309 461 Q319 379 355 315 Q391 251 452.5 214.5 Q514 178 596 178 Q687 178 749.5 220 Q812 262 834 334 L1063 334 Q1025 163 900.5 70 Q776 -23 594 -23 Z M309 639 L840 639 Q828 757 763.5 824 Q699 891 582 891 Q465 891 395 824 Q325 757 309 639 Z M477 1184 L246 1503 L444 1503 L578 1313 L711 1503 L905 1503 L674 1184 L477 1184 Z " />
<glyph glyph-name="edieresis" unicode="&#xeb;" horiz-adv-x="1143" d="M594 -23 Q433 -23 315.5 48.5 Q198 120 136 245.5 Q74 371 74 530 Q74 693 136 820.5 Q198 948 313 1020 Q428 1092 582 1092 Q731 1092 841.5 1025 Q952 958 1010.5 841.5 Q1069 725 1069 578 Q1069 511 1063 461 L309 461 Q319 379 355 315 Q391 251 452.5 214.5 Q514 178 596 178 Q687 178 749.5 220 Q812 262 834 334 L1063 334 Q1025 163 900.5 70 Q776 -23 594 -23 Z M309 639 L840 639 Q828 757 763.5 824 Q699 891 582 891 Q465 891 395 824 Q325 757 309 639 Z M479 1458 L479 1229 L260 1229 L260 1458 L479 1458 Z M889 1458 L889 1229 L670 1229 L670 1458 L889 1458 Z " />
<glyph glyph-name="emacron" unicode="&#x113;" horiz-adv-x="1143" d="M594 -23 Q433 -23 315.5 48.5 Q198 120 136 245.5 Q74 371 74 530 Q74 693 136 820.5 Q198 948 313 1020 Q428 1092 582 1092 Q731 1092 841.5 1025 Q952 958 1010.5 841.5 Q1069 725 1069 578 Q1069 511 1063 461 L309 461 Q319 379 355 315 Q391 251 452.5 214.5 Q514 178 596 178 Q687 178 749.5 220 Q812 262 834 334 L1063 334 Q1025 163 900.5 70 Q776 -23 594 -23 Z M309 639 L840 639 Q828 757 763.5 824 Q699 891 582 891 Q465 891 395 824 Q325 757 309 639 Z M861 1424 L861 1266 L280 1266 L280 1424 L861 1424 Z " />
<glyph glyph-name="ebreve" unicode="&#x115;" horiz-adv-x="1143" d="M594 -23 Q433 -23 315.5 48.5 Q198 120 136 245.5 Q74 371 74 530 Q74 693 136 820.5 Q198 948 313 1020 Q428 1092 582 1092 Q731 1092 841.5 1025 Q952 958 1010.5 841.5 Q1069 725 1069 578 Q1069 511 1063 461 L309 461 Q319 379 355 315 Q391 251 452.5 214.5 Q514 178 596 178 Q687 178 749.5 220 Q812 262 834 334 L1063 334 Q1025 163 900.5 70 Q776 -23 594 -23 Z M309 639 L840 639 Q828 757 763.5 824 Q699 891 582 891 Q465 891 395 824 Q325 757 309 639 Z M575 1188 Q429 1188 350 1270 Q271 1352 266 1493 L412 1493 Q415 1412 455.5 1364.5 Q496 1317 575 1317 Q656 1317 696 1364 Q736 1411 741 1493 L887 1493 Q882 1353 802 1270.5 Q722 1188 575 1188 Z " />
<glyph glyph-name="edotaccent" unicode="&#x117;" horiz-adv-x="1143" d="M594 -23 Q433 -23 315.5 48.5 Q198 120 136 245.5 Q74 371 74 530 Q74 693 136 820.5 Q198 948 313 1020 Q428 1092 582 1092 Q731 1092 841.5 1025 Q952 958 1010.5 841.5 Q1069 725 1069 578 Q1069 511 1063 461 L309 461 Q319 379 355 315 Q391 251 452.5 214.5 Q514 178 596 178 Q687 178 749.5 220 Q812 262 834 334 L1063 334 Q1025 163 900.5 70 Q776 -23 594 -23 Z M309 639 L840 639 Q828 757 763.5 824 Q699 891 582 891 Q465 891 395 824 Q325 757 309 639 Z M686 1458 L686 1229 L463 1229 L463 1458 L686 1458 Z " />
<glyph glyph-name="eogonek" unicode="&#x119;" horiz-adv-x="1143" d="M885 61 Q800 0 763.5 -47 Q727 -94 727 -135 Q727 -165 749 -182 Q771 -199 825 -199 L922 -199 L922 -360 L743 -360 Q661 -360 608 -336 Q555 -312 530.5 -272.5 Q506 -233 506 -186 Q506 -89 594 -25 L594 -23 Q433 -23 315.5 48.5 Q198 120 136 245.5 Q74 371 74 530 Q74 693 136 820.5 Q198 948 313 1020 Q428 1092 582 1092 Q731 1092 841.5 1025 Q952 958 1010.5 841.5 Q1069 725 1069 578 Q1069 511 1063 461 L309 461 Q319 379 355 315 Q391 251 452.5 214.5 Q514 178 596 178 Q687 178 749.5 220 Q812 262 834 334 L1063 334 Q1024 162 885 61 Z M309 639 L840 639 Q828 757 763.5 824 Q699 891 582 891 Q465 891 395 824 Q325 757 309 639 Z " />
<glyph glyph-name="gcircumflex" unicode="&#x11d;" horiz-adv-x="1239" d="M586 -188 Q717 -188 790.5 -124.5 Q864 -61 864 72 L864 178 L860 178 Q802 111 722 74 Q642 37 541 37 Q401 37 295 104 Q189 171 131.5 289.5 Q74 408 74 557 Q74 706 132.5 828 Q191 950 299 1021 Q407 1092 549 1092 Q647 1092 726 1054.5 Q805 1017 864 948 L868 948 L868 1069 L1096 1069 L1096 96 Q1096 -60 1033 -167.5 Q970 -275 854.5 -329 Q739 -383 582 -383 Q373 -383 243 -287 Q113 -191 90 -12 L330 -12 Q349 -100 414.5 -144 Q480 -188 586 -188 Z M868 563 Q868 657 835.5 730.5 Q803 804 741 845.5 Q679 887 592 887 Q504 887 441 844 Q378 801 345.5 727 Q313 653 313 561 Q313 468 344.5 393.5 Q376 319 438.5 276 Q501 233 590 233 Q678 233 740.5 276 Q803 319 835.5 394 Q868 469 868 563 Z M691 1503 L922 1184 L724 1184 L590 1374 L457 1184 L263 1184 L494 1503 L691 1503 Z " />
<glyph glyph-name="gbreve" unicode="&#x11f;" horiz-adv-x="1239" d="M586 -188 Q717 -188 790.5 -124.5 Q864 -61 864 72 L864 178 L860 178 Q802 111 722 74 Q642 37 541 37 Q401 37 295 104 Q189 171 131.5 289.5 Q74 408 74 557 Q74 706 132.5 828 Q191 950 299 1021 Q407 1092 549 1092 Q647 1092 726 1054.5 Q805 1017 864 948 L868 948 L868 1069 L1096 1069 L1096 96 Q1096 -60 1033 -167.5 Q970 -275 854.5 -329 Q739 -383 582 -383 Q373 -383 243 -287 Q113 -191 90 -12 L330 -12 Q349 -100 414.5 -144 Q480 -188 586 -188 Z M868 563 Q868 657 835.5 730.5 Q803 804 741 845.5 Q679 887 592 887 Q504 887 441 844 Q378 801 345.5 727 Q313 653 313 561 Q313 468 344.5 393.5 Q376 319 438.5 276 Q501 233 590 233 Q678 233 740.5 276 Q803 319 835.5 394 Q868 469 868 563 Z M592 1188 Q446 1188 367 1270 Q288 1352 283 1493 L429 1493 Q432 1412 472.5 1364.5 Q513 1317 592 1317 Q673 1317 713 1364 Q753 1411 758 1493 L904 1493 Q899 1353 819 1270.5 Q739 1188 592 1188 Z " />
<glyph glyph-name="gdotaccent" unicode="&#x121;" horiz-adv-x="1239" d="M586 -188 Q717 -188 790.5 -124.5 Q864 -61 864 72 L864 178 L860 178 Q802 111 722 74 Q642 37 541 37 Q401 37 295 104 Q189 171 131.5 289.5 Q74 408 74 557 Q74 706 132.5 828 Q191 950 299 1021 Q407 1092 549 1092 Q647 1092 726 1054.5 Q805 1017 864 948 L868 948 L868 1069 L1096 1069 L1096 96 Q1096 -60 1033 -167.5 Q970 -275 854.5 -329 Q739 -383 582 -383 Q373 -383 243 -287 Q113 -191 90 -12 L330 -12 Q349 -100 414.5 -144 Q480 -188 586 -188 Z M868 563 Q868 657 835.5 730.5 Q803 804 741 845.5 Q679 887 592 887 Q504 887 441 844 Q378 801 345.5 727 Q313 653 313 561 Q313 468 344.5 393.5 Q376 319 438.5 276 Q501 233 590 233 Q678 233 740.5 276 Q803 319 835.5 394 Q868 469 868 563 Z M703 1458 L703 1229 L480 1229 L480 1458 L703 1458 Z " />
<glyph glyph-name="gcommaaccent" unicode="&#x123;" horiz-adv-x="1239" d="M586 -188 Q717 -188 790.5 -124.5 Q864 -61 864 72 L864 178 L860 178 Q802 111 722 74 Q642 37 541 37 Q401 37 295 104 Q189 171 131.5 289.5 Q74 408 74 557 Q74 706 132.5 828 Q191 950 299 1021 Q407 1092 549 1092 Q647 1092 726 1054.5 Q805 1017 864 948 L868 948 L868 1069 L1096 1069 L1096 96 Q1096 -60 1033 -167.5 Q970 -275 854.5 -329 Q739 -383 582 -383 Q373 -383 243 -287 Q113 -191 90 -12 L330 -12 Q349 -100 414.5 -144 Q480 -188 586 -188 Z M868 563 Q868 657 835.5 730.5 Q803 804 741 845.5 Q679 887 592 887 Q504 887 441 844 Q378 801 345.5 727 Q313 653 313 561 Q313 468 344.5 393.5 Q376 319 438.5 276 Q501 233 590 233 Q678 233 740.5 276 Q803 319 835.5 394 Q868 469 868 563 Z M800 1501 L696 1153 L473 1153 L624 1501 L800 1501 Z " />
<glyph glyph-name="hcircumflex" unicode="&#x125;" horiz-adv-x="1217" d="M143 1511 L377 1511 L377 946 L381 946 Q435 1014 516 1053 Q597 1092 696 1092 Q810 1092 896.5 1042.5 Q983 993 1030 906 Q1077 819 1077 709 L1077 0 L844 0 L844 664 Q844 762 790 822.5 Q736 883 633 883 Q558 883 499.5 850.5 Q441 818 409 758.5 Q377 699 377 621 L377 0 L143 0 L143 1511 Z M359 1909 L590 1590 L392 1590 L258 1780 L125 1590 L-69 1590 L162 1909 L359 1909 Z " />
<glyph glyph-name="hbar" unicode="&#x127;" horiz-adv-x="1217" d="M1077 709 L1077 0 L844 0 L844 664 Q844 762 790 822.5 Q736 883 633 883 Q558 883 499.5 850.5 Q441 818 409 758.5 Q377 699 377 621 L377 0 L143 0 L143 1202 L6 1202 L6 1389 L143 1389 L143 1511 L377 1511 L377 1389 L709 1389 L709 1202 L377 1202 L377 946 L381 946 Q435 1014 516 1053 Q597 1092 696 1092 Q810 1092 896.5 1042.5 Q983 993 1030 906 Q1077 819 1077 709 Z " />
<glyph glyph-name="igrave" unicode="&#xec;" horiz-adv-x="575" d="M432 0 L199 0 L199 864 L31 864 L31 1069 L432 1069 L432 0 Z M266 1503 L447 1184 L254 1184 L29 1503 L266 1503 Z " />
<glyph glyph-name="iacute" unicode="&#xed;" horiz-adv-x="575" d="M432 0 L199 0 L199 864 L31 864 L31 1069 L432 1069 L432 0 Z M176 1184 L357 1503 L590 1503 L365 1184 L176 1184 Z " />
<glyph glyph-name="icircumflex" unicode="&#xee;" horiz-adv-x="575" d="M432 0 L199 0 L199 864 L31 864 L31 1069 L432 1069 L432 0 Z M410 1503 L641 1184 L443 1184 L309 1374 L176 1184 L-18 1184 L213 1503 L410 1503 Z " />
<glyph glyph-name="itilde" unicode="&#x129;" horiz-adv-x="575" d="M432 0 L199 0 L199 864 L31 864 L31 1069 L432 1069 L432 0 Z M148 1479 Q196 1479 239 1463 Q282 1447 338 1417 Q386 1392 414 1381 Q442 1370 471 1370 Q510 1370 532 1393.5 Q554 1417 555 1473 L674 1473 Q667 1343 612.5 1277 Q558 1211 475 1211 Q426 1211 384 1226.5 Q342 1242 284 1272 Q241 1295 211 1307 Q181 1319 152 1319 Q71 1319 68 1217 L-51 1217 Q-45 1345 10 1412 Q65 1479 148 1479 Z " />
<glyph glyph-name="idieresis" unicode="&#xef;" horiz-adv-x="575" d="M432 0 L199 0 L199 864 L31 864 L31 1069 L432 1069 L432 0 Z M215 1458 L215 1229 L-4 1229 L-4 1458 L215 1458 Z M625 1458 L625 1229 L406 1229 L406 1458 L625 1458 Z " />
<glyph glyph-name="imacron" unicode="&#x12b;" horiz-adv-x="575" d="M432 0 L199 0 L199 864 L31 864 L31 1069 L432 1069 L432 0 Z M597 1424 L597 1266 L16 1266 L16 1424 L597 1424 Z " />
<glyph glyph-name="ibreve" unicode="&#x12d;" horiz-adv-x="575" d="M432 0 L199 0 L199 864 L31 864 L31 1069 L432 1069 L432 0 Z M311 1188 Q165 1188 86 1270 Q7 1352 2 1493 L148 1493 Q151 1412 191.5 1364.5 Q232 1317 311 1317 Q392 1317 432 1364 Q472 1411 477 1493 L623 1493 Q618 1353 538 1270.5 Q458 1188 311 1188 Z " />
<glyph glyph-name="iogonek" unicode="&#x12f;" horiz-adv-x="575" d="M432 1276 L180 1276 L180 1511 L432 1511 L432 1276 Z M479 -199 L479 -360 L301 -360 Q219 -360 165 -335.5 Q111 -311 86 -272 Q61 -233 61 -186 Q61 -129 95.5 -77.5 Q130 -26 199 18 L199 864 L31 864 L31 1069 L432 1069 L432 0 Q354 -38 318.5 -74 Q283 -110 283 -145 Q283 -199 383 -199 L479 -199 Z " />
<glyph glyph-name="dotlessi" unicode="&#x131;" horiz-adv-x="575" d="M432 0 L199 0 L199 864 L31 864 L31 1069 L432 1069 L432 0 Z " />
<glyph glyph-name="ij" unicode="&#x133;" horiz-adv-x="1150" d="M432 1511 L432 1276 L180 1276 L180 1511 L432 1511 Z M432 0 L199 0 L199 864 L31 864 L31 1069 L432 1069 L432 0 Z M1007 1511 L1007 1276 L755 1276 L755 1511 L1007 1511 Z M1007 61 Q1007 -13 995 -66 Q983 -119 953.5 -166.5 Q924 -214 870 -268 L753 -385 L600 -231 L706 -125 Q746 -85 760 -53 Q774 -21 774 39 L774 864 L606 864 L606 1069 L1007 1069 L1007 61 Z " />
<glyph glyph-name="jcircumflex" unicode="&#x135;" horiz-adv-x="575" d="M432 61 Q432 -13 420 -66 Q408 -119 378.5 -166.5 Q349 -214 295 -268 L178 -385 L25 -229 L131 -125 Q171 -85 185 -53 Q199 -21 199 39 L199 864 L31 864 L31 1069 L432 1069 L432 61 Z M414 1503 L645 1184 L447 1184 L313 1374 L180 1184 L-14 1184 L217 1503 L414 1503 Z " />
<glyph glyph-name="uni0237" unicode="&#x237;" horiz-adv-x="575" d="M432 61 Q432 -13 420 -66 Q408 -119 378.5 -166.5 Q349 -214 295 -268 L178 -385 L25 -229 L131 -125 Q171 -85 185 -53 Q199 -21 199 39 L199 864 L31 864 L31 1069 L432 1069 L432 61 Z " />
<glyph glyph-name="kcommaaccent" unicode="&#x137;" horiz-adv-x="1106" d="M705 645 L1085 0 L803 0 L524 477 L377 332 L377 0 L143 0 L143 1511 L377 1511 L377 594 L379 594 L809 1069 L1102 1069 L705 645 Z M393 -393 L500 -74 L723 -74 L570 -393 L393 -393 Z " />
<glyph glyph-name="kgreenlandic" unicode="&#x138;" horiz-adv-x="1106" d="M705 645 L1085 0 L803 0 L524 477 L377 332 L377 0 L143 0 L143 1069 L377 1069 L377 594 L379 594 L809 1069 L1102 1069 L705 645 Z " />
<glyph glyph-name="lacute" unicode="&#x13a;" horiz-adv-x="586" d="M418 0 Q276 0 209.5 73.5 Q143 147 143 279 L143 1511 L377 1511 L377 319 Q377 259 404.5 228 Q432 197 496 197 L553 197 L553 0 L418 0 Z M125 1590 L306 1909 L539 1909 L314 1590 L125 1590 Z " />
<glyph glyph-name="lcaron" unicode="&#x13e;" horiz-adv-x="752" d="M418 0 Q276 0 209.5 73.5 Q143 147 143 279 L143 1511 L377 1511 L377 319 Q377 259 404.5 228 Q432 197 496 197 L553 197 L553 0 L418 0 Z M486 1083 L582 1511 L803 1511 L664 1083 L486 1083 Z " />
<glyph glyph-name="lcommaaccent" unicode="&#x13c;" horiz-adv-x="586" d="M418 0 Q276 0 209.5 73.5 Q143 147 143 279 L143 1511 L377 1511 L377 319 Q377 259 404.5 228 Q432 197 496 197 L553 197 L553 0 L418 0 Z M145 -393 L252 -74 L475 -74 L322 -393 L145 -393 Z " />
<glyph glyph-name="lslash" unicode="&#x142;" horiz-adv-x="586" d="M553 197 L553 0 L418 0 Q276 0 209.5 73.5 Q143 147 143 279 L143 547 L0 457 L0 686 L143 776 L143 1511 L377 1511 L377 922 L520 1012 L520 784 L377 694 L377 319 Q377 259 404.5 228 Q432 197 496 197 L553 197 Z " />
<glyph glyph-name="ldot" unicode="&#x140;" horiz-adv-x="870" d="M418 0 Q276 0 209.5 73.5 Q143 147 143 279 L143 1511 L377 1511 L377 319 Q377 259 404.5 228 Q432 197 496 197 L553 197 L553 0 L418 0 Z M813 878 L813 649 L590 649 L590 878 L813 878 Z " />
<glyph glyph-name="nacute" unicode="&#x144;" horiz-adv-x="1217" d="M143 1069 L369 1069 L369 942 L373 942 Q426 1013 508 1052.5 Q590 1092 692 1092 Q808 1092 895 1042.5 Q982 993 1029.5 906 Q1077 819 1077 709 L1077 0 L844 0 L844 664 Q844 762 790 822.5 Q736 883 633 883 Q558 883 499.5 850.5 Q441 818 409 758.5 Q377 699 377 621 L377 0 L143 0 L143 1069 Z M475 1184 L656 1503 L889 1503 L664 1184 L475 1184 Z " />
<glyph glyph-name="ncaron" unicode="&#x148;" horiz-adv-x="1217" d="M143 1069 L369 1069 L369 942 L373 942 Q426 1013 508 1052.5 Q590 1092 692 1092 Q808 1092 895 1042.5 Q982 993 1029.5 906 Q1077 819 1077 709 L1077 0 L844 0 L844 664 Q844 762 790 822.5 Q736 883 633 883 Q558 883 499.5 850.5 Q441 818 409 758.5 Q377 699 377 621 L377 0 L143 0 L143 1069 Z M512 1184 L281 1503 L479 1503 L613 1313 L746 1503 L940 1503 L709 1184 L512 1184 Z " />
<glyph glyph-name="ntilde" unicode="&#xf1;" horiz-adv-x="1217" d="M143 1069 L369 1069 L369 942 L373 942 Q426 1013 508 1052.5 Q590 1092 692 1092 Q808 1092 895 1042.5 Q982 993 1029.5 906 Q1077 819 1077 709 L1077 0 L844 0 L844 664 Q844 762 790 822.5 Q736 883 633 883 Q558 883 499.5 850.5 Q441 818 409 758.5 Q377 699 377 621 L377 0 L143 0 L143 1069 Z M447 1479 Q495 1479 538 1463 Q581 1447 637 1417 Q685 1392 713 1381 Q741 1370 770 1370 Q809 1370 831 1393.5 Q853 1417 854 1473 L973 1473 Q966 1343 911.5 1277 Q857 1211 774 1211 Q725 1211 683 1226.5 Q641 1242 583 1272 Q540 1295 510 1307 Q480 1319 451 1319 Q370 1319 367 1217 L248 1217 Q254 1345 309 1412 Q364 1479 447 1479 Z " />
<glyph glyph-name="ncommaaccent" unicode="&#x146;" horiz-adv-x="1217" d="M143 1069 L369 1069 L369 942 L373 942 Q426 1013 508 1052.5 Q590 1092 692 1092 Q808 1092 895 1042.5 Q982 993 1029.5 906 Q1077 819 1077 709 L1077 0 L844 0 L844 664 Q844 762 790 822.5 Q736 883 633 883 Q558 883 499.5 850.5 Q441 818 409 758.5 Q377 699 377 621 L377 0 L143 0 L143 1069 Z M425 -393 L532 -74 L755 -74 L602 -393 L425 -393 Z " />
<glyph glyph-name="napostrophe" unicode="&#x149;" horiz-adv-x="1217" d="M143 1069 L369 1069 L369 942 L373 942 Q426 1013 508 1052.5 Q590 1092 692 1092 Q808 1092 895 1042.5 Q982 993 1029.5 906 Q1077 819 1077 709 L1077 0 L844 0 L844 664 Q844 762 790 822.5 Q736 883 633 883 Q558 883 499.5 850.5 Q441 818 409 758.5 Q377 699 377 621 L377 0 L143 0 L143 1069 Z M147 1202 L254 1521 L477 1521 L324 1202 L147 1202 Z " />
<glyph glyph-name="ograve" unicode="&#xf2;" horiz-adv-x="1214" d="M74 535 Q74 691 138.5 817.5 Q203 944 324 1018 Q445 1092 608 1092 Q770 1092 891 1018 Q1012 944 1076.5 817 Q1141 690 1141 535 Q1141 379 1076.5 252 Q1012 125 891 51 Q770 -23 608 -23 Q445 -23 324 51 Q203 125 138.5 252 Q74 379 74 535 Z M901 535 Q901 634 867 713.5 Q833 793 767 839 Q701 885 608 885 Q516 885 449 839 Q382 793 347.5 713 Q313 633 313 535 Q313 436 347.5 356.5 Q382 277 449 230.5 Q516 184 608 184 Q701 184 767 230 Q833 276 867 356 Q901 436 901 535 Z M563 1503 L744 1184 L551 1184 L326 1503 L563 1503 Z " />
<glyph glyph-name="oacute" unicode="&#xf3;" horiz-adv-x="1214" d="M74 535 Q74 691 138.5 817.5 Q203 944 324 1018 Q445 1092 608 1092 Q770 1092 891 1018 Q1012 944 1076.5 817 Q1141 690 1141 535 Q1141 379 1076.5 252 Q1012 125 891 51 Q770 -23 608 -23 Q445 -23 324 51 Q203 125 138.5 252 Q74 379 74 535 Z M901 535 Q901 634 867 713.5 Q833 793 767 839 Q701 885 608 885 Q516 885 449 839 Q382 793 347.5 713 Q313 633 313 535 Q313 436 347.5 356.5 Q382 277 449 230.5 Q516 184 608 184 Q701 184 767 230 Q833 276 867 356 Q901 436 901 535 Z M473 1184 L654 1503 L887 1503 L662 1184 L473 1184 Z " />
<glyph glyph-name="ocircumflex" unicode="&#xf4;" horiz-adv-x="1214" d="M74 535 Q74 691 138.5 817.5 Q203 944 324 1018 Q445 1092 608 1092 Q770 1092 891 1018 Q1012 944 1076.5 817 Q1141 690 1141 535 Q1141 379 1076.5 252 Q1012 125 891 51 Q770 -23 608 -23 Q445 -23 324 51 Q203 125 138.5 252 Q74 379 74 535 Z M901 535 Q901 634 867 713.5 Q833 793 767 839 Q701 885 608 885 Q516 885 449 839 Q382 793 347.5 713 Q313 633 313 535 Q313 436 347.5 356.5 Q382 277 449 230.5 Q516 184 608 184 Q701 184 767 230 Q833 276 867 356 Q901 436 901 535 Z M707 1503 L938 1184 L740 1184 L606 1374 L473 1184 L279 1184 L510 1503 L707 1503 Z " />
<glyph glyph-name="otilde" unicode="&#xf5;" horiz-adv-x="1214" d="M74 535 Q74 691 138.5 817.5 Q203 944 324 1018 Q445 1092 608 1092 Q770 1092 891 1018 Q1012 944 1076.5 817 Q1141 690 1141 535 Q1141 379 1076.5 252 Q1012 125 891 51 Q770 -23 608 -23 Q445 -23 324 51 Q203 125 138.5 252 Q74 379 74 535 Z M901 535 Q901 634 867 713.5 Q833 793 767 839 Q701 885 608 885 Q516 885 449 839 Q382 793 347.5 713 Q313 633 313 535 Q313 436 347.5 356.5 Q382 277 449 230.5 Q516 184 608 184 Q701 184 767 230 Q833 276 867 356 Q901 436 901 535 Z M445 1479 Q493 1479 536 1463 Q579 1447 635 1417 Q683 1392 711 1381 Q739 1370 768 1370 Q807 1370 829 1393.5 Q851 1417 852 1473 L971 1473 Q964 1343 909.5 1277 Q855 1211 772 1211 Q723 1211 681 1226.5 Q639 1242 581 1272 Q538 1295 508 1307 Q478 1319 449 1319 Q368 1319 365 1217 L246 1217 Q252 1345 307 1412 Q362 1479 445 1479 Z " />
<glyph glyph-name="odieresis" unicode="&#xf6;" horiz-adv-x="1214" d="M74 535 Q74 691 138.5 817.5 Q203 944 324 1018 Q445 1092 608 1092 Q770 1092 891 1018 Q1012 944 1076.5 817 Q1141 690 1141 535 Q1141 379 1076.5 252 Q1012 125 891 51 Q770 -23 608 -23 Q445 -23 324 51 Q203 125 138.5 252 Q74 379 74 535 Z M901 535 Q901 634 867 713.5 Q833 793 767 839 Q701 885 608 885 Q516 885 449 839 Q382 793 347.5 713 Q313 633 313 535 Q313 436 347.5 356.5 Q382 277 449 230.5 Q516 184 608 184 Q701 184 767 230 Q833 276 867 356 Q901 436 901 535 Z M512 1458 L512 1229 L293 1229 L293 1458 L512 1458 Z M922 1458 L922 1229 L703 1229 L703 1458 L922 1458 Z " />
<glyph glyph-name="omacron" unicode="&#x14d;" horiz-adv-x="1214" d="M74 535 Q74 691 138.5 817.5 Q203 944 324 1018 Q445 1092 608 1092 Q770 1092 891 1018 Q1012 944 1076.5 817 Q1141 690 1141 535 Q1141 379 1076.5 252 Q1012 125 891 51 Q770 -23 608 -23 Q445 -23 324 51 Q203 125 138.5 252 Q74 379 74 535 Z M901 535 Q901 634 867 713.5 Q833 793 767 839 Q701 885 608 885 Q516 885 449 839 Q382 793 347.5 713 Q313 633 313 535 Q313 436 347.5 356.5 Q382 277 449 230.5 Q516 184 608 184 Q701 184 767 230 Q833 276 867 356 Q901 436 901 535 Z M894 1424 L894 1266 L313 1266 L313 1424 L894 1424 Z " />
<glyph glyph-name="obreve" unicode="&#x14f;" horiz-adv-x="1214" d="M74 535 Q74 691 138.5 817.5 Q203 944 324 1018 Q445 1092 608 1092 Q770 1092 891 1018 Q1012 944 1076.5 817 Q1141 690 1141 535 Q1141 379 1076.5 252 Q1012 125 891 51 Q770 -23 608 -23 Q445 -23 324 51 Q203 125 138.5 252 Q74 379 74 535 Z M901 535 Q901 634 867 713.5 Q833 793 767 839 Q701 885 608 885 Q516 885 449 839 Q382 793 347.5 713 Q313 633 313 535 Q313 436 347.5 356.5 Q382 277 449 230.5 Q516 184 608 184 Q701 184 767 230 Q833 276 867 356 Q901 436 901 535 Z M608 1188 Q462 1188 383 1270 Q304 1352 299 1493 L445 1493 Q448 1412 488.5 1364.5 Q529 1317 608 1317 Q689 1317 729 1364 Q769 1411 774 1493 L920 1493 Q915 1353 835 1270.5 Q755 1188 608 1188 Z " />
<glyph glyph-name="ohungarumlaut" unicode="&#x151;" horiz-adv-x="1214" d="M74 535 Q74 691 138.5 817.5 Q203 944 324 1018 Q445 1092 608 1092 Q770 1092 891 1018 Q1012 944 1076.5 817 Q1141 690 1141 535 Q1141 379 1076.5 252 Q1012 125 891 51 Q770 -23 608 -23 Q445 -23 324 51 Q203 125 138.5 252 Q74 379 74 535 Z M901 535 Q901 634 867 713.5 Q833 793 767 839 Q701 885 608 885 Q516 885 449 839 Q382 793 347.5 713 Q313 633 313 535 Q313 436 347.5 356.5 Q382 277 449 230.5 Q516 184 608 184 Q701 184 767 230 Q833 276 867 356 Q901 436 901 535 Z M332 1184 L510 1503 L715 1503 L498 1184 L332 1184 Z M649 1184 L838 1503 L1041 1503 L815 1184 L649 1184 Z " />
<glyph glyph-name="oslash" unicode="&#xf8;" horiz-adv-x="1214" d="M1141 535 Q1141 379 1076.5 252 Q1012 125 891 51 Q770 -23 608 -23 Q447 -23 326 51 L207 -98 L86 0 L205 152 Q142 228 108 325.5 Q74 423 74 535 Q74 691 138.5 817.5 Q203 944 324 1018 Q445 1092 608 1092 Q765 1092 891 1018 L1008 1167 L1128 1071 L1008 918 Q1073 844 1107 745.5 Q1141 647 1141 535 Z M354 340 L754 846 Q687 885 608 885 Q516 885 449 839 Q382 793 347.5 713 Q313 633 313 535 Q313 427 354 340 Z M901 535 Q901 645 860 729 L461 223 Q528 184 608 184 Q701 184 767 230 Q833 276 867 356 Q901 436 901 535 Z " />
<glyph glyph-name="oslashacute" unicode="&#x1ff;" horiz-adv-x="1214" d="M1141 535 Q1141 379 1076.5 252 Q1012 125 891 51 Q770 -23 608 -23 Q447 -23 326 51 L207 -98 L86 0 L205 152 Q142 228 108 325.5 Q74 423 74 535 Q74 691 138.5 817.5 Q203 944 324 1018 Q445 1092 608 1092 Q765 1092 891 1018 L1008 1167 L1128 1071 L1008 918 Q1073 844 1107 745.5 Q1141 647 1141 535 Z M354 340 L754 846 Q687 885 608 885 Q516 885 449 839 Q382 793 347.5 713 Q313 633 313 535 Q313 427 354 340 Z M901 535 Q901 645 860 729 L461 223 Q528 184 608 184 Q701 184 767 230 Q833 276 867 356 Q901 436 901 535 Z M473 1184 L654 1503 L887 1503 L662 1184 L473 1184 Z " />
<glyph glyph-name="oe" unicode="&#x153;" horiz-adv-x="1927" d="M1389 -23 Q1259 -23 1158.5 29 Q1058 81 993 174 L991 174 Q924 81 823 29 Q722 -23 594 -23 Q436 -23 318 51 Q200 125 137 252 Q74 379 74 535 Q74 690 137 817 Q200 944 318 1018 Q436 1092 594 1092 Q722 1092 823 1040 Q924 988 991 897 L995 897 Q1056 990 1153 1041 Q1250 1092 1374 1092 Q1520 1092 1628.5 1025 Q1737 958 1795 841.5 Q1853 725 1853 578 Q1853 505 1845 461 L1112 461 Q1120 379 1154.5 315 Q1189 251 1248 214.5 Q1307 178 1386 178 Q1474 178 1535 220 Q1596 262 1618 334 L1845 334 Q1820 221 1756.5 140.5 Q1693 60 1599 18.5 Q1505 -23 1389 -23 Z M1112 639 L1624 639 Q1613 757 1548.5 824 Q1484 891 1368 891 Q1254 891 1189 824.5 Q1124 758 1112 639 Z M881 535 Q881 633 847.5 712.5 Q814 792 750 838.5 Q686 885 598 885 Q509 885 444.5 839 Q380 793 346.5 713 Q313 633 313 535 Q313 436 346.5 356.5 Q380 277 444.5 230.5 Q509 184 598 184 Q686 184 750 230.5 Q814 277 847.5 356.5 Q881 436 881 535 Z " />
<glyph glyph-name="racute" unicode="&#x155;" horiz-adv-x="784" d="M369 1069 L369 913 L373 913 Q421 997 490 1044.5 Q559 1092 647 1092 Q695 1092 750 1073 L750 842 Q696 854 645 854 Q562 854 501.5 819 Q441 784 409 725 Q377 666 377 596 L377 0 L143 0 L143 1069 L369 1069 Z M291 1184 L472 1503 L705 1503 L480 1184 L291 1184 Z " />
<glyph glyph-name="rcaron" unicode="&#x159;" horiz-adv-x="784" d="M369 1069 L369 913 L373 913 Q421 997 490 1044.5 Q559 1092 647 1092 Q695 1092 750 1073 L750 842 Q696 854 645 854 Q562 854 501.5 819 Q441 784 409 725 Q377 666 377 596 L377 0 L143 0 L143 1069 L369 1069 Z M328 1184 L97 1503 L295 1503 L429 1313 L562 1503 L756 1503 L525 1184 L328 1184 Z " />
<glyph glyph-name="rcommaaccent" unicode="&#x157;" horiz-adv-x="784" d="M369 1069 L369 913 L373 913 Q421 997 490 1044.5 Q559 1092 647 1092 Q695 1092 750 1073 L750 842 Q696 854 645 854 Q562 854 501.5 819 Q441 784 409 725 Q377 666 377 596 L377 0 L143 0 L143 1069 L369 1069 Z M91 -393 L198 -74 L421 -74 L268 -393 L91 -393 Z " />
<glyph glyph-name="sacute" unicode="&#x15b;" horiz-adv-x="991" d="M496 168 Q592 168 647 203.5 Q702 239 702 301 Q702 338 680.5 361.5 Q659 385 605.5 404 Q552 423 446 446 Q333 470 257.5 502 Q182 534 135 595.5 Q88 657 88 756 Q88 854 137.5 930 Q187 1006 279.5 1049 Q372 1092 498 1092 Q621 1092 712.5 1052 Q804 1012 853.5 938 Q903 864 905 766 L680 766 Q680 829 633 864 Q586 899 498 899 Q412 899 364.5 867 Q317 835 317 780 Q317 741 343.5 717.5 Q370 694 420.5 678 Q471 662 571 641 Q694 614 772 578 Q850 542 892 481.5 Q934 421 934 326 Q934 222 880 143 Q826 64 726 20.5 Q626 -23 494 -23 Q357 -23 258 20.5 Q159 64 106.5 143.5 Q54 223 53 330 L276 330 Q276 252 333 210 Q390 168 496 168 Z M365 1184 L546 1503 L779 1503 L554 1184 L365 1184 Z " />
<glyph glyph-name="scircumflex" unicode="&#x15d;" horiz-adv-x="991" d="M496 168 Q592 168 647 203.5 Q702 239 702 301 Q702 338 680.5 361.5 Q659 385 605.5 404 Q552 423 446 446 Q333 470 257.5 502 Q182 534 135 595.5 Q88 657 88 756 Q88 854 137.5 930 Q187 1006 279.5 1049 Q372 1092 498 1092 Q621 1092 712.5 1052 Q804 1012 853.5 938 Q903 864 905 766 L680 766 Q680 829 633 864 Q586 899 498 899 Q412 899 364.5 867 Q317 835 317 780 Q317 741 343.5 717.5 Q370 694 420.5 678 Q471 662 571 641 Q694 614 772 578 Q850 542 892 481.5 Q934 421 934 326 Q934 222 880 143 Q826 64 726 20.5 Q626 -23 494 -23 Q357 -23 258 20.5 Q159 64 106.5 143.5 Q54 223 53 330 L276 330 Q276 252 333 210 Q390 168 496 168 Z M599 1503 L830 1184 L632 1184 L498 1374 L365 1184 L171 1184 L402 1503 L599 1503 Z " />
<glyph glyph-name="scaron" unicode="&#x161;" horiz-adv-x="991" d="M496 168 Q592 168 647 203.5 Q702 239 702 301 Q702 338 680.5 361.5 Q659 385 605.5 404 Q552 423 446 446 Q333 470 257.5 502 Q182 534 135 595.5 Q88 657 88 756 Q88 854 137.5 930 Q187 1006 279.5 1049 Q372 1092 498 1092 Q621 1092 712.5 1052 Q804 1012 853.5 938 Q903 864 905 766 L680 766 Q680 829 633 864 Q586 899 498 899 Q412 899 364.5 867 Q317 835 317 780 Q317 741 343.5 717.5 Q370 694 420.5 678 Q471 662 571 641 Q694 614 772 578 Q850 542 892 481.5 Q934 421 934 326 Q934 222 880 143 Q826 64 726 20.5 Q626 -23 494 -23 Q357 -23 258 20.5 Q159 64 106.5 143.5 Q54 223 53 330 L276 330 Q276 252 333 210 Q390 168 496 168 Z M402 1184 L171 1503 L369 1503 L503 1313 L636 1503 L830 1503 L599 1184 L402 1184 Z " />
<glyph glyph-name="scedilla" unicode="&#x15f;" horiz-adv-x="991" d="M553 -20 L543 -55 Q627 -65 673 -102 Q719 -139 719 -199 Q719 -272 658 -316 Q597 -360 479 -360 L360 -360 L360 -244 L457 -244 Q493 -244 510.5 -231 Q528 -218 528 -195 Q528 -170 505.5 -155.5 Q483 -141 436 -141 L399 -141 L436 -20 Q316 -11 230 34 Q144 79 99 155 Q54 231 53 330 L276 330 Q276 252 333 210 Q390 168 496 168 Q592 168 647 203.5 Q702 239 702 301 Q702 338 680.5 361.5 Q659 385 605.5 404 Q552 423 446 446 Q333 470 257.5 502 Q182 534 135 595.5 Q88 657 88 756 Q88 854 137.5 930 Q187 1006 279.5 1049 Q372 1092 498 1092 Q621 1092 712.5 1052 Q804 1012 853.5 938 Q903 864 905 766 L680 766 Q680 829 633 864 Q586 899 498 899 Q412 899 364.5 867 Q317 835 317 780 Q317 741 343.5 717.5 Q370 694 420.5 678 Q471 662 571 641 Q694 614 772 578 Q850 542 892 481.5 Q934 421 934 326 Q934 230 887.5 155.5 Q841 81 755 35.5 Q669 -10 553 -20 Z " />
<glyph glyph-name="scommaaccent" unicode="&#x219;" horiz-adv-x="991" d="M496 168 Q592 168 647 203.5 Q702 239 702 301 Q702 338 680.5 361.5 Q659 385 605.5 404 Q552 423 446 446 Q333 470 257.5 502 Q182 534 135 595.5 Q88 657 88 756 Q88 854 137.5 930 Q187 1006 279.5 1049 Q372 1092 498 1092 Q621 1092 712.5 1052 Q804 1012 853.5 938 Q903 864 905 766 L680 766 Q680 829 633 864 Q586 899 498 899 Q412 899 364.5 867 Q317 835 317 780 Q317 741 343.5 717.5 Q370 694 420.5 678 Q471 662 571 641 Q694 614 772 578 Q850 542 892 481.5 Q934 421 934 326 Q934 222 880 143 Q826 64 726 20.5 Q626 -23 494 -23 Q357 -23 258 20.5 Q159 64 106.5 143.5 Q54 223 53 330 L276 330 Q276 252 333 210 Q390 168 496 168 Z M315 -393 L422 -74 L645 -74 L492 -393 L315 -393 Z " />
<glyph glyph-name="germandbls" unicode="&#xdf;" horiz-adv-x="1284" d="M143 1133 Q143 1255 201.5 1345.5 Q260 1436 369.5 1485 Q479 1534 629 1534 Q772 1534 882 1486 Q992 1438 1052 1352 Q1112 1266 1112 1155 Q1112 1054 1060 975.5 Q1008 897 915 852 L915 848 Q1056 803 1133 700 Q1210 597 1210 455 Q1210 320 1145 217 Q1080 114 963.5 57 Q847 0 698 0 L506 0 L506 197 L664 197 Q761 197 830 229 Q899 261 935 319 Q971 377 971 455 Q971 533 935.5 591 Q900 649 831 681 Q762 713 666 713 L547 713 L547 918 L629 918 Q702 918 758 943.5 Q814 969 844 1015.5 Q874 1062 874 1122 Q874 1216 807.5 1271.5 Q741 1327 625 1327 Q505 1327 441 1272.5 Q377 1218 377 1120 L377 0 L143 0 L143 1133 Z " />
<glyph glyph-name="tcaron" unicode="&#x165;" horiz-adv-x="750" d="M215 1069 L215 1313 L449 1395 L449 1069 L698 1069 L698 864 L449 864 L449 338 Q449 263 483.5 230 Q518 197 604 197 L698 197 L698 0 L541 0 Q215 0 215 299 L215 864 L16 864 L16 1069 L215 1069 Z M548 1192 L655 1511 L878 1511 L725 1192 L548 1192 Z " />
<glyph glyph-name="uni021B" unicode="&#x21b;" horiz-adv-x="750" d="M215 1069 L215 1313 L449 1395 L449 1069 L698 1069 L698 864 L449 864 L449 338 Q449 263 483.5 230 Q518 197 604 197 L698 197 L698 0 L541 0 Q215 0 215 299 L215 864 L16 864 L16 1069 L215 1069 Z M255 -393 L362 -74 L585 -74 L432 -393 L255 -393 Z " />
<glyph glyph-name="uni0163" unicode="&#x163;" horiz-adv-x="750" d="M449 864 L449 338 Q449 263 483.5 230 Q518 197 604 197 L698 197 L698 0 L541 0 Q512 0 500 2 L483 -55 Q568 -65 613.5 -102 Q659 -139 659 -199 Q659 -272 598.5 -316 Q538 -360 420 -360 L301 -360 L301 -244 L397 -244 Q433 -244 451 -231 Q469 -218 469 -195 Q469 -170 446.5 -155.5 Q424 -141 377 -141 L340 -141 L389 23 Q301 51 258 121 Q215 191 215 299 L215 864 L16 864 L16 1069 L215 1069 L215 1313 L449 1395 L449 1069 L698 1069 L698 864 L449 864 Z " />
<glyph glyph-name="tbar" unicode="&#x167;" horiz-adv-x="750" d="M449 864 L449 659 L698 659 L698 465 L449 465 L449 338 Q449 263 483.5 230 Q518 197 604 197 L698 197 L698 0 L541 0 Q215 0 215 299 L215 465 L16 465 L16 659 L215 659 L215 864 L16 864 L16 1069 L215 1069 L215 1313 L449 1395 L449 1069 L698 1069 L698 864 L449 864 Z " />
<glyph glyph-name="ugrave" unicode="&#xf9;" horiz-adv-x="1214" d="M1071 1069 L1071 0 L844 0 L844 121 L840 121 Q785 52 703.5 14.5 Q622 -23 522 -23 Q408 -23 321 25.5 Q234 74 186.5 160.5 Q139 247 139 356 L139 1069 L373 1069 L373 401 Q373 306 426.5 245 Q480 184 582 184 Q656 184 714 217 Q772 250 805 310 Q838 370 838 449 L838 1069 L1071 1069 Z M561 1503 L742 1184 L549 1184 L324 1503 L561 1503 Z " />
<glyph glyph-name="uacute" unicode="&#xfa;" horiz-adv-x="1214" d="M1071 1069 L1071 0 L844 0 L844 121 L840 121 Q785 52 703.5 14.5 Q622 -23 522 -23 Q408 -23 321 25.5 Q234 74 186.5 160.5 Q139 247 139 356 L139 1069 L373 1069 L373 401 Q373 306 426.5 245 Q480 184 582 184 Q656 184 714 217 Q772 250 805 310 Q838 370 838 449 L838 1069 L1071 1069 Z M471 1184 L652 1503 L885 1503 L660 1184 L471 1184 Z " />
<glyph glyph-name="ucircumflex" unicode="&#xfb;" horiz-adv-x="1214" d="M1071 1069 L1071 0 L844 0 L844 121 L840 121 Q785 52 703.5 14.5 Q622 -23 522 -23 Q408 -23 321 25.5 Q234 74 186.5 160.5 Q139 247 139 356 L139 1069 L373 1069 L373 401 Q373 306 426.5 245 Q480 184 582 184 Q656 184 714 217 Q772 250 805 310 Q838 370 838 449 L838 1069 L1071 1069 Z M705 1503 L936 1184 L738 1184 L604 1374 L471 1184 L277 1184 L508 1503 L705 1503 Z " />
<glyph glyph-name="utilde" unicode="&#x169;" horiz-adv-x="1214" d="M1071 1069 L1071 0 L844 0 L844 121 L840 121 Q785 52 703.5 14.5 Q622 -23 522 -23 Q408 -23 321 25.5 Q234 74 186.5 160.5 Q139 247 139 356 L139 1069 L373 1069 L373 401 Q373 306 426.5 245 Q480 184 582 184 Q656 184 714 217 Q772 250 805 310 Q838 370 838 449 L838 1069 L1071 1069 Z M443 1479 Q491 1479 534 1463 Q577 1447 633 1417 Q681 1392 709 1381 Q737 1370 766 1370 Q805 1370 827 1393.5 Q849 1417 850 1473 L969 1473 Q962 1343 907.5 1277 Q853 1211 770 1211 Q721 1211 679 1226.5 Q637 1242 579 1272 Q536 1295 506 1307 Q476 1319 447 1319 Q366 1319 363 1217 L244 1217 Q250 1345 305 1412 Q360 1479 443 1479 Z " />
<glyph glyph-name="udieresis" unicode="&#xfc;" horiz-adv-x="1214" d="M1071 1069 L1071 0 L844 0 L844 121 L840 121 Q785 52 703.5 14.5 Q622 -23 522 -23 Q408 -23 321 25.5 Q234 74 186.5 160.5 Q139 247 139 356 L139 1069 L373 1069 L373 401 Q373 306 426.5 245 Q480 184 582 184 Q656 184 714 217 Q772 250 805 310 Q838 370 838 449 L838 1069 L1071 1069 Z M510 1458 L510 1229 L291 1229 L291 1458 L510 1458 Z M920 1458 L920 1229 L701 1229 L701 1458 L920 1458 Z " />
<glyph glyph-name="umacron" unicode="&#x16b;" horiz-adv-x="1214" d="M1071 1069 L1071 0 L844 0 L844 121 L840 121 Q785 52 703.5 14.5 Q622 -23 522 -23 Q408 -23 321 25.5 Q234 74 186.5 160.5 Q139 247 139 356 L139 1069 L373 1069 L373 401 Q373 306 426.5 245 Q480 184 582 184 Q656 184 714 217 Q772 250 805 310 Q838 370 838 449 L838 1069 L1071 1069 Z M892 1424 L892 1266 L311 1266 L311 1424 L892 1424 Z " />
<glyph glyph-name="ubreve" unicode="&#x16d;" horiz-adv-x="1214" d="M1071 1069 L1071 0 L844 0 L844 121 L840 121 Q785 52 703.5 14.5 Q622 -23 522 -23 Q408 -23 321 25.5 Q234 74 186.5 160.5 Q139 247 139 356 L139 1069 L373 1069 L373 401 Q373 306 426.5 245 Q480 184 582 184 Q656 184 714 217 Q772 250 805 310 Q838 370 838 449 L838 1069 L1071 1069 Z M606 1188 Q460 1188 381 1270 Q302 1352 297 1493 L443 1493 Q446 1412 486.5 1364.5 Q527 1317 606 1317 Q687 1317 727 1364 Q767 1411 772 1493 L918 1493 Q913 1353 833 1270.5 Q753 1188 606 1188 Z " />
<glyph glyph-name="uring" unicode="&#x16f;" horiz-adv-x="1214" d="M1071 1069 L1071 0 L844 0 L844 121 L840 121 Q785 52 703.5 14.5 Q622 -23 522 -23 Q408 -23 321 25.5 Q234 74 186.5 160.5 Q139 247 139 356 L139 1069 L373 1069 L373 401 Q373 306 426.5 245 Q480 184 582 184 Q656 184 714 217 Q772 250 805 310 Q838 370 838 449 L838 1069 L1071 1069 Z M365 1389 Q365 1454 395.5 1507.5 Q426 1561 481 1591.5 Q536 1622 606 1622 Q677 1622 732 1591.5 Q787 1561 817.5 1507.5 Q848 1454 848 1389 Q848 1324 817.5 1271 Q787 1218 732 1187.5 Q677 1157 606 1157 Q536 1157 481 1187.5 Q426 1218 395.5 1271 Q365 1324 365 1389 Z M725 1389 Q725 1443 693.5 1478.5 Q662 1514 606 1514 Q551 1514 519.5 1478.5 Q488 1443 488 1389 Q488 1335 519.5 1300.5 Q551 1266 606 1266 Q663 1266 694 1300.5 Q725 1335 725 1389 Z " />
<glyph glyph-name="uhungarumlaut" unicode="&#x171;" horiz-adv-x="1214" d="M1071 1069 L1071 0 L844 0 L844 121 L840 121 Q785 52 703.5 14.5 Q622 -23 522 -23 Q408 -23 321 25.5 Q234 74 186.5 160.5 Q139 247 139 356 L139 1069 L373 1069 L373 401 Q373 306 426.5 245 Q480 184 582 184 Q656 184 714 217 Q772 250 805 310 Q838 370 838 449 L838 1069 L1071 1069 Z M330 1184 L508 1503 L713 1503 L496 1184 L330 1184 Z M647 1184 L836 1503 L1039 1503 L813 1184 L647 1184 Z " />
<glyph glyph-name="uogonek" unicode="&#x173;" horiz-adv-x="1214" d="M915 -360 Q825 -360 766.5 -335.5 Q708 -311 680.5 -271.5 Q653 -232 653 -184 Q653 -61 844 31 L844 121 L840 121 Q785 52 703.5 14.5 Q622 -23 522 -23 Q408 -23 321 25.5 Q234 74 186.5 160.5 Q139 247 139 356 L139 1069 L373 1069 L373 401 Q373 306 426.5 245 Q480 184 582 184 Q656 184 714 217 Q772 250 805 310 Q838 370 838 449 L838 1069 L1071 1069 L1071 0 Q877 -69 877 -143 Q877 -169 900.5 -184 Q924 -199 985 -199 L1071 -199 L1071 -360 L915 -360 Z " />
<glyph glyph-name="wgrave" unicode="&#x1e81;" horiz-adv-x="1583" d="M29 1069 L283 1069 L489 344 L494 344 L719 1069 L874 1069 L1098 346 L1102 346 L1309 1069 L1554 1069 L1202 0 L1004 0 L793 649 L788 649 L575 0 L377 0 L29 1069 Z M750 1503 L931 1184 L738 1184 L513 1503 L750 1503 Z " />
<glyph glyph-name="wacute" unicode="&#x1e83;" horiz-adv-x="1583" d="M29 1069 L283 1069 L489 344 L494 344 L719 1069 L874 1069 L1098 346 L1102 346 L1309 1069 L1554 1069 L1202 0 L1004 0 L793 649 L788 649 L575 0 L377 0 L29 1069 Z M660 1184 L841 1503 L1074 1503 L849 1184 L660 1184 Z " />
<glyph glyph-name="wcircumflex" unicode="&#x175;" horiz-adv-x="1583" d="M29 1069 L283 1069 L489 344 L494 344 L719 1069 L874 1069 L1098 346 L1102 346 L1309 1069 L1554 1069 L1202 0 L1004 0 L793 649 L788 649 L575 0 L377 0 L29 1069 Z M894 1503 L1125 1184 L927 1184 L793 1374 L660 1184 L466 1184 L697 1503 L894 1503 Z " />
<glyph glyph-name="wdieresis" unicode="&#x1e85;" horiz-adv-x="1583" d="M29 1069 L283 1069 L489 344 L494 344 L719 1069 L874 1069 L1098 346 L1102 346 L1309 1069 L1554 1069 L1202 0 L1004 0 L793 649 L788 649 L575 0 L377 0 L29 1069 Z M699 1458 L699 1229 L480 1229 L480 1458 L699 1458 Z M1109 1458 L1109 1229 L890 1229 L890 1458 L1109 1458 Z " />
<glyph glyph-name="ygrave" unicode="&#x1ef3;" horiz-adv-x="1077" d="M1059 1069 L707 150 Q657 20 602.5 -62 Q548 -144 461 -231 L307 -385 L154 -231 L322 -63 Q383 -2 414 45 L18 1069 L276 1069 L543 311 L547 311 L809 1069 L1059 1069 Z M500 1503 L681 1184 L488 1184 L263 1503 L500 1503 Z " />
<glyph glyph-name="yacute" unicode="&#xfd;" horiz-adv-x="1077" d="M1059 1069 L707 150 Q657 20 602.5 -62 Q548 -144 461 -231 L307 -385 L154 -231 L322 -63 Q383 -2 414 45 L18 1069 L276 1069 L543 311 L547 311 L809 1069 L1059 1069 Z M410 1184 L591 1503 L824 1503 L599 1184 L410 1184 Z " />
<glyph glyph-name="ycircumflex" unicode="&#x177;" horiz-adv-x="1077" d="M1059 1069 L707 150 Q657 20 602.5 -62 Q548 -144 461 -231 L307 -385 L154 -231 L322 -63 Q383 -2 414 45 L18 1069 L276 1069 L543 311 L547 311 L809 1069 L1059 1069 Z M644 1503 L875 1184 L677 1184 L543 1374 L410 1184 L216 1184 L447 1503 L644 1503 Z " />
<glyph glyph-name="ydieresis" unicode="&#xff;" horiz-adv-x="1077" d="M1059 1069 L707 150 Q657 20 602.5 -62 Q548 -144 461 -231 L307 -385 L154 -231 L322 -63 Q383 -2 414 45 L18 1069 L276 1069 L543 311 L547 311 L809 1069 L1059 1069 Z M449 1458 L449 1229 L230 1229 L230 1458 L449 1458 Z M859 1458 L859 1229 L640 1229 L640 1458 L859 1458 Z " />
<glyph glyph-name="zacute" unicode="&#x17a;" horiz-adv-x="1020" d="M948 1069 L948 893 L379 205 L965 205 L965 0 L70 0 L70 174 L637 864 L82 864 L82 1069 L948 1069 Z M375 1184 L556 1503 L789 1503 L564 1184 L375 1184 Z " />
<glyph glyph-name="zcaron" unicode="&#x17e;" horiz-adv-x="1020" d="M948 1069 L948 893 L379 205 L965 205 L965 0 L70 0 L70 174 L637 864 L82 864 L82 1069 L948 1069 Z M412 1184 L181 1503 L379 1503 L513 1313 L646 1503 L840 1503 L609 1184 L412 1184 Z " />
<glyph glyph-name="zdotaccent" unicode="&#x17c;" horiz-adv-x="1020" d="M948 1069 L948 893 L379 205 L965 205 L965 0 L70 0 L70 174 L637 864 L82 864 L82 1069 L948 1069 Z M621 1458 L621 1229 L398 1229 L398 1458 L621 1458 Z " />
<glyph glyph-name="eng" unicode="&#x14b;" horiz-adv-x="1217" d="M143 1069 L369 1069 L369 942 L373 942 Q426 1013 508 1052.5 Q590 1092 692 1092 Q808 1092 895 1042.5 Q982 993 1029.5 906 Q1077 819 1077 709 L1077 43 Q1077 -25 1065 -74.5 Q1053 -124 1023.5 -170.5 Q994 -217 940 -270 L825 -385 L672 -231 L778 -125 Q816 -87 830 -54 Q844 -21 844 39 L844 664 Q844 762 790 822.5 Q736 883 633 883 Q558 883 499.5 850.5 Q441 818 409 758.5 Q377 699 377 621 L377 0 L143 0 L143 1069 Z " />
<glyph glyph-name="eth" unicode="&#xf0;" horiz-adv-x="1221" d="M1133 549 Q1133 384 1071 254.5 Q1009 125 889.5 51 Q770 -23 604 -23 Q445 -23 324.5 46.5 Q204 116 139 237 Q74 358 74 508 Q74 655 135 773.5 Q196 892 307 960 Q418 1028 563 1028 Q725 1028 827 944 L831 946 Q768 1081 659 1184 L506 1065 L399 1192 L510 1292 Q447 1327 362 1360 L457 1550 Q568 1511 676 1444 L827 1583 L965 1419 L836 1319 Q985 1172 1059 973.5 Q1133 775 1133 549 Z M895 506 Q895 598 861.5 671 Q828 744 761.5 786.5 Q695 829 600 829 Q508 829 443 787 Q378 745 345.5 672.5 Q313 600 313 508 Q313 416 347 342.5 Q381 269 447 226.5 Q513 184 606 184 Q699 184 764 226 Q829 268 862 341 Q895 414 895 506 Z " />
<glyph glyph-name="thorn" unicode="&#xfe;" horiz-adv-x="1253" d="M143 1511 L377 1511 L377 944 L381 944 Q441 1015 524 1053.5 Q607 1092 707 1092 Q849 1092 956.5 1019.5 Q1064 947 1122 821.5 Q1180 696 1180 541 Q1180 384 1121 255.5 Q1062 127 951 52 Q840 -23 692 -23 Q596 -23 516.5 12 Q437 47 377 113 L373 113 L373 -360 L143 -360 L143 1511 Z M940 532 Q940 632 907.5 711.5 Q875 791 811 837 Q747 883 655 883 Q562 883 497.5 836.5 Q433 790 401 710.5 Q369 631 369 532 Q369 431 401.5 352.5 Q434 274 498.5 229 Q563 184 655 184 Q745 184 809.5 229 Q874 274 907 353 Q940 432 940 532 Z " />
<glyph glyph-name="longs" unicode="&#x17f;" horiz-adv-x="651" d="M219 864 L20 864 L20 1069 L219 1069 L219 1155 Q219 1326 307 1418.5 Q395 1511 578 1511 L705 1511 L705 1311 L606 1311 Q521 1311 487 1274.5 Q453 1238 453 1159 L453 0 L219 0 L219 864 Z " />
<glyph glyph-name="fi" unicode="&#xfb01;" horiz-adv-x="1331" d="M219 864 L20 864 L20 1069 L219 1069 L219 1155 Q219 1327 307 1419 Q395 1511 578 1511 L705 1511 L705 1311 L604 1311 Q519 1311 486 1275 Q453 1239 453 1161 L453 1069 L705 1069 L705 864 L453 864 L453 0 L219 0 L219 864 Z M1188 1511 L1188 1276 L936 1276 L936 1511 L1188 1511 Z M1188 0 L955 0 L955 864 L787 864 L787 1069 L1188 1069 L1188 0 Z " />
<glyph glyph-name="fl" unicode="&#xfb02;" horiz-adv-x="1317" d="M219 864 L20 864 L20 1069 L219 1069 L219 1155 Q219 1327 307 1419 Q395 1511 578 1511 L705 1511 L705 1311 L604 1311 Q519 1311 486 1275 Q453 1239 453 1161 L453 1069 L705 1069 L705 864 L453 864 L453 0 L219 0 L219 864 Z M1149 0 Q1007 0 940.5 73.5 Q874 147 874 279 L874 1511 L1108 1511 L1108 319 Q1108 259 1135.5 228 Q1163 197 1227 197 L1284 197 L1284 0 L1149 0 Z " />
<glyph glyph-name="ampersand" unicode="&#x26;" horiz-adv-x="1503" d="M1276 672 L1276 504 Q1276 380 1229 281 L1491 0 L1208 0 L1098 119 Q1014 49 901.5 13 Q789 -23 651 -23 Q483 -23 356 35 Q229 93 160.5 194.5 Q92 296 92 424 Q92 565 173 675 Q254 785 406 860 Q321 952 283.5 1028 Q246 1104 246 1188 Q246 1285 292 1363.5 Q338 1442 429 1488 Q520 1534 651 1534 Q775 1534 865.5 1491 Q956 1448 1003.5 1372 Q1051 1296 1051 1198 Q1051 1083 984.5 991 Q918 899 786 840 L731 815 L1053 471 Q1055 489 1055 528 L1055 877 L1442 877 L1442 672 L1276 672 Z M477 1176 Q477 1129 503.5 1080.5 Q530 1032 588 969 L608 946 L645 963 Q742 1006 784.5 1058.5 Q827 1111 827 1176 Q827 1245 783.5 1288 Q740 1331 657 1331 Q569 1331 523 1287.5 Q477 1244 477 1176 Z M952 274 L530 725 Q332 628 332 455 Q332 375 373 316 Q414 257 491.5 225 Q569 193 674 193 Q850 193 952 274 Z " />
<glyph glyph-name="grave" unicode="&#x60;" horiz-adv-x="1237" d="M573 1511 L754 1192 L561 1192 L336 1511 L573 1511 Z " />
<glyph glyph-name="acute" unicode="&#xb4;" horiz-adv-x="1237" d="M483 1192 L664 1511 L897 1511 L672 1192 L483 1192 Z " />
<glyph glyph-name="circumflex" unicode="&#x2c6;" horiz-adv-x="1237" d="M717 1511 L948 1192 L750 1192 L616 1382 L483 1192 L289 1192 L520 1511 L717 1511 Z " />
<glyph glyph-name="caron" unicode="&#x2c7;" horiz-adv-x="1237" d="M520 1192 L289 1511 L487 1511 L621 1321 L754 1511 L948 1511 L717 1192 L520 1192 Z " />
<glyph glyph-name="tilde" unicode="&#x2dc;" horiz-adv-x="1237" d="M455 1487 Q503 1487 546 1471 Q589 1455 645 1425 Q693 1400 721 1389 Q749 1378 778 1378 Q817 1378 839 1401.5 Q861 1425 862 1481 L981 1481 Q974 1351 919.5 1285 Q865 1219 782 1219 Q733 1219 691 1234.5 Q649 1250 591 1280 Q548 1303 518 1315 Q488 1327 459 1327 Q378 1327 375 1225 L256 1225 Q262 1353 317 1420 Q372 1487 455 1487 Z " />
<glyph glyph-name="dieresis" unicode="&#xa8;" horiz-adv-x="1237" d="M522 1466 L522 1237 L303 1237 L303 1466 L522 1466 Z M932 1466 L932 1237 L713 1237 L713 1466 L932 1466 Z " />
<glyph glyph-name="overscore" unicode="&#xaf;" horiz-adv-x="1237" d="M909 1432 L909 1274 L328 1274 L328 1432 L909 1432 Z " />
<glyph glyph-name="breve" unicode="&#x2d8;" horiz-adv-x="1237" d="M618 1196 Q472 1196 393 1278 Q314 1360 309 1501 L455 1501 Q458 1420 498.5 1372.5 Q539 1325 618 1325 Q699 1325 739 1372 Q779 1419 784 1501 L930 1501 Q925 1361 845 1278.5 Q765 1196 618 1196 Z " />
<glyph glyph-name="ring" unicode="&#x2da;" horiz-adv-x="1237" d="M377 1397 Q377 1462 407.5 1515.5 Q438 1569 493 1599.5 Q548 1630 618 1630 Q689 1630 744 1599.5 Q799 1569 829.5 1515.5 Q860 1462 860 1397 Q860 1332 829.5 1279 Q799 1226 744 1195.5 Q689 1165 618 1165 Q548 1165 493 1195.5 Q438 1226 407.5 1279 Q377 1332 377 1397 Z M737 1397 Q737 1451 705.5 1486.5 Q674 1522 618 1522 Q563 1522 531.5 1486.5 Q500 1451 500 1397 Q500 1343 531.5 1308.5 Q563 1274 618 1274 Q675 1274 706 1308.5 Q737 1343 737 1397 Z " />
<glyph glyph-name="hungarumlaut" unicode="&#x2dd;" horiz-adv-x="1237" d="M342 1192 L520 1511 L725 1511 L508 1192 L342 1192 Z M659 1192 L848 1511 L1051 1511 L825 1192 L659 1192 Z " />
<glyph glyph-name="dotaccent" unicode="&#x2d9;" horiz-adv-x="1237" d="M729 1466 L729 1237 L506 1237 L506 1466 L729 1466 Z " />
<glyph glyph-name="uni0326" unicode="&#x326;" d="M-789 -393 L-682 -74 L-459 -74 L-612 -393 L-789 -393 Z " />
<glyph glyph-name="cedilla" unicode="&#xb8;" horiz-adv-x="1237" d="M825 -199 Q825 -272 764.5 -316 Q704 -360 586 -360 L467 -360 L467 -244 L563 -244 Q599 -244 617 -231 Q635 -218 635 -195 Q635 -170 612.5 -155.5 Q590 -141 543 -141 L506 -141 L563 51 L680 51 L649 -55 Q734 -65 779.5 -102 Q825 -139 825 -199 Z " />
<glyph glyph-name="ogonek" unicode="&#x2db;" horiz-adv-x="1237" d="M829 0 Q635 -69 635 -143 Q635 -169 658.5 -184 Q682 -199 743 -199 L829 -199 L829 -360 L674 -360 Q584 -360 525 -335.5 Q466 -311 439 -271.5 Q412 -232 412 -184 Q412 -115 471 -56.5 Q530 2 641 47 L803 37 L829 0 Z " />
<glyph glyph-name="comma" unicode="&#x2c;" horiz-adv-x="561" d="M418 303 L272 -289 L96 -289 L176 303 L418 303 Z " />
<glyph glyph-name="semicolon" unicode="&#x3b;" horiz-adv-x="561" d="M418 303 L272 -289 L96 -289 L176 303 L418 303 Z M414 1069 L414 801 L147 801 L147 1069 L414 1069 Z " />
<glyph glyph-name="colon" unicode="&#x3a;" horiz-adv-x="561" d="M414 268 L414 0 L147 0 L147 268 L414 268 Z M414 1069 L414 801 L147 801 L147 1069 L414 1069 Z " />
<glyph glyph-name="period" unicode="&#x2e;" horiz-adv-x="561" d="M414 268 L414 0 L147 0 L147 268 L414 268 Z " />
<glyph glyph-name="ellipsis" unicode="&#x2026;" horiz-adv-x="1616" d="M414 268 L414 0 L147 0 L147 268 L414 268 Z M942 268 L942 0 L675 0 L675 268 L942 268 Z M1469 268 L1469 0 L1202 0 L1202 268 L1469 268 Z " />
<glyph glyph-name="hyphen" unicode="&#x2d;" horiz-adv-x="645" d="M559 705 L559 479 L86 479 L86 705 L559 705 Z " />
<glyph glyph-name="endash" unicode="&#x2013;" horiz-adv-x="1057" d="M977 692 L977 481 L80 481 L80 692 L977 692 Z " />
<glyph glyph-name="emdash" unicode="&#x2014;" horiz-adv-x="1616" d="M1563 682 L1563 494 L53 494 L53 682 L1563 682 Z " />
<glyph glyph-name="uni00AD" unicode="&#xad;" horiz-adv-x="655" d="M559 705 L559 479 L86 479 L86 705 L559 705 Z " />
<glyph glyph-name="bullet" unicode="&#x2022;" horiz-adv-x="762" d="M139 621 Q139 688 169 742 Q199 796 254 827 Q309 858 381 858 Q453 858 508 827 Q563 796 593 741.5 Q623 687 623 621 Q623 554 593 500 Q563 446 508 414.5 Q453 383 381 383 Q309 383 254 414 Q199 445 169 499.5 Q139 554 139 621 Z " />
<glyph glyph-name="middot" unicode="&#xb7;" horiz-adv-x="561" d="M414 733 L414 465 L147 465 L147 733 L414 733 Z " />
<glyph glyph-name="exclam" unicode="&#x21;" horiz-adv-x="635" d="M449 1511 L420 440 L215 440 L186 1511 L449 1511 Z M451 268 L451 0 L184 0 L184 268 L451 268 Z " />
<glyph glyph-name="exclamdown" unicode="&#xa1;" horiz-adv-x="635" d="M184 883 L184 1151 L451 1151 L451 883 L184 883 Z M186 -360 L215 711 L420 711 L449 -360 L186 -360 Z " />
<glyph glyph-name="question" unicode="&#x3f;" horiz-adv-x="948" d="M328 504 Q328 606 346 669.5 Q364 733 402.5 781 Q441 829 520 899 Q571 945 601 978 Q631 1011 648.5 1049 Q666 1087 666 1133 Q666 1220 613 1271.5 Q560 1323 469 1323 Q377 1323 326.5 1269.5 Q276 1216 276 1122 L47 1122 Q47 1248 99.5 1341 Q152 1434 249 1484 Q346 1534 475 1534 Q602 1534 700.5 1485.5 Q799 1437 854 1348.5 Q909 1260 909 1145 Q909 1062 881 998 Q853 934 808 884 Q763 834 684 764 Q625 713 596 676.5 Q567 640 555 600 Q543 560 543 500 L543 442 L328 442 L328 504 Z M567 268 L567 0 L303 0 L303 268 L567 268 Z " />
<glyph glyph-name="questiondown" unicode="&#xbf;" horiz-adv-x="948" d="M381 885 L381 1153 L645 1153 L645 885 L381 885 Z M620 649 Q620 547 602 483.5 Q584 420 545.5 372 Q507 324 428 254 Q377 208 347 175 Q317 142 299.5 104 Q282 66 282 20 Q282 -67 335 -118.5 Q388 -170 479 -170 Q571 -170 621.5 -116.5 Q672 -63 672 31 L901 31 Q901 -95 848.5 -188 Q796 -281 699 -331 Q602 -381 473 -381 Q346 -381 247.5 -332.5 Q149 -284 94 -195.5 Q39 -107 39 8 Q39 91 67 155 Q95 219 140 269 Q185 319 264 389 Q323 440 352 476.5 Q381 513 393 553 Q405 593 405 653 L405 711 L620 711 L620 649 Z " />
<glyph glyph-name="quoteleft" unicode="&#x2018;" horiz-adv-x="504" d="M98 975 L225 1511 L399 1511 L313 975 L98 975 Z " />
<glyph glyph-name="quoteright" unicode="&#x2019;" horiz-adv-x="504" d="M406 1511 L279 975 L105 975 L191 1511 L406 1511 Z " />
<glyph glyph-name="quotedblleft" unicode="&#x201c;" horiz-adv-x="866" d="M460 975 L587 1511 L761 1511 L675 975 L460 975 Z M98 975 L225 1511 L399 1511 L313 975 L98 975 Z " />
<glyph glyph-name="quotedblright" unicode="&#x201d;" horiz-adv-x="866" d="M406 1511 L279 975 L105 975 L191 1511 L406 1511 Z M768 1511 L641 975 L467 975 L553 1511 L768 1511 Z " />
<glyph glyph-name="quotesinglbase" unicode="&#x201a;" horiz-adv-x="504" d="M406 356 L279 -180 L105 -180 L191 356 L406 356 Z " />
<glyph glyph-name="quotedblbase" unicode="&#x201e;" horiz-adv-x="866" d="M406 356 L279 -180 L105 -180 L191 356 L406 356 Z M768 356 L641 -180 L467 -180 L553 356 L768 356 Z " />
<glyph glyph-name="guilsinglleft" unicode="&#x2039;" horiz-adv-x="715" d="M383 944 L596 944 L309 553 L596 162 L383 162 L96 553 L383 944 Z " />
<glyph glyph-name="guilsinglright" unicode="&#x203a;" horiz-adv-x="715" d="M332 162 L119 162 L406 553 L119 944 L332 944 L619 553 L332 162 Z " />
<glyph glyph-name="guillemotleft" unicode="&#xab;" horiz-adv-x="1112" d="M383 944 L596 944 L309 553 L596 162 L383 162 L96 553 L383 944 Z M780 944 L993 944 L706 553 L993 162 L780 162 L493 553 L780 944 Z " />
<glyph glyph-name="guillemotright" unicode="&#xbb;" horiz-adv-x="1112" d="M332 162 L119 162 L406 553 L119 944 L332 944 L619 553 L332 162 Z M729 162 L516 162 L803 553 L516 944 L729 944 L1016 553 L729 162 Z " />
<glyph glyph-name="slash" unicode="&#x2f;" horiz-adv-x="879" d="M12 -47 L676 1561 L866 1561 L203 -47 L12 -47 Z " />
<glyph glyph-name="currency" unicode="&#xa4;" horiz-adv-x="1257" d="M979 506 L1143 342 L1006 203 L846 362 Q746 301 629 301 Q510 301 412 362 L252 203 L113 342 L276 506 Q223 601 223 719 Q223 835 276 932 L113 1096 L252 1235 L412 1075 Q509 1137 629 1137 Q747 1137 846 1075 L1006 1235 L1143 1096 L979 932 Q1032 838 1032 719 Q1032 598 979 506 Z M629 467 Q696 468 749 501 Q802 534 831 591 Q860 648 860 719 Q860 790 830.5 847.5 Q801 905 748.5 938 Q696 971 629 971 Q560 971 507 938 Q454 905 424.5 847.5 Q395 790 395 719 Q395 647 424.5 590 Q454 533 507 500 Q560 467 629 467 Z " />
<glyph glyph-name="at" unicode="&#x40;" horiz-adv-x="1837" d="M922 -279 Q668 -279 482.5 -173 Q297 -67 199.5 116 Q102 299 102 526 Q102 751 197.5 936 Q293 1121 478.5 1229 Q664 1337 922 1337 Q1177 1337 1362 1231 Q1547 1125 1644 941.5 Q1741 758 1741 528 Q1741 400 1699.5 304 Q1658 208 1583 156 Q1508 104 1411 104 Q1323 104 1259 141.5 Q1195 179 1159 248 L1157 248 Q1111 180 1034.5 142 Q958 104 862 104 Q749 104 664 158.5 Q579 213 533 309 Q487 405 487 526 Q487 647 533.5 744 Q580 841 666 897.5 Q752 954 868 954 Q1018 954 1114 856 L1118 856 L1118 936 L1300 936 L1300 451 Q1300 266 1421 266 Q1489 266 1530 331.5 Q1571 397 1571 528 Q1571 703 1498 850.5 Q1425 998 1279 1087 Q1133 1176 924 1176 Q716 1176 569.5 1088.5 Q423 1001 349.5 854 Q276 707 276 530 Q276 357 349 210.5 Q422 64 567.5 -24.5 Q713 -113 922 -113 L1282 -113 L1282 -279 L922 -279 Z M1116 530 Q1116 606 1091 665.5 Q1066 725 1018 759 Q970 793 903 793 Q834 793 784 758 Q734 723 708 663 Q682 603 682 528 Q682 456 706.5 395.5 Q731 335 780 299.5 Q829 264 899 264 Q968 264 1017 298.5 Q1066 333 1091 393.5 Q1116 454 1116 530 Z " />
<glyph glyph-name="bar" unicode="&#x7c;" horiz-adv-x="621" d="M410 1618 L410 -360 L211 -360 L211 1618 L410 1618 Z " />
<glyph glyph-name="parenleft" unicode="&#x28;" horiz-adv-x="741" d="M127 610 Q127 921 228 1151 Q329 1381 512 1565 L659 1415 Q507 1263 425.5 1067.5 Q344 872 344 610 Q344 349 425 153.5 Q506 -42 659 -195 L512 -344 Q330 -162 228.5 68.5 Q127 299 127 610 Z " />
<glyph glyph-name="parenright" unicode="&#x29;" horiz-adv-x="741" d="M614 611 Q614 300 513 70 Q412 -160 229 -344 L82 -194 Q234 -42 315.5 153.5 Q397 349 397 611 Q397 872 316 1067.5 Q235 1263 82 1416 L229 1565 Q411 1383 512.5 1152.5 Q614 922 614 611 Z " />
<glyph glyph-name="bracketleft" unicode="&#x5b;" horiz-adv-x="700" d="M612 1511 L612 1327 L377 1327 L377 -106 L612 -106 L612 -291 L164 -291 L164 1511 L612 1511 Z " />
<glyph glyph-name="bracketright" unicode="&#x5d;" horiz-adv-x="700" d="M88 -290 L88 -106 L323 -106 L323 1327 L88 1327 L88 1512 L536 1512 L536 -290 L88 -290 Z " />
<glyph glyph-name="braceleft" unicode="&#x7b;" horiz-adv-x="737" d="M45 707 L115 707 Q167 707 196.5 720.5 Q226 734 238 764.5 Q250 795 250 848 L250 1235 Q250 1511 543 1511 L662 1511 L662 1331 L594 1331 Q523 1331 494 1303 Q465 1275 465 1214 L465 817 Q465 740 439 687.5 Q413 635 360 612 L360 608 Q413 586 439 533.5 Q465 481 465 403 L465 6 Q465 -55 494 -83 Q523 -111 594 -111 L662 -111 L662 -291 L543 -291 Q250 -291 250 -14 L250 373 Q250 425 237.5 455.5 Q225 486 196 500 Q167 514 115 514 L45 514 L45 707 Z " />
<glyph glyph-name="braceright" unicode="&#x7d;" horiz-adv-x="737" d="M692 514 L622 514 Q570 514 540.5 500.5 Q511 487 499 456.5 Q487 426 487 373 L487 -14 Q487 -290 194 -290 L75 -290 L75 -110 L143 -110 Q214 -110 243 -82 Q272 -54 272 7 L272 404 Q272 481 298 533.5 Q324 586 377 609 L377 613 Q324 635 298 687.5 Q272 740 272 818 L272 1215 Q272 1276 243 1304 Q214 1332 143 1332 L75 1332 L75 1512 L194 1512 Q487 1512 487 1235 L487 848 Q487 796 499.5 765.5 Q512 735 541 721 Q570 707 622 707 L692 707 L692 514 Z " />
<glyph glyph-name="asterisk" unicode="&#x2a;" horiz-adv-x="918" d="M459 1024 L305 782 L172 879 L356 1102 L76 1174 L127 1329 L395 1223 L377 1511 L541 1511 L522 1223 L791 1329 L842 1174 L563 1102 L745 879 L612 782 L459 1024 Z " />
<glyph glyph-name="dagger" unicode="&#x2020;" horiz-adv-x="1190" d="M121 874 L121 1083 L485 1083 L485 1511 L702 1511 L702 1083 L1069 1083 L1069 874 L702 874 L702 -291 L485 -291 L485 874 L121 874 Z " />
<glyph glyph-name="daggerdbl" unicode="&#x2021;" horiz-adv-x="1190" d="M702 346 L1069 346 L1069 137 L702 137 L702 -291 L485 -291 L485 137 L121 137 L121 346 L485 346 L485 874 L121 874 L121 1083 L485 1083 L485 1511 L702 1511 L702 1083 L1069 1083 L1069 874 L702 874 L702 346 Z " />
<glyph glyph-name="section" unicode="&#xa7;" horiz-adv-x="1223" d="M1061 145 Q1061 39 1004.5 -41.5 Q948 -122 841 -166.5 Q734 -211 588 -211 Q442 -211 337 -166.5 Q232 -122 177.5 -40.5 Q123 41 123 150 L352 150 Q354 72 416.5 29 Q479 -14 594 -14 Q709 -14 767 23 Q825 60 825 127 Q825 177 799.5 207.5 Q774 238 719.5 259 Q665 280 557 307 Q426 340 337 380 Q248 420 191.5 492.5 Q135 565 135 680 Q135 769 173 837 Q211 905 283 948 Q234 990 208 1047 Q182 1104 182 1182 Q182 1286 233 1365.5 Q284 1445 379 1489.5 Q474 1534 604 1534 Q732 1534 827.5 1492.5 Q923 1451 975 1375 Q1027 1299 1030 1198 L801 1198 Q801 1265 751 1302 Q701 1339 608 1339 Q516 1339 468 1302 Q420 1265 420 1202 Q420 1148 447.5 1116.5 Q475 1085 525.5 1066.5 Q576 1048 676 1024 Q818 988 908.5 946.5 Q999 905 1051.5 834 Q1104 763 1104 651 Q1104 561 1069 491 Q1034 421 965 377 Q1012 335 1036.5 278.5 Q1061 222 1061 145 Z M672 502 L723 488 Q772 475 803 465 Q841 491 861 531 Q881 571 881 621 Q881 683 844.5 719.5 Q808 756 749.5 776.5 Q691 797 567 829 L548 834 Q481 851 449 864 Q404 836 381 797 Q358 758 358 711 Q358 649 394 612 Q430 575 489.5 554 Q549 533 672 502 Z " />
<glyph glyph-name="paragraph" unicode="&#xb6;" horiz-adv-x="1243" d="M1141 1511 L1141 1325 L965 1325 L965 -291 L770 -291 L770 1325 L618 1325 L618 575 Q450 575 338.5 632.5 Q227 690 173 794 Q119 898 119 1038 Q119 1192 179 1298 Q239 1404 349 1457.5 Q459 1511 610 1511 L1141 1511 Z " />
<glyph glyph-name="asciicircum" unicode="&#x5e;" horiz-adv-x="1065" d="M618 1444 L973 676 L776 676 L532 1200 L528 1200 L287 676 L92 676 L446 1444 L618 1444 Z " />
<glyph glyph-name="asciitilde" unicode="&#x7e;" horiz-adv-x="1098" d="M344 866 Q399 866 449 850.5 Q499 835 566 806 Q622 782 659 770 Q696 758 731 758 Q778 758 803.5 784.5 Q829 811 829 864 L993 864 Q993 714 930 635.5 Q867 557 754 557 Q700 557 650.5 572.5 Q601 588 529 618 Q472 643 436.5 654.5 Q401 666 367 666 Q318 666 292 639 Q266 612 266 559 L104 559 Q104 709 166.5 787.5 Q229 866 344 866 Z " />
<glyph glyph-name="brokenbar" unicode="&#xa6;" horiz-adv-x="621" d="M410 1618 L410 844 L211 844 L211 1618 L410 1618 Z M410 414 L410 -360 L211 -360 L211 414 L410 414 Z " />
<glyph glyph-name="backslash" unicode="&#x5c;" horiz-adv-x="879" d="M12 1561 L203 1561 L866 -47 L676 -47 L12 1561 Z " />
<glyph glyph-name="underscore" unicode="&#x5f;" horiz-adv-x="952" d="M952 -147 L952 -311 L0 -311 L0 -147 L952 -147 Z " />
<glyph glyph-name="quotesingle" unicode="&#x27;" horiz-adv-x="457" d="M334 1511 L309 948 L147 948 L123 1511 L334 1511 Z " />
<glyph glyph-name="quotedbl" unicode="&#x22;" horiz-adv-x="813" d="M690 1511 L665 948 L503 948 L479 1511 L690 1511 Z M334 1511 L309 948 L147 948 L123 1511 L334 1511 Z " />
<glyph glyph-name="copyright" unicode="&#xa9;" horiz-adv-x="1653" d="M88 723 Q88 927 174.5 1094.5 Q261 1262 427.5 1360 Q594 1458 825 1458 Q1056 1458 1223 1360 Q1390 1262 1476.5 1094.5 Q1563 927 1563 723 Q1563 519 1476.5 351.5 Q1390 184 1223 86 Q1056 -12 825 -12 Q594 -12 427.5 86 Q261 184 174.5 351.5 Q88 519 88 723 Z M1395 723 Q1395 881 1330.5 1013 Q1266 1145 1137 1224 Q1008 1303 825 1303 Q642 1303 513.5 1224 Q385 1145 320.5 1013 Q256 881 256 723 Q256 564 320.5 432 Q385 300 513.5 221.5 Q642 143 825 143 Q1008 143 1137 221.5 Q1266 300 1330.5 432 Q1395 564 1395 723 Z M831 291 Q710 291 620 347 Q530 403 482 500.5 Q434 598 434 719 Q434 842 482 941.5 Q530 1041 620 1098 Q710 1155 831 1155 Q931 1155 1009 1116 Q1087 1077 1135 1007.5 Q1183 938 1198 846 L1010 846 Q991 914 945 950.5 Q899 987 831 987 Q766 987 720 952.5 Q674 918 650.5 858.5 Q627 799 627 725 Q627 608 681.5 533.5 Q736 459 836 459 Q903 459 949.5 497.5 Q996 536 1012 602 L1198 602 Q1183 510 1134.5 439.5 Q1086 369 1008.5 330 Q931 291 831 291 Z " />
<glyph glyph-name="registered" unicode="&#xae;" horiz-adv-x="901" d="M66 1153 Q66 1258 115.5 1345 Q165 1432 253 1483 Q341 1534 451 1534 Q560 1534 648 1483 Q736 1432 786 1345 Q836 1258 836 1153 Q836 1048 786 961 Q736 874 648 823 Q560 772 451 772 Q341 772 253 823 Q165 874 115.5 961 Q66 1048 66 1153 Z M762 1153 Q762 1239 722 1310.5 Q682 1382 611 1424 Q540 1466 451 1466 Q362 1466 290.5 1424 Q219 1382 179 1310.5 Q139 1239 139 1153 Q139 1067 179 995.5 Q219 924 290.5 882 Q362 840 451 840 Q540 840 611 882 Q682 924 722 995.5 Q762 1067 762 1153 Z M307 1346 L487 1346 Q543 1346 579.5 1315 Q616 1284 616 1231 Q616 1188 592.5 1159 Q569 1130 530 1118 L627 963 L539 963 L457 1106 L383 1106 L383 963 L307 963 L307 1346 Z M473 1169 Q503 1169 521 1183 Q539 1197 539 1223 Q539 1252 522 1266 Q505 1280 473 1280 L383 1280 L383 1169 L473 1169 Z " />
<glyph glyph-name="trademark" unicode="&#x2122;" horiz-adv-x="1296" d="M209 1395 L25 1395 L25 1511 L522 1511 L522 1395 L340 1395 L340 915 L209 915 L209 1395 Z M602 1511 L762 1511 L915 1112 L920 1112 L1075 1511 L1229 1511 L1229 915 L1102 915 L1102 1280 L1098 1280 L950 915 L874 915 L727 1280 L723 1280 L723 915 L602 915 L602 1511 Z " />
<glyph glyph-name="ordfeminine" unicode="&#xaa;" horiz-adv-x="772" d="M500 893 L496 893 Q461 849 410 825 Q359 801 293 801 Q221 801 167.5 828 Q114 855 85.5 902.5 Q57 950 57 1010 Q57 1084 92.5 1126.5 Q128 1169 188.5 1190.5 Q249 1212 354 1231 Q419 1243 447 1250.5 Q475 1258 485.5 1269 Q496 1280 496 1300 Q496 1337 465 1357.5 Q434 1378 375 1378 Q313 1378 284 1357 Q255 1336 250 1296 L72 1296 Q81 1409 163 1471.5 Q245 1534 381 1534 Q524 1534 600 1467.5 Q676 1401 676 1286 L676 815 L500 815 L500 893 Z M379 1110 Q326 1099 298 1089 Q270 1079 256 1063 Q242 1047 242 1020 Q242 984 268.5 963 Q295 942 342 942 Q389 942 424 959.5 Q459 977 477.5 1006.5 Q496 1036 496 1071 L496 1141 Q446 1122 379 1110 Z " />
<glyph glyph-name="ordmasculine" unicode="&#xba;" horiz-adv-x="856" d="M55 1167 Q55 1270 100 1353.5 Q145 1437 229.5 1485.5 Q314 1534 428 1534 Q541 1534 625 1485.5 Q709 1437 754 1353.5 Q799 1270 799 1167 Q799 1064 754 981 Q709 898 625 849.5 Q541 801 428 801 Q315 801 230 849.5 Q145 898 100 981 Q55 1064 55 1167 Z M614 1167 Q614 1258 565 1317 Q516 1376 428 1376 Q369 1376 326.5 1348.5 Q284 1321 262 1273.5 Q240 1226 240 1167 Q240 1075 290 1016.5 Q340 958 428 958 Q516 958 565 1016.5 Q614 1075 614 1167 Z " />
<glyph glyph-name="uni2206" unicode="&#x2206;" horiz-adv-x="1362" d="M1360 0 L2 0 L565 1511 L797 1511 L1360 0 Z M1014 227 L678 1155 L674 1155 L344 227 L1014 227 Z " />
<glyph glyph-name="uni2126" unicode="&#x2126;" horiz-adv-x="1446" d="M96 227 L371 227 L371 231 Q239 359 165.5 524.5 Q92 690 92 870 Q92 1059 168 1210 Q244 1361 386.5 1447.5 Q529 1534 723 1534 Q917 1534 1059.5 1447.5 Q1202 1361 1278 1210 Q1354 1059 1354 870 Q1354 690 1280.5 524 Q1207 358 1073 231 L1073 227 L1350 227 L1350 0 L809 0 L809 233 Q947 370 1023.5 540.5 Q1100 711 1100 874 Q1100 998 1057 1095 Q1014 1192 929 1247.5 Q844 1303 723 1303 Q602 1303 517 1247.5 Q432 1192 389 1095 Q346 998 346 874 Q346 711 422.5 541.5 Q499 372 637 233 L637 0 L96 0 L96 227 Z " />
<glyph glyph-name="uni00B5" unicode="&#xb5;" horiz-adv-x="1219" d="M1075 1069 L1075 0 L848 0 L848 133 L844 133 Q790 59 707.5 18 Q625 -23 522 -23 Q441 -23 373 4 L395 -360 L143 -360 L143 1069 L377 1069 L377 401 Q377 306 431 245 Q485 184 588 184 Q661 184 719 217 Q777 250 809.5 310 Q842 370 842 449 L842 1069 L1075 1069 Z " />
<glyph glyph-name="uni0394" unicode="&#x394;" horiz-adv-x="1362" d="M1360 0 L2 0 L565 1511 L797 1511 L1360 0 Z M1014 227 L678 1155 L674 1155 L344 227 L1014 227 Z " />
<glyph glyph-name="uni03A9" unicode="&#x3a9;" horiz-adv-x="1446" d="M96 227 L371 227 L371 231 Q239 359 165.5 524.5 Q92 690 92 870 Q92 1059 168 1210 Q244 1361 386.5 1447.5 Q529 1534 723 1534 Q917 1534 1059.5 1447.5 Q1202 1361 1278 1210 Q1354 1059 1354 870 Q1354 690 1280.5 524 Q1207 358 1073 231 L1073 227 L1350 227 L1350 0 L809 0 L809 233 Q947 370 1023.5 540.5 Q1100 711 1100 874 Q1100 998 1057 1095 Q1014 1192 929 1247.5 Q844 1303 723 1303 Q602 1303 517 1247.5 Q432 1192 389 1095 Q346 998 346 874 Q346 711 422.5 541.5 Q499 372 637 233 L637 0 L96 0 L96 227 Z " />
<glyph glyph-name="uni03BC" unicode="&#x3bc;" horiz-adv-x="1219" d="M1075 1069 L1075 0 L848 0 L848 133 L844 133 Q790 59 707.5 18 Q625 -23 522 -23 Q441 -23 373 4 L395 -360 L143 -360 L143 1069 L377 1069 L377 401 Q377 306 431 245 Q485 184 588 184 Q661 184 719 217 Q777 250 809.5 310 Q842 370 842 449 L842 1069 L1075 1069 Z " />
<glyph glyph-name="pi" unicode="&#x3c0;" horiz-adv-x="1333" d="M250 864 L61 864 L61 1069 L1268 1069 L1268 864 L1079 864 L1079 326 Q1079 260 1108 227.5 Q1137 195 1208 195 L1268 195 L1268 0 L1133 0 Q988 0 917 78.5 Q846 157 846 301 L846 864 L483 864 L483 0 L250 0 L250 864 Z " />
<glyph glyph-name="degree" unicode="&#xb0;" horiz-adv-x="725" d="M70 1245 Q70 1326 107 1392 Q144 1458 211 1496 Q278 1534 362 1534 Q447 1534 513.5 1496 Q580 1458 617.5 1392 Q655 1326 655 1245 Q655 1164 617.5 1098 Q580 1032 513.5 994 Q447 956 362 956 Q278 956 211 994 Q144 1032 107 1098 Q70 1164 70 1245 Z M530 1245 Q530 1292 509.5 1330.5 Q489 1369 450.5 1391 Q412 1413 362 1413 Q312 1413 274 1391 Q236 1369 215.5 1330.5 Q195 1292 195 1245 Q195 1198 215.5 1159.5 Q236 1121 274 1099 Q312 1077 362 1077 Q412 1077 450.5 1099 Q489 1121 509.5 1159.5 Q530 1198 530 1245 Z " />
<glyph glyph-name="infinity" unicode="&#x221e;" horiz-adv-x="1485" d="M399 950 Q513 950 600 884 Q687 818 750 702 L754 702 Q883 950 1090 950 Q1184 950 1258.5 901 Q1333 852 1375 762.5 Q1417 673 1417 557 Q1417 437 1375.5 349 Q1334 261 1259.5 214.5 Q1185 168 1087 168 Q870 168 737 416 L733 416 Q670 300 588 234 Q506 168 395 168 Q301 168 226.5 218 Q152 268 110 358 Q68 448 68 565 Q68 683 109.5 770 Q151 857 226 903.5 Q301 950 399 950 Z M414 336 Q493 336 546 394 Q599 452 653 569 Q599 675 545 729.5 Q491 784 414 784 Q333 784 288.5 724 Q244 664 244 561 Q244 458 289 397 Q334 336 414 336 Z M1071 782 Q1016 782 974 753.5 Q932 725 899.5 676.5 Q867 628 831 551 Q868 479 900.5 433.5 Q933 388 974.5 361 Q1016 334 1071 334 Q1151 334 1196 394.5 Q1241 455 1241 557 Q1241 660 1196.5 721 Q1152 782 1071 782 Z " />
<glyph glyph-name="partialdiff" unicode="&#x2202;" horiz-adv-x="1278" d="M561 1507 Q761 1507 892.5 1415.5 Q1024 1324 1086.5 1159 Q1149 994 1149 770 Q1149 568 1097 389.5 Q1045 211 918 94 Q791 -23 578 -23 Q431 -23 327 35 Q223 93 169 198 Q115 303 115 444 Q115 586 168 714 Q221 842 330 923 Q439 1004 598 1004 Q696 1004 768.5 967.5 Q841 931 907 864 L911 864 Q900 1079 815 1192 Q730 1305 547 1305 Q430 1305 311 1249 L252 1434 Q386 1507 561 1507 Z M641 809 Q541 809 476 759 Q411 709 381.5 628.5 Q352 548 352 455 Q352 329 409 254.5 Q466 180 588 180 Q753 180 827 312.5 Q901 445 911 672 Q863 736 793 772.5 Q723 809 641 809 Z " />
<glyph glyph-name="integral" unicode="&#x222b;" horiz-adv-x="672" d="M137 -160 Q220 -160 256.5 -125.5 Q293 -91 293 -10 Q293 30 281 102 L158 1012 L155 1037 Q145 1135 145 1171 Q145 1332 231.5 1421.5 Q318 1511 485 1511 L653 1511 L653 1311 L537 1311 Q454 1311 417.5 1276.5 Q381 1242 381 1161 Q381 1121 393 1049 L514 139 Q528 39 528 -20 Q528 -182 441.5 -271 Q355 -360 186 -360 L18 -360 L18 -160 L137 -160 Z " />
<glyph glyph-name="radical" unicode="&#x221a;" horiz-adv-x="1325" d="M23 655 L-43 842 L369 989 L705 150 L709 150 L1260 1708 L1473 1708 L786 -227 L625 -227 L238 735 L23 655 Z " />
<glyph glyph-name="summation" unicode="&#x2211;" horiz-adv-x="1219" d="M539 705 L92 1329 L92 1511 L1108 1511 L1108 1284 L393 1284 L803 717 L371 37 L1126 37 L1126 -190 L86 -190 L86 -6 L539 705 Z " />
<glyph glyph-name="product" unicode="&#x220f;" horiz-adv-x="1604" d="M70 1284 L70 1511 L1534 1511 L1534 1284 L1317 1284 L1317 -190 L1067 -190 L1067 1284 L537 1284 L537 -190 L289 -190 L289 1284 L70 1284 Z " />
<glyph glyph-name="lozenge" unicode="&#x25ca;" horiz-adv-x="1071" d="M440 1511 L631 1511 L983 756 L631 0 L440 0 L88 756 L440 1511 Z M532 227 L539 227 L782 756 L539 1284 L532 1284 L289 756 L532 227 Z " />
<glyph glyph-name="estimated" unicode="&#x212e;" horiz-adv-x="1462" d="M1210 254 L1276 240 Q1178 107 1041.5 37 Q905 -33 735 -33 Q545 -33 394.5 51 Q244 135 159 280 Q74 425 74 600 Q74 776 159 921.5 Q244 1067 394.5 1152 Q545 1237 733 1237 Q910 1237 1060.5 1163 Q1211 1089 1300 952 Q1389 815 1389 635 Q1389 613 1385 604 Q1381 595 1369 592.5 Q1357 590 1327 590 L395 590 Q362 590 350 586.5 Q338 583 335 572 Q332 561 332 528 L332 270 Q332 189 397 133 Q462 77 557 50 Q652 23 741 23 Q873 23 1000.5 82 Q1128 141 1210 254 Z M1133 709 L1133 954 Q1133 1016 1079 1068.5 Q1025 1121 932.5 1151.5 Q840 1182 731 1182 Q623 1182 531.5 1151.5 Q440 1121 386 1068.5 Q332 1016 332 954 L332 709 Q332 675 335 663.5 Q338 652 349.5 648.5 Q361 645 395 645 L1069 645 Q1103 645 1115 648.5 Q1127 652 1130 663.5 Q1133 675 1133 709 Z " />
<glyph glyph-name="uni2113" unicode="&#x2113;" horiz-adv-x="844" d="M219 547 L219 1055 Q219 1190 256 1285 Q293 1380 357 1428.5 Q421 1477 500 1477 Q570 1477 621.5 1440 Q673 1403 701 1334 Q729 1265 729 1171 Q729 862 416 526 L416 395 Q416 295 428.5 236.5 Q441 178 467.5 152.5 Q494 127 537 127 Q581 127 620.5 154 Q660 181 709 236 L782 141 Q721 56 650.5 14.5 Q580 -27 492 -27 Q356 -27 288.5 63 Q221 153 221 305 L221 375 L204 357 Q147 295 127 283 L61 395 Q157 482 219 547 Z M508 1331 Q465 1331 440.5 1266.5 Q416 1202 416 1071 L416 715 Q496 822 540 942 Q584 1062 584 1171 Q584 1245 563.5 1288 Q543 1331 508 1331 Z " />
<glyph glyph-name="zero" unicode="0" horiz-adv-x="1282" d="M92 756 Q92 1104 215.5 1319 Q339 1534 641 1534 Q942 1534 1066 1318.5 Q1190 1103 1190 756 Q1190 407 1066.5 192 Q943 -23 641 -23 Q339 -23 215.5 192 Q92 407 92 756 Z M946 756 Q946 919 923 1041.5 Q900 1164 832.5 1242.5 Q765 1321 641 1321 Q517 1321 449.5 1242.5 Q382 1164 359 1041.5 Q336 919 336 756 Q336 592 359 469.5 Q382 347 449.5 268.5 Q517 190 641 190 Q765 190 832.5 268.5 Q900 347 923 469.5 Q946 592 946 756 Z " />
<glyph glyph-name="one" unicode="1" horiz-adv-x="1282" d="M569 221 L569 1235 Q418 1132 203 1069 L203 1300 Q451 1375 616 1511 L811 1511 L811 221 L1180 221 L1180 0 L199 0 L199 221 L569 221 Z " />
<glyph glyph-name="two" unicode="2" horiz-adv-x="1282" d="M1157 221 L1157 0 L131 0 L131 193 L674 707 Q779 805 835 893.5 Q891 982 891 1075 Q891 1145 859.5 1201 Q828 1257 768 1289 Q708 1321 625 1321 Q544 1321 485.5 1289 Q427 1257 395 1202 Q363 1147 358 1077 L119 1077 Q128 1213 190 1316 Q252 1419 363.5 1476.5 Q475 1534 629 1534 Q786 1534 901 1475.5 Q1016 1417 1076.5 1315 Q1137 1213 1137 1085 Q1137 953 1069 832 Q1001 711 864 582 L479 221 L1157 221 Z " />
<glyph glyph-name="three" unicode="3" horiz-adv-x="1282" d="M643 870 Q729 870 789 900 Q849 930 879 981 Q909 1032 909 1096 Q909 1162 875.5 1214 Q842 1266 779 1295.5 Q716 1325 633 1325 Q554 1325 494.5 1298 Q435 1271 401.5 1224 Q368 1177 365 1118 L127 1118 Q130 1237 191 1331.5 Q252 1426 365.5 1480 Q479 1534 635 1534 Q795 1534 911 1479 Q1027 1424 1088 1328 Q1149 1232 1149 1110 Q1149 1005 1099.5 920 Q1050 835 961 784 L961 782 Q1066 726 1122 633 Q1178 540 1178 422 Q1178 294 1113.5 193 Q1049 92 925.5 34.5 Q802 -23 631 -23 Q463 -23 342.5 33.5 Q222 90 158.5 188.5 Q95 287 92 414 L330 414 Q335 347 372.5 295.5 Q410 244 476.5 215 Q543 186 631 186 Q723 186 792 217 Q861 248 898.5 304.5 Q936 361 936 434 Q936 503 902 557.5 Q868 612 802 643 Q736 674 643 674 L463 674 L463 870 L643 870 Z " />
<glyph glyph-name="four" unicode="4" horiz-adv-x="1282" d="M1225 532 L1225 332 L991 332 L991 0 L750 0 L750 332 L57 332 L57 496 L733 1511 L991 1511 L991 532 L1225 532 Z M750 1206 L745 1206 L301 532 L750 532 L750 1206 Z " />
<glyph glyph-name="five" unicode="5" horiz-adv-x="1282" d="M442 1290 L414 922 Q518 975 657 975 Q814 975 931 912.5 Q1048 850 1111 738.5 Q1174 627 1174 483 Q1174 338 1110.5 223.5 Q1047 109 924.5 43 Q802 -23 633 -23 Q477 -23 361.5 33.5 Q246 90 180.5 189 Q115 288 102 414 L348 414 Q366 312 442.5 251 Q519 190 639 190 Q728 190 793.5 226.5 Q859 263 894.5 329 Q930 395 930 481 Q930 567 893.5 632.5 Q857 698 788.5 734 Q720 770 627 770 Q476 770 387 694 L164 694 L225 1511 L1096 1511 L1096 1290 L442 1290 Z " />
<glyph glyph-name="six" unicode="6" horiz-adv-x="1282" d="M680 1321 Q354 1321 344 805 L346 805 Q409 882 504 924.5 Q599 967 715 967 Q859 967 970 903.5 Q1081 840 1141.5 729 Q1202 618 1202 481 Q1202 339 1138 224.5 Q1074 110 954.5 43.5 Q835 -23 674 -23 Q368 -23 237 181.5 Q106 386 106 713 Q106 950 164 1133.5 Q222 1317 352 1425.5 Q482 1534 690 1534 Q827 1534 929.5 1482.5 Q1032 1431 1094.5 1339 Q1157 1247 1178 1124 L940 1122 Q913 1217 847.5 1269 Q782 1321 680 1321 Z M961 479 Q961 561 927 626 Q893 691 828.5 728.5 Q764 766 676 766 Q589 766 521.5 731 Q454 696 416.5 633 Q379 570 379 489 Q379 415 410 346 Q441 277 507 232.5 Q573 188 672 188 Q761 188 826.5 226 Q892 264 926.5 330 Q961 396 961 479 Z " />
<glyph glyph-name="seven" unicode="7" horiz-adv-x="1282" d="M106 1290 L106 1511 L1163 1511 L1163 1337 L590 0 L344 0 L903 1290 L106 1290 Z " />
<glyph glyph-name="eight" unicode="8" horiz-adv-x="1282" d="M86 412 Q86 537 150 631.5 Q214 726 332 776 L332 780 Q230 831 174.5 919 Q119 1007 119 1118 Q119 1237 181 1331.5 Q243 1426 361 1480 Q479 1534 641 1534 Q802 1534 920 1480 Q1038 1426 1100.5 1331.5 Q1163 1237 1163 1118 Q1163 1007 1107 919.5 Q1051 832 950 780 L950 776 Q1068 726 1132 631.5 Q1196 537 1196 412 Q1196 287 1130 188.5 Q1064 90 938.5 33.5 Q813 -23 641 -23 Q468 -23 342.5 33.5 Q217 90 151.5 188.5 Q86 287 86 412 Z M924 1100 Q924 1163 890.5 1214.5 Q857 1266 792.5 1295.5 Q728 1325 641 1325 Q553 1325 489 1295.5 Q425 1266 391.5 1214.5 Q358 1163 358 1100 Q358 1032 392.5 979 Q427 926 491 896 Q555 866 641 866 Q727 866 791 896 Q855 926 889.5 979 Q924 1032 924 1100 Z M954 432 Q954 505 915 562 Q876 619 805 651.5 Q734 684 641 684 Q548 684 477 651.5 Q406 619 367 562 Q328 505 328 432 Q328 362 365.5 306 Q403 250 474 218 Q545 186 641 186 Q736 186 807 218 Q878 250 916 306 Q954 362 954 432 Z " />
<glyph glyph-name="nine" unicode="9" horiz-adv-x="1282" d="M610 190 Q782 190 859.5 324.5 Q937 459 942 705 L942 713 L938 713 Q879 636 783.5 593.5 Q688 551 571 551 Q430 551 321.5 614 Q213 677 153.5 787 Q94 897 94 1034 Q94 1175 157.5 1289 Q221 1403 340 1468.5 Q459 1534 618 1534 Q919 1534 1047.5 1327.5 Q1176 1121 1176 791 Q1176 558 1120 376 Q1064 194 936 85.5 Q808 -23 602 -23 Q461 -23 354.5 30 Q248 83 184.5 178 Q121 273 104 399 L340 399 Q362 301 433 245.5 Q504 190 610 190 Z M903 1026 Q903 1099 873 1167 Q843 1235 779 1279 Q715 1323 618 1323 Q531 1323 467 1286 Q403 1249 369.5 1183.5 Q336 1118 336 1036 Q336 954 369 889.5 Q402 825 464.5 788.5 Q527 752 614 752 Q698 752 764 786 Q830 820 866.5 882 Q903 944 903 1026 Z " />
<glyph glyph-name="cent" unicode="&#xa2;" horiz-adv-x="1282" d="M752 182 L752 -49 L547 -49 L547 184 Q416 208 321 287.5 Q226 367 175.5 487 Q125 607 125 752 Q125 898 175 1019.5 Q225 1141 320.5 1221.5 Q416 1302 547 1327 L547 1561 L752 1561 L752 1331 Q912 1305 1015 1198 Q1118 1091 1145 930 L909 930 Q887 1023 821 1075.5 Q755 1128 662 1128 Q568 1128 501 1079 Q434 1030 400.5 946.5 Q367 863 367 758 Q367 651 401.5 565.5 Q436 480 502.5 430.5 Q569 381 662 381 Q759 381 825.5 435.5 Q892 490 915 584 L1147 584 Q1120 422 1016.5 314 Q913 206 752 182 Z " />
<glyph glyph-name="dollar" unicode="&#x24;" horiz-adv-x="1282" d="M743 86 L743 -139 L541 -139 L541 84 Q406 99 309.5 154 Q213 209 162.5 297.5 Q112 386 111 500 L350 500 Q352 400 427.5 344.5 Q503 289 639 289 Q723 289 784.5 311 Q846 333 878.5 374 Q911 415 911 469 Q911 521 882.5 553.5 Q854 586 786 611 Q718 636 588 664 Q450 693 358.5 730.5 Q267 768 209.5 840 Q152 912 152 1030 Q152 1134 198 1217.5 Q244 1301 332 1355 Q420 1409 541 1425 L541 1651 L743 1651 L743 1425 Q861 1408 946.5 1356 Q1032 1304 1078 1223 Q1124 1142 1126 1040 L885 1040 Q885 1127 821 1175 Q757 1223 641 1223 Q524 1223 461.5 1178 Q399 1133 399 1057 Q399 1003 432.5 971 Q466 939 530.5 919 Q595 899 721 872 Q863 843 958 800 Q1053 757 1106 683 Q1159 609 1159 496 Q1159 387 1108 300.5 Q1057 214 963 158.5 Q869 103 743 86 Z " />
<glyph glyph-name="Euro" unicode="&#x20ac;" horiz-adv-x="1282" d="M1239 369 Q1193 187 1070.5 82 Q948 -23 754 -23 Q525 -23 395.5 120.5 Q266 264 225 506 L53 506 L53 684 L207 684 Q205 707 205 754 Q205 813 207 844 L53 844 L53 1022 L227 1022 Q272 1257 401.5 1395.5 Q531 1534 754 1534 Q945 1534 1068 1429 Q1191 1324 1237 1145 L993 1145 Q963 1229 903 1275 Q843 1321 752 1321 Q526 1321 469 1022 L874 1022 L874 844 L449 844 Q446 815 446 758 Q446 709 449 684 L874 684 L874 506 L465 506 Q523 190 752 190 Q843 190 903 237 Q963 284 995 369 L1239 369 Z " />
<glyph glyph-name="florin" unicode="&#x192;" horiz-adv-x="1282" d="M819 1161 L795 1010 L1092 1010 L1061 803 L762 803 L662 182 Q632 4 528.5 -89 Q425 -182 250 -182 L70 -182 L100 23 L221 23 Q310 23 360.5 63.5 Q411 104 426 193 L522 803 L266 803 L297 1010 L557 1010 L582 1169 Q612 1347 715 1440.5 Q818 1534 995 1534 L1176 1534 L1145 1331 L1026 1331 Q933 1331 884 1291 Q835 1251 819 1161 Z " />
<glyph glyph-name="sterling" unicode="&#xa3;" horiz-adv-x="1282" d="M117 221 L279 221 L279 645 L117 645 L117 848 L279 848 L279 1100 Q279 1229 335.5 1327 Q392 1425 499.5 1479.5 Q607 1534 754 1534 Q888 1534 988 1485.5 Q1088 1437 1144.5 1350 Q1201 1263 1210 1151 L981 1151 Q969 1231 913 1276 Q857 1321 758 1321 Q641 1321 580.5 1259 Q520 1197 520 1094 L520 848 L932 848 L932 645 L520 645 L520 221 L1212 221 L1212 0 L117 0 L117 221 Z " />
<glyph glyph-name="yen" unicode="&#xa5;" horiz-adv-x="1282" d="M864 901 L1147 901 L1147 721 L762 721 L762 557 L1147 557 L1147 377 L762 377 L762 0 L522 0 L522 377 L137 377 L137 557 L522 557 L522 721 L137 721 L137 901 L416 901 L31 1511 L295 1511 L643 928 L645 928 L991 1511 L1247 1511 L864 901 Z " />
<glyph glyph-name="fraction" unicode="&#x2044;" horiz-adv-x="406" d="M532 1511 L717 1511 L-127 0 L-311 0 L532 1511 Z " />
<glyph glyph-name="onequarter" unicode="&#xbc;" horiz-adv-x="1882" d="M353 795 L353 1321 Q258 1258 146 1229 L146 1391 Q292 1433 381 1512 L525 1512 L525 795 L727 795 L727 643 L144 643 L144 795 L353 795 Z M1320 1511 L1505 1511 L661 0 L477 0 L1320 1511 Z M1831 178 L1681 178 L1681 0 L1511 0 L1511 178 L1095 178 L1095 291 L1505 867 L1681 867 L1681 318 L1831 318 L1831 178 Z M1511 318 L1511 652 L1507 652 L1272 318 L1511 318 Z " />
<glyph glyph-name="onehalf" unicode="&#xbd;" horiz-adv-x="1882" d="M320 795 L320 1321 Q225 1258 113 1229 L113 1391 Q259 1433 348 1512 L492 1512 L492 795 L694 795 L694 643 L111 643 L111 795 L320 795 Z M1806 152 L1806 0 L1194 0 L1194 140 L1509 424 Q1567 475 1595.5 519.5 Q1624 564 1624 611 Q1624 664 1589 696.5 Q1554 729 1491 729 Q1429 729 1393 695 Q1357 661 1354 606 L1184 606 Q1189 686 1226 748.5 Q1263 811 1330.5 846 Q1398 881 1493 881 Q1587 881 1656 846.5 Q1725 812 1761.5 752.5 Q1798 693 1798 619 Q1798 540 1759.5 470 Q1721 400 1638 328 L1438 152 L1806 152 Z M1290 1511 L1475 1511 L631 0 L447 0 L1290 1511 Z " />
<glyph glyph-name="threequarters" unicode="&#xbe;" horiz-adv-x="1882" d="M406 1153 Q472 1153 507.5 1184 Q543 1215 543 1264 Q543 1314 504 1344 Q465 1374 402 1374 Q342 1374 305.5 1348 Q269 1322 263 1278 L95 1278 Q97 1348 133 1403.5 Q169 1459 237.5 1491.5 Q306 1524 402 1524 Q500 1524 569.5 1491.5 Q639 1459 675 1403 Q711 1347 711 1276 Q711 1217 685.5 1170 Q660 1123 611 1094 L611 1092 Q669 1058 698.5 1006.5 Q728 955 728 889 Q728 815 690 756 Q652 697 578 663 Q504 629 402 629 Q300 629 227 662.5 Q154 696 116.5 754.5 Q79 813 78 887 L248 887 Q253 838 293 809 Q333 780 402 780 Q473 780 515.5 812 Q558 844 558 899 Q558 952 518.5 985 Q479 1018 406 1018 L295 1018 L295 1153 L406 1153 Z M1329 1511 L1514 1511 L670 0 L486 0 L1329 1511 Z M1839 178 L1689 178 L1689 0 L1519 0 L1519 178 L1103 178 L1103 291 L1513 867 L1689 867 L1689 318 L1839 318 L1839 178 Z M1519 318 L1519 652 L1515 652 L1280 318 L1519 318 Z " />
<glyph glyph-name="one.sups" unicode="&#xb9;" horiz-adv-x="770" d="M324 973 L324 1499 Q229 1436 117 1407 L117 1569 Q263 1611 352 1690 L496 1690 L496 973 L698 973 L698 821 L115 821 L115 973 L324 973 Z " />
<glyph glyph-name="two.sups" unicode="&#xb2;" horiz-adv-x="770" d="M694 973 L694 821 L82 821 L82 961 L397 1245 Q455 1296 483.5 1340.5 Q512 1385 512 1432 Q512 1485 477 1517.5 Q442 1550 379 1550 Q317 1550 281 1516 Q245 1482 242 1427 L72 1427 Q77 1507 114 1569.5 Q151 1632 218.5 1667 Q286 1702 381 1702 Q475 1702 544 1667.5 Q613 1633 649.5 1573.5 Q686 1514 686 1440 Q686 1361 647.5 1291 Q609 1221 526 1149 L326 973 L694 973 Z " />
<glyph glyph-name="three.sups" unicode="&#xb3;" horiz-adv-x="770" d="M383 1331 Q449 1331 484.5 1362 Q520 1393 520 1442 Q520 1492 481 1522 Q442 1552 379 1552 Q319 1552 282.5 1526 Q246 1500 240 1456 L72 1456 Q74 1526 110 1581.5 Q146 1637 214.5 1669.5 Q283 1702 379 1702 Q477 1702 546.5 1669.5 Q616 1637 652 1581 Q688 1525 688 1454 Q688 1395 662.5 1348 Q637 1301 588 1272 L588 1270 Q646 1236 675.5 1184.5 Q705 1133 705 1067 Q705 993 667 934 Q629 875 555 841 Q481 807 379 807 Q277 807 204 840.5 Q131 874 93.5 932.5 Q56 991 55 1065 L225 1065 Q230 1016 270 987 Q310 958 379 958 Q450 958 492.5 990 Q535 1022 535 1077 Q535 1130 495.5 1163 Q456 1196 383 1196 L272 1196 L272 1331 L383 1331 Z " />
<glyph glyph-name="four.sups" unicode="&#x2074;" horiz-adv-x="770" d="M756 999 L606 999 L606 821 L436 821 L436 999 L20 999 L20 1112 L430 1688 L606 1688 L606 1139 L756 1139 L756 999 Z M436 1139 L436 1473 L432 1473 L197 1139 L436 1139 Z " />
<glyph glyph-name="percent" unicode="&#x25;" horiz-adv-x="1903" d="M86 1102 Q86 1293 163 1413.5 Q240 1534 426 1534 Q762 1534 762 1102 Q762 670 426 670 Q240 670 163 790.5 Q86 911 86 1102 Z M621 0 L436 0 L1284 1511 L1466 1511 L621 0 Z M586 1102 Q586 1231 552.5 1307.5 Q519 1384 426 1384 Q331 1384 297.5 1307.5 Q264 1231 264 1102 Q264 972 297.5 895.5 Q331 819 426 819 Q519 819 552.5 896 Q586 973 586 1102 Z M1817 410 Q1817 -23 1479 -23 Q1141 -23 1141 410 Q1141 842 1479 842 Q1817 842 1817 410 Z M1319 410 Q1319 279 1351.5 203 Q1384 127 1479 127 Q1574 127 1606 203 Q1638 279 1638 410 Q1638 540 1605.5 616 Q1573 692 1479 692 Q1384 692 1351.5 616 Q1319 540 1319 410 Z " />
<glyph glyph-name="perthousand" unicode="&#x2030;" horiz-adv-x="2716" d="M86 1102 Q86 1293 163 1413.5 Q240 1534 426 1534 Q762 1534 762 1102 Q762 670 426 670 Q240 670 163 790.5 Q86 911 86 1102 Z M621 0 L436 0 L1284 1511 L1466 1511 L621 0 Z M586 1102 Q586 1231 552.5 1307.5 Q519 1384 426 1384 Q331 1384 297.5 1307.5 Q264 1231 264 1102 Q264 972 297.5 895.5 Q331 819 426 819 Q519 819 552.5 896 Q586 973 586 1102 Z M1817 410 Q1817 -23 1479 -23 Q1141 -23 1141 410 Q1141 842 1479 842 Q1817 842 1817 410 Z M1954 410 Q1954 842 2292 842 Q2630 842 2630 410 Q2630 -23 2292 -23 Q1954 -23 1954 410 Z M1319 410 Q1319 279 1351.5 203 Q1384 127 1479 127 Q1574 127 1606 203 Q1638 279 1638 410 Q1638 540 1605.5 616 Q1573 692 1479 692 Q1384 692 1351.5 616 Q1319 540 1319 410 Z M2451 410 Q2451 540 2418.5 616 Q2386 692 2292 692 Q2197 692 2164.5 616 Q2132 540 2132 410 Q2132 279 2164.5 203 Q2197 127 2292 127 Q2387 127 2419 203 Q2451 279 2451 410 Z " />
<glyph glyph-name="plus" unicode="&#x2b;" horiz-adv-x="1282" d="M160 612 L160 811 L541 811 L541 1200 L741 1200 L741 811 L1122 811 L1122 612 L741 612 L741 223 L541 223 L541 612 L160 612 Z " />
<glyph glyph-name="minus" unicode="&#x2212;" horiz-adv-x="1282" d="M1122 811 L1122 612 L160 612 L160 811 L1122 811 Z " />
<glyph glyph-name="plusminus" unicode="&#xb1;" horiz-adv-x="1282" d="M190 793 L190 993 L541 993 L541 1319 L741 1319 L741 993 L1092 993 L1092 793 L741 793 L741 467 L541 467 L541 793 L190 793 Z M1092 319 L1092 119 L190 119 L190 319 L1092 319 Z " />
<glyph glyph-name="multiply" unicode="&#xd7;" horiz-adv-x="1282" d="M641 580 L350 291 L221 422 L510 711 L221 999 L350 1130 L641 842 L930 1130 L1061 999 L770 711 L1061 422 L930 291 L641 580 Z " />
<glyph glyph-name="divide" unicode="&#xf7;" horiz-adv-x="1282" d="M756 1257 L756 1016 L524 1016 L524 1257 L756 1257 Z M1122 811 L1122 612 L160 612 L160 811 L1122 811 Z M756 408 L756 166 L524 166 L524 408 L756 408 Z " />
<glyph glyph-name="equal" unicode="&#x3d;" horiz-adv-x="1282" d="M1122 1026 L1122 831 L160 831 L160 1026 L1122 1026 Z M1122 592 L1122 397 L160 397 L160 592 L1122 592 Z " />
<glyph glyph-name="notequal" unicode="&#x2260;" horiz-adv-x="1282" d="M807 831 L639 592 L1122 592 L1122 397 L504 397 L313 125 L205 205 L338 397 L160 397 L160 592 L473 592 L641 831 L160 831 L160 1026 L776 1026 L967 1300 L1077 1219 L942 1026 L1122 1026 L1122 831 L807 831 Z " />
<glyph glyph-name="approxequal" unicode="&#x2248;" horiz-adv-x="1282" d="M870 768 Q810 768 757 784 Q704 800 625 834 Q554 866 509.5 880.5 Q465 895 420 895 Q372 895 341.5 867 Q311 839 289 768 L141 819 Q206 1077 410 1077 Q469 1077 522 1061 Q575 1045 653 1012 Q721 981 767.5 965.5 Q814 950 858 950 Q908 950 939 977.5 Q970 1005 993 1075 L1139 1024 Q1106 896 1037 832 Q968 768 870 768 Z M870 346 Q810 346 756 362.5 Q702 379 625 414 Q560 444 513 458.5 Q466 473 420 473 Q371 473 341 446 Q311 419 289 348 L141 401 Q174 530 242 593.5 Q310 657 410 657 Q469 657 523.5 640.5 Q578 624 653 590 Q724 559 769 544.5 Q814 530 858 530 Q908 530 939 557 Q970 584 993 655 L1139 604 Q1106 474 1037.5 410 Q969 346 870 346 Z " />
<glyph glyph-name="less" unicode="&#x3c;" horiz-adv-x="1282" d="M1137 1204 L1137 991 L422 715 L422 711 L1137 432 L1137 221 L145 635 L145 791 L1137 1204 Z " />
<glyph glyph-name="greater" unicode="&#x3e;" horiz-adv-x="1282" d="M145 221 L145 434 L860 710 L860 714 L145 993 L145 1204 L1137 790 L1137 634 L145 221 Z " />
<glyph glyph-name="lessequal" unicode="&#x2264;" horiz-adv-x="1282" d="M1137 1343 L1137 1130 L422 854 L422 850 L1137 571 L1137 360 L145 774 L145 930 L1137 1343 Z M1137 193 L1137 0 L145 0 L145 193 L1137 193 Z " />
<glyph glyph-name="greaterequal" unicode="&#x2265;" horiz-adv-x="1282" d="M145 361 L145 574 L860 850 L860 854 L145 1133 L145 1344 L1137 930 L1137 774 L145 361 Z M145 0 L145 193 L1137 193 L1137 0 L145 0 Z " />
<glyph glyph-name="logicalnot" unicode="&#xac;" horiz-adv-x="1282" d="M1120 811 L1120 223 L922 223 L922 612 L160 612 L160 811 L1120 811 Z " />
<glyph glyph-name="numbersign" unicode="&#x23;" horiz-adv-x="1282" d="M981 895 L905 616 L1116 616 L1067 432 L856 432 L741 0 L547 0 L662 432 L444 432 L330 0 L137 0 L252 432 L41 432 L90 616 L301 616 L377 895 L166 895 L215 1079 L426 1079 L541 1511 L733 1511 L618 1079 L836 1079 L950 1511 L1145 1511 L1030 1079 L1239 1079 L1190 895 L981 895 Z M786 895 L569 895 L494 616 L711 616 L786 895 Z " />
<glyph glyph-name="uni0410" unicode="&#x410;" horiz-adv-x="1442" d="M1044 336 L389 336 L260 0 L4 0 L610 1511 L836 1511 L1438 0 L1174 0 L1044 336 Z M956 559 L719 1176 L715 1176 L477 559 L956 559 Z " />
<glyph glyph-name="uni0411" unicode="&#x411;" horiz-adv-x="1446" d="M154 1511 L1251 1511 L1251 1284 L401 1284 L401 913 L879 913 Q1019 913 1132 860 Q1245 807 1310.5 704.5 Q1376 602 1376 461 Q1376 320 1310.5 215.5 Q1245 111 1130.5 55.5 Q1016 0 872 0 L154 0 L154 1511 Z M858 227 Q979 227 1051.5 286 Q1124 345 1124 457 Q1124 567 1050 626.5 Q976 686 856 686 L401 686 L401 227 L858 227 Z " />
<glyph glyph-name="uni0412" unicode="&#x412;" horiz-adv-x="1419" d="M1358 420 Q1358 291 1291.5 196 Q1225 101 1109 50.5 Q993 0 848 0 L154 0 L154 1511 L852 1511 Q993 1511 1099.5 1463.5 Q1206 1416 1264.5 1327.5 Q1323 1239 1323 1120 Q1323 1005 1261.5 914.5 Q1200 824 1096 778 L1096 776 Q1217 739 1287.5 645.5 Q1358 552 1358 420 Z M401 1284 L401 866 L815 866 Q890 866 948.5 891.5 Q1007 917 1040 965 Q1073 1013 1073 1079 Q1073 1177 1005 1230.5 Q937 1284 825 1284 L401 1284 Z M1108 442 Q1108 543 1036.5 598 Q965 653 846 653 L401 653 L401 227 L848 227 Q923 227 981.5 252 Q1040 277 1074 325 Q1108 373 1108 442 Z " />
<glyph glyph-name="uni0413" unicode="&#x413;" horiz-adv-x="1171" d="M154 1511 L1120 1511 L1120 1282 L403 1282 L403 0 L154 0 L154 1511 Z " />
<glyph glyph-name="uni0403" unicode="&#x403;" horiz-adv-x="1171" d="M154 1511 L1120 1511 L1120 1282 L403 1282 L403 0 L154 0 L154 1511 Z M512 1590 L693 1909 L926 1909 L701 1590 L512 1590 Z " />
<glyph glyph-name="uni0490" unicode="&#x490;" horiz-adv-x="1171" d="M154 1511 L887 1511 L887 1819 L1120 1819 L1120 1284 L403 1284 L403 0 L154 0 L154 1511 Z " />
<glyph glyph-name="uni0414" unicode="&#x414;" horiz-adv-x="1614" d="M1579 223 L1579 -307 L1348 -307 L1348 0 L262 0 L262 -307 L31 -307 L31 223 L167 223 Q253 338 301 468.5 Q349 599 368 744 Q387 889 387 1071 L387 1511 L1366 1511 L1366 223 L1579 223 Z M1116 1286 L627 1286 L627 1071 Q627 801 582.5 598 Q538 395 424 223 L1116 223 L1116 1286 Z " />
<glyph glyph-name="uni0415" unicode="&#x415;" horiz-adv-x="1315" d="M154 1511 L1212 1511 L1212 1284 L401 1284 L401 877 L1165 877 L1165 651 L401 651 L401 227 L1219 227 L1219 0 L154 0 L154 1511 Z " />
<glyph glyph-name="uni0401" unicode="&#x401;" horiz-adv-x="1315" d="M154 1511 L1212 1511 L1212 1284 L401 1284 L401 877 L1165 877 L1165 651 L401 651 L401 227 L1219 227 L1219 0 L154 0 L154 1511 Z M598 1864 L598 1635 L379 1635 L379 1864 L598 1864 Z M1008 1864 L1008 1635 L789 1635 L789 1864 L1008 1864 Z " />
<glyph glyph-name="uni0416" unicode="&#x416;" horiz-adv-x="1962" d="M1245 657 L1100 657 L1100 0 L854 0 L854 657 L705 657 L289 0 L8 0 L500 764 L12 1511 L301 1511 L711 868 L854 868 L854 1511 L1100 1511 L1100 868 L1247 868 L1653 1511 L1933 1511 L1454 768 L1954 0 L1665 0 L1245 657 Z " />
<glyph glyph-name="uni0417" unicode="&#x417;" horiz-adv-x="1368" d="M739 872 Q827 872 889.5 899.5 Q952 927 985 976.5 Q1018 1026 1018 1090 Q1018 1193 932 1252 Q846 1311 684 1311 Q526 1311 439 1255 Q352 1199 346 1104 L90 1104 Q94 1229 160.5 1326 Q227 1423 359 1478.5 Q491 1534 682 1534 Q872 1534 1004.5 1480.5 Q1137 1427 1204.5 1331.5 Q1272 1236 1272 1110 Q1272 999 1215 912 Q1158 825 1053 774 L1053 772 Q1175 722 1241 631.5 Q1307 541 1307 416 Q1307 287 1236.5 188 Q1166 89 1025 33 Q884 -23 680 -23 Q476 -23 336.5 33.5 Q197 90 127 190 Q57 290 55 420 L311 420 Q321 318 415.5 259.5 Q510 201 684 201 Q865 201 959 263 Q1053 325 1053 436 Q1053 503 1017.5 554 Q982 605 913 633.5 Q844 662 748 662 L446 662 L446 872 L739 872 Z " />
<glyph glyph-name="uni0418" unicode="&#x418;" horiz-adv-x="1556" d="M1403 1511 L1403 0 L1153 0 L1153 1137 L1149 1137 L381 0 L154 0 L154 1511 L403 1511 L403 418 L408 418 L1145 1511 L1403 1511 Z " />
<glyph glyph-name="uni0419" unicode="&#x419;" horiz-adv-x="1556" d="M1403 1511 L1403 0 L1153 0 L1153 1137 L1149 1137 L381 0 L154 0 L154 1511 L403 1511 L403 418 L408 418 L1145 1511 L1403 1511 Z M778 1567 Q670 1567 585.5 1608.5 Q501 1650 451 1724 Q401 1798 391 1893 L598 1893 Q613 1813 657.5 1770 Q702 1727 778 1727 Q855 1727 899.5 1770.5 Q944 1814 957 1893 L1165 1893 Q1156 1798 1106 1724 Q1056 1650 971.5 1608.5 Q887 1567 778 1567 Z " />
<glyph glyph-name="uni041A" unicode="&#x41a;" horiz-adv-x="1370" d="M655 651 L403 651 L403 0 L154 0 L154 1511 L403 1511 L403 874 L655 874 L1059 1511 L1339 1511 L860 768 L1362 0 L1073 0 L655 651 Z " />
<glyph glyph-name="uni040C" unicode="&#x40c;" horiz-adv-x="1370" d="M655 651 L403 651 L403 0 L154 0 L154 1511 L403 1511 L403 874 L655 874 L1059 1511 L1339 1511 L860 768 L1362 0 L1073 0 L655 651 Z M553 1590 L734 1909 L967 1909 L742 1590 L553 1590 Z " />
<glyph glyph-name="uni041B" unicode="&#x41b;" horiz-adv-x="1499" d="M582 1284 L582 997 Q582 703 542.5 486 Q503 269 392.5 134.5 Q282 0 82 0 L31 0 L31 227 L57 227 Q176 227 237 333 Q298 439 317 601.5 Q336 764 336 993 L336 1511 L1346 1511 L1346 0 L1096 0 L1096 1284 L582 1284 Z " />
<glyph glyph-name="uni041C" unicode="&#x41c;" horiz-adv-x="1866" d="M481 1511 L930 326 L934 326 L1384 1511 L1712 1511 L1712 0 L1464 0 L1464 1122 L1460 1122 L1028 0 L829 0 L399 1118 L395 1118 L395 0 L154 0 L154 1511 L481 1511 Z " />
<glyph glyph-name="uni041D" unicode="&#x41d;" horiz-adv-x="1540" d="M154 1511 L403 1511 L403 877 L1137 877 L1137 1511 L1386 1511 L1386 0 L1137 0 L1137 649 L403 649 L403 0 L154 0 L154 1511 Z " />
<glyph glyph-name="uni041E" unicode="&#x41e;" horiz-adv-x="1610" d="M80 756 Q80 973 167.5 1150 Q255 1327 419.5 1430.5 Q584 1534 805 1534 Q1026 1534 1190.5 1430.5 Q1355 1327 1442.5 1150 Q1530 973 1530 756 Q1530 538 1441.5 360.5 Q1353 183 1188.5 80 Q1024 -23 805 -23 Q585 -23 420.5 80 Q256 183 168 360.5 Q80 538 80 756 Z M1276 756 Q1276 910 1221 1034 Q1166 1158 1059.5 1230.5 Q953 1303 805 1303 Q657 1303 550.5 1230.5 Q444 1158 389 1034 Q334 910 334 756 Q334 603 388.5 478.5 Q443 354 549.5 281.5 Q656 209 805 209 Q954 209 1060.5 281.5 Q1167 354 1221.5 478.5 Q1276 603 1276 756 Z " />
<glyph glyph-name="uni041F" unicode="&#x41f;" horiz-adv-x="1505" d="M1352 1511 L1352 0 L1102 0 L1102 1284 L403 1284 L403 0 L154 0 L154 1511 L1352 1511 Z " />
<glyph glyph-name="uni0420" unicode="&#x420;" horiz-adv-x="1407" d="M1352 1020 Q1352 868 1280.5 755.5 Q1209 643 1085 582.5 Q961 522 807 522 L403 522 L403 0 L154 0 L154 1511 L811 1511 Q963 1511 1086 1452.5 Q1209 1394 1280.5 1283 Q1352 1172 1352 1020 Z M1100 1016 Q1100 1103 1060 1163 Q1020 1223 949.5 1253.5 Q879 1284 788 1284 L403 1284 L403 750 L788 750 Q930 750 1015 819 Q1100 888 1100 1016 Z " />
<glyph glyph-name="uni0421" unicode="&#x421;" horiz-adv-x="1489" d="M788 -23 Q572 -23 411.5 78.5 Q251 180 165.5 356.5 Q80 533 80 752 Q80 972 166.5 1150 Q253 1328 414.5 1431 Q576 1534 793 1534 Q965 1534 1099.5 1468 Q1234 1402 1319 1283 Q1404 1164 1432 1008 L1182 1008 Q1145 1147 1042 1225 Q939 1303 793 1303 Q648 1303 544.5 1231 Q441 1159 387.5 1035.5 Q334 912 334 760 Q334 604 388.5 479 Q443 354 546.5 281.5 Q650 209 791 209 Q889 209 970.5 245 Q1052 281 1108 348 Q1164 415 1186 506 L1434 506 Q1406 348 1319.5 228.5 Q1233 109 1097 43 Q961 -23 788 -23 Z " />
<glyph glyph-name="uni0422" unicode="&#x422;" horiz-adv-x="1364" d="M557 1280 L51 1280 L51 1511 L1313 1511 L1313 1280 L807 1280 L807 0 L557 0 L557 1280 Z " />
<glyph glyph-name="uni0423" unicode="&#x423;" horiz-adv-x="1305" d="M1303 1511 L862 528 Q818 430 765.5 356.5 Q713 283 635 205 L406 -25 L231 150 L471 387 Q524 444 549 473 L2 1511 L276 1511 L686 715 L688 715 L1034 1507 L1303 1511 Z " />
<glyph glyph-name="uni040E" unicode="&#x40e;" horiz-adv-x="1305" d="M1303 1511 L862 528 Q818 430 765.5 356.5 Q713 283 635 205 L406 -25 L231 150 L471 387 Q524 444 549 473 L2 1511 L276 1511 L686 715 L688 715 L1034 1507 L1303 1511 Z M664 1567 Q556 1567 471.5 1608.5 Q387 1650 337 1724 Q287 1798 277 1893 L484 1893 Q499 1813 543.5 1770 Q588 1727 664 1727 Q741 1727 785.5 1770.5 Q830 1814 843 1893 L1051 1893 Q1042 1798 992 1724 Q942 1650 857.5 1608.5 Q773 1567 664 1567 Z " />
<glyph glyph-name="uni0424" unicode="&#x424;" horiz-adv-x="1923" d="M1851 762 Q1851 585 1778.5 444.5 Q1706 304 1566 223.5 Q1426 143 1233 143 L1085 143 L1085 -72 L840 -72 L840 143 L700 143 Q493 143 352.5 225.5 Q212 308 143 447 Q74 586 74 756 Q74 932 146.5 1072 Q219 1212 358.5 1292 Q498 1372 690 1372 L840 1372 L840 1583 L1085 1583 L1085 1372 L1223 1372 Q1430 1372 1571 1289.5 Q1712 1207 1781.5 1068.5 Q1851 930 1851 762 Z M840 356 L840 1159 L702 1159 Q583 1159 497 1113 Q411 1067 365 977 Q319 887 319 760 Q319 630 367.5 539.5 Q416 449 504 402.5 Q592 356 711 356 L840 356 Z M1602 756 Q1602 887 1554 977.5 Q1506 1068 1418 1113.5 Q1330 1159 1210 1159 L1085 1159 L1085 356 L1219 356 Q1339 356 1425 402.5 Q1511 449 1556.5 538.5 Q1602 628 1602 756 Z " />
<glyph glyph-name="uni0425" unicode="&#x425;" horiz-adv-x="1354" d="M676 606 L674 606 L281 0 L8 0 L514 766 L25 1511 L305 1511 L672 942 L674 942 L1047 1511 L1319 1511 L834 782 L1346 0 L1065 0 L676 606 Z " />
<glyph glyph-name="uni0427" unicode="&#x427;" horiz-adv-x="1427" d="M647 535 Q104 535 104 1014 L104 1511 L354 1511 L354 1049 Q354 947 387.5 884.5 Q421 822 494 792 Q567 762 688 762 Q769 762 862 772.5 Q955 783 1024 799 L1024 1511 L1274 1511 L1274 0 L1024 0 L1024 580 Q946 560 845.5 547.5 Q745 535 647 535 Z " />
<glyph glyph-name="uni0426" unicode="&#x426;" horiz-adv-x="1569" d="M154 0 L154 1511 L403 1511 L403 227 L1071 227 L1071 1511 L1321 1511 L1321 227 L1534 227 L1534 -307 L1303 -307 L1303 0 L154 0 Z " />
<glyph glyph-name="uni0428" unicode="&#x428;" horiz-adv-x="2118" d="M154 1511 L403 1511 L403 227 L934 227 L934 1511 L1184 1511 L1184 227 L1714 227 L1714 1511 L1964 1511 L1964 0 L154 0 L154 1511 Z " />
<glyph glyph-name="uni0429" unicode="&#x429;" horiz-adv-x="2208" d="M2173 227 L2173 -307 L1942 -307 L1942 0 L154 0 L154 1511 L403 1511 L403 227 L932 227 L932 1511 L1182 1511 L1182 227 L1710 227 L1710 1511 L1960 1511 L1960 227 L2173 227 Z " />
<glyph glyph-name="uni040F" unicode="&#x40f;" horiz-adv-x="1489" d="M629 0 L154 0 L154 1511 L403 1511 L403 227 L1085 227 L1085 1511 L1335 1511 L1335 0 L860 0 L860 -319 L629 -319 L629 0 Z " />
<glyph glyph-name="uni042C" unicode="&#x42c;" horiz-adv-x="1399" d="M154 1511 L403 1511 L403 977 L811 977 Q960 977 1081 919.5 Q1202 862 1272.5 752.5 Q1343 643 1343 492 Q1343 342 1273 230.5 Q1203 119 1080.5 59.5 Q958 0 805 0 L154 0 L154 1511 Z M786 227 Q924 227 1007 293.5 Q1090 360 1090 487 Q1090 572 1051 631.5 Q1012 691 943.5 720.5 Q875 750 786 750 L403 750 L403 227 L786 227 Z " />
<glyph glyph-name="uni042A" unicode="&#x42a;" horiz-adv-x="1686" d="M1630 492 Q1630 342 1559.5 230.5 Q1489 119 1366 59.5 Q1243 0 1090 0 L457 0 L457 1284 L68 1284 L68 1511 L705 1511 L705 977 L1096 977 Q1245 977 1366.5 919.5 Q1488 862 1559 752.5 Q1630 643 1630 492 Z M1376 487 Q1376 572 1337 631 Q1298 690 1229.5 720 Q1161 750 1073 750 L705 750 L705 227 L1073 227 Q1210 227 1293 294 Q1376 361 1376 487 Z " />
<glyph glyph-name="uni042B" unicode="&#x42b;" horiz-adv-x="1812" d="M154 1511 L403 1511 L403 977 L754 977 Q904 977 1025 920 Q1146 863 1216 753 Q1286 643 1286 492 Q1286 342 1216 230.5 Q1146 119 1023.5 59.5 Q901 0 748 0 L154 0 L154 1511 Z M1659 1511 L1659 0 L1409 0 L1409 1511 L1659 1511 Z M731 227 Q868 227 951 294 Q1034 361 1034 487 Q1034 572 995 631 Q956 690 887.5 720 Q819 750 731 750 L403 750 L403 227 L731 227 Z " />
<glyph glyph-name="uni0409" unicode="&#x409;" horiz-adv-x="2296" d="M1075 1284 L582 1284 L582 997 Q582 703 542.5 486 Q503 269 392.5 134.5 Q282 0 82 0 L31 0 L31 227 L57 227 Q176 227 237 333 Q298 439 317 601.5 Q336 764 336 993 L336 1511 L1323 1511 L1323 977 L1708 977 Q1857 977 1978.5 919.5 Q2100 862 2170.5 752.5 Q2241 643 2241 492 Q2241 342 2170.5 230.5 Q2100 119 1977.5 59.5 Q1855 0 1702 0 L1075 0 L1075 1284 Z M1683 227 Q1821 227 1904 293.5 Q1987 360 1987 487 Q1987 572 1948 631.5 Q1909 691 1840.5 720.5 Q1772 750 1683 750 L1323 750 L1323 227 L1683 227 Z " />
<glyph glyph-name="uni040A" unicode="&#x40a;" horiz-adv-x="2329" d="M1108 702 L403 702 L403 0 L154 0 L154 1511 L403 1511 L403 930 L1108 930 L1108 1511 L1356 1511 L1356 930 L1765 930 Q1908 930 2023.5 875.5 Q2139 821 2206 716 Q2273 611 2273 467 Q2273 324 2206 218 Q2139 112 2022.5 56 Q1906 0 1761 0 L1108 0 L1108 702 Z M1743 227 Q1868 227 1943.5 288.5 Q2019 350 2019 465 Q2019 580 1942.5 641 Q1866 702 1743 702 L1356 702 L1356 227 L1743 227 Z " />
<glyph glyph-name="uni0405" unicode="&#x405;" horiz-adv-x="1323" d="M662 199 Q763 199 838.5 226 Q914 253 954.5 303.5 Q995 354 995 422 Q995 486 959.5 526 Q924 566 843.5 596 Q763 626 610 659 Q450 694 345.5 737 Q241 780 176 862.5 Q111 945 111 1081 Q111 1213 177.5 1316 Q244 1419 368 1476.5 Q492 1534 659 1534 Q826 1534 950 1479 Q1074 1424 1141.5 1323.5 Q1209 1223 1212 1090 L963 1090 Q963 1195 884 1254 Q805 1313 662 1313 Q521 1313 444 1257 Q367 1201 365 1106 Q365 1041 405.5 1001 Q446 961 523 935.5 Q600 910 741 881 Q907 846 1017 796.5 Q1127 747 1189 663 Q1251 579 1251 449 Q1251 309 1177 202 Q1103 95 968.5 36 Q834 -23 657 -23 Q475 -23 340.5 37 Q206 97 134 206 Q62 315 61 459 L309 459 Q309 335 401.5 267 Q494 199 662 199 Z " />
<glyph glyph-name="uni0404" unicode="&#x404;" horiz-adv-x="1499" d="M338 651 Q355 518 412.5 419 Q470 320 567 265.5 Q664 211 795 211 Q945 211 1047.5 284.5 Q1150 358 1190 492 L1444 492 Q1411 338 1324.5 223 Q1238 108 1102.5 44 Q967 -20 791 -20 Q570 -20 409.5 79 Q249 178 164.5 353 Q80 528 80 754 Q80 980 165 1157.5 Q250 1335 411.5 1435.5 Q573 1536 795 1536 Q968 1536 1102.5 1472.5 Q1237 1409 1323 1293 Q1409 1177 1442 1022 L1190 1022 Q1150 1156 1047 1230.5 Q944 1305 793 1305 Q663 1305 567 1251 Q471 1197 414 1100 Q357 1003 340 874 L999 874 L999 651 L338 651 Z " />
<glyph glyph-name="uni042D" unicode="&#x42d;" horiz-adv-x="1507" d="M1427 758 Q1427 529 1343 353 Q1259 177 1097.5 78.5 Q936 -20 713 -20 Q535 -20 399 42.5 Q263 105 176 220 Q89 335 55 492 L311 492 Q352 358 453 284.5 Q554 211 711 211 Q845 211 942.5 265.5 Q1040 320 1097 419 Q1154 518 1169 651 L508 651 L508 874 L1167 874 Q1150 1005 1092 1102 Q1034 1199 937 1252 Q840 1305 709 1305 Q557 1305 456 1232 Q355 1159 311 1022 L57 1022 Q91 1176 176.5 1291.5 Q262 1407 398.5 1471.5 Q535 1536 717 1536 Q938 1536 1098.5 1437 Q1259 1338 1343 1162 Q1427 986 1427 758 Z " />
<glyph glyph-name="uni0406" unicode="&#x406;" horiz-adv-x="557" d="M154 1511 L403 1511 L403 0 L154 0 L154 1511 Z " />
<glyph glyph-name="uni0407" unicode="&#x407;" horiz-adv-x="557" d="M205 1866 L205 1634 L-14 1634 L-14 1866 L205 1866 Z M571 1866 L571 1634 L352 1634 L352 1866 L571 1866 Z M154 1511 L403 1511 L403 0 L154 0 L154 1511 Z " />
<glyph glyph-name="uni0408" unicode="&#x408;" horiz-adv-x="1165" d="M1020 449 Q1020 307 963 200.5 Q906 94 796 35.5 Q686 -23 532 -23 Q384 -23 275.5 34 Q167 91 109 196 Q51 301 49 442 L291 442 Q293 337 353.5 272.5 Q414 208 528 207 Q645 208 707.5 272.5 Q770 337 770 444 L770 1511 L1020 1511 L1020 449 Z " />
<glyph glyph-name="uni040B" unicode="&#x40b;" horiz-adv-x="1704" d="M485 1284 L68 1284 L68 1511 L1368 1511 L1368 1284 L735 1284 L735 879 Q808 895 906 906.5 Q1004 918 1092 918 Q1347 918 1473 803.5 Q1599 689 1599 471 L1599 0 L1350 0 L1350 430 Q1350 522 1319 579 Q1288 636 1221 663 Q1154 690 1044 690 Q968 690 884 681 Q800 672 735 657 L735 0 L485 0 L485 1284 Z " />
<glyph glyph-name="uni042E" unicode="&#x42e;" horiz-adv-x="2154" d="M2075 756 Q2075 533 1991.5 356 Q1908 179 1748 78 Q1588 -23 1368 -23 Q1167 -23 1015.5 62.5 Q864 148 776 300.5 Q688 453 668 651 L403 651 L403 0 L154 0 L154 1511 L403 1511 L403 874 L670 874 Q692 1068 780.5 1217 Q869 1366 1019 1450 Q1169 1534 1368 1534 Q1588 1534 1748 1434 Q1908 1334 1991.5 1157.5 Q2075 981 2075 756 Z M1823 756 Q1823 914 1771.5 1038 Q1720 1162 1617.5 1232.5 Q1515 1303 1368 1303 Q1222 1303 1120 1232.5 Q1018 1162 966.5 1038.5 Q915 915 915 756 Q915 597 966.5 473.5 Q1018 350 1120 279.5 Q1222 209 1368 209 Q1514 209 1616.5 279.5 Q1719 350 1771 473.5 Q1823 597 1823 756 Z " />
<glyph glyph-name="uni042F" unicode="&#x42f;" horiz-adv-x="1425" d="M408 596 Q256 645 168 760 Q80 875 80 1042 Q80 1188 148 1294 Q216 1400 335 1455.5 Q454 1511 606 1511 L1272 1511 L1272 0 L1022 0 L1022 555 L651 555 L326 0 L53 0 L408 596 Z M631 1284 Q498 1284 416 1219.5 Q334 1155 334 1032 Q334 949 372.5 892 Q411 835 478.5 806.5 Q546 778 633 778 L1024 778 L1024 1284 L631 1284 Z " />
<glyph glyph-name="uni0402" unicode="&#x402;" horiz-adv-x="1704" d="M487 1284 L68 1284 L68 1511 L1372 1511 L1372 1284 L735 1284 L735 885 Q812 900 902 910 Q992 920 1075 920 Q1257 920 1382 865.5 Q1507 811 1570.5 709 Q1634 607 1634 465 Q1634 318 1568 213.5 Q1502 109 1379.5 54.5 Q1257 0 1090 0 L932 0 L932 223 L1081 223 Q1231 223 1305.5 283.5 Q1380 344 1380 457 Q1380 575 1295.5 633.5 Q1211 692 1030 692 Q961 692 879.5 684 Q798 676 735 664 L735 0 L487 0 L487 1284 Z " />
<glyph glyph-name="uni0462" unicode="&#x462;" horiz-adv-x="1591" d="M336 1141 L68 1141 L68 1348 L336 1348 L336 1511 L584 1511 L584 1348 L1145 1348 L1145 1141 L584 1141 L584 913 L1022 913 Q1163 913 1276.5 860 Q1390 807 1456 704.5 Q1522 602 1522 461 Q1522 320 1456 215.5 Q1390 111 1275 55.5 Q1160 0 1016 0 L336 0 L336 1141 Z M1004 227 Q1125 227 1197.5 286 Q1270 345 1270 457 Q1270 567 1195.5 626.5 Q1121 686 1001 686 L584 686 L584 227 L1004 227 Z " />
<glyph glyph-name="uni0472" unicode="&#x472;" horiz-adv-x="1610" d="M1530 756 Q1530 529 1445 352.5 Q1360 176 1196.5 76.5 Q1033 -23 805 -23 Q577 -23 413.5 76 Q250 175 165 351 Q80 527 80 756 Q80 983 165 1159 Q250 1335 413.5 1434.5 Q577 1534 805 1534 Q1033 1534 1196.5 1435.5 Q1360 1337 1445 1160.5 Q1530 984 1530 756 Z M336 870 L1272 870 Q1255 1001 1197.5 1099 Q1140 1197 1041 1251 Q942 1305 805 1305 Q601 1305 482 1188.5 Q363 1072 336 870 Z M1274 651 L336 651 Q360 445 479 326 Q598 207 805 207 Q943 207 1043 262 Q1143 317 1200.5 416.5 Q1258 516 1274 651 Z " />
<glyph glyph-name="uni0474" unicode="&#x474;" horiz-adv-x="1505" d="M676 375 L680 375 L899 1090 Q945 1243 1002 1332.5 Q1059 1422 1152.5 1466.5 Q1246 1511 1397 1511 L1454 1511 L1452 1280 L1415 1280 Q1328 1280 1279.5 1258 Q1231 1236 1197 1178 Q1163 1120 1126 1001 L809 0 L559 0 L2 1511 L268 1511 L676 375 Z " />
<glyph glyph-name="uni04C0" unicode="&#x4c0;" horiz-adv-x="557" d="M154 1511 L403 1511 L403 0 L154 0 L154 1511 Z " />
<glyph glyph-name="uni04E2" unicode="&#x4e2;" horiz-adv-x="1556" d="M1403 1511 L1403 0 L1153 0 L1153 1137 L1149 1137 L381 0 L154 0 L154 1511 L403 1511 L403 418 L408 418 L1145 1511 L1403 1511 Z M1064 1830 L1064 1672 L483 1672 L483 1830 L1064 1830 Z " />
<glyph glyph-name="uni04E8" unicode="&#x4e8;" horiz-adv-x="1610" d="M1530 756 Q1530 529 1445 352.5 Q1360 176 1196.5 76.5 Q1033 -23 805 -23 Q577 -23 413.5 76 Q250 175 165 351 Q80 527 80 756 Q80 983 165 1159 Q250 1335 413.5 1434.5 Q577 1534 805 1534 Q1033 1534 1196.5 1435.5 Q1360 1337 1445 1160.5 Q1530 984 1530 756 Z M336 870 L1272 870 Q1255 1001 1197.5 1099 Q1140 1197 1041 1251 Q942 1305 805 1305 Q601 1305 482 1188.5 Q363 1072 336 870 Z M1274 651 L336 651 Q360 445 479 326 Q598 207 805 207 Q943 207 1043 262 Q1143 317 1200.5 416.5 Q1258 516 1274 651 Z " />
<glyph glyph-name="uni04EE" unicode="&#x4ee;" horiz-adv-x="1305" d="M1303 1511 L862 528 Q818 430 765.5 356.5 Q713 283 635 205 L406 -25 L231 150 L471 387 Q524 444 549 473 L2 1511 L276 1511 L686 715 L688 715 L1034 1507 L1303 1511 Z M950 1830 L950 1672 L369 1672 L369 1830 L950 1830 Z " />
<glyph glyph-name="uni0430" unicode="&#x430;" horiz-adv-x="1120" d="M754 119 L750 119 Q694 51 615 14 Q536 -23 436 -23 Q326 -23 245.5 17.5 Q165 58 122.5 130.5 Q80 203 80 295 Q80 448 197 524 Q257 565 334 586.5 Q411 608 541 631 Q638 649 677 659.5 Q716 670 733 688.5 Q750 707 750 743 Q750 808 697 848.5 Q644 889 541 889 Q440 889 388.5 849.5 Q337 810 332 741 L106 741 Q112 852 169 931 Q226 1010 324 1051 Q422 1092 551 1092 Q689 1092 785.5 1047 Q882 1002 931.5 919.5 Q981 837 981 725 L981 0 L754 0 L754 119 Z M561 457 Q474 443 423.5 427.5 Q373 412 345 384.5 Q317 357 317 311 Q317 247 362 210.5 Q407 174 487 174 Q566 174 626 204.5 Q686 235 718 285.5 Q750 336 750 395 L750 510 Q688 478 561 457 Z " />
<glyph glyph-name="uni0431" unicode="&#x431;" horiz-adv-x="1223" d="M719 1229 Q607 1204 549 1188 Q491 1172 449 1151 Q407 1130 373 1096 Q322 1046 295.5 972.5 Q269 899 258 793 L262 793 Q320 903 421.5 968.5 Q523 1034 668 1034 Q812 1034 921.5 967 Q1031 900 1090 782.5 Q1149 665 1149 518 Q1149 366 1085.5 243 Q1022 120 901 48.5 Q780 -23 616 -23 Q365 -23 225.5 151 Q86 325 86 676 Q86 884 131.5 1025 Q177 1166 252 1251 Q302 1308 361.5 1343.5 Q421 1379 483.5 1398.5 Q546 1418 641 1440 Q722 1459 762.5 1474.5 Q803 1490 822 1509.5 Q841 1529 848 1563 L1055 1563 Q1051 1453 1013.5 1389 Q976 1325 907 1290.5 Q838 1256 719 1229 Z M909 512 Q909 605 875 680.5 Q841 756 776 800 Q711 844 621 844 Q531 844 465.5 801 Q400 758 366 683 Q332 608 332 514 Q332 423 365 348 Q398 273 463.5 228.5 Q529 184 621 184 Q711 184 776 227.5 Q841 271 875 345.5 Q909 420 909 512 Z " />
<glyph glyph-name="uni0432" unicode="&#x432;" horiz-adv-x="1122" d="M143 1069 L680 1069 Q785 1069 863.5 1035.5 Q942 1002 985 939.5 Q1028 877 1028 791 Q1028 709 985 645 Q942 581 866 549 L866 547 Q954 520 1003.5 455.5 Q1053 391 1053 299 Q1053 205 1004 137.5 Q955 70 869 35 Q783 0 674 0 L143 0 L143 1069 Z M635 625 Q707 625 752 658 Q797 691 797 752 Q797 815 754 847 Q711 879 641 879 L373 879 L373 625 L635 625 Z M657 188 Q728 188 772.5 221.5 Q817 255 817 319 Q817 382 772.5 414 Q728 446 653 446 L373 446 L373 188 L657 188 Z " />
<glyph glyph-name="uni0433" unicode="&#x433;" horiz-adv-x="915" d="M143 1069 L891 1069 L891 864 L377 864 L377 0 L143 0 L143 1069 Z " />
<glyph glyph-name="uni0453" unicode="&#x453;" horiz-adv-x="915" d="M143 1069 L891 1069 L891 864 L377 864 L377 0 L143 0 L143 1069 Z M377 1184 L558 1503 L791 1503 L566 1184 L377 1184 Z " />
<glyph glyph-name="uni0491" unicode="&#x491;" horiz-adv-x="915" d="M143 1069 L672 1069 L672 1317 L891 1317 L891 864 L379 864 L379 0 L143 0 L143 1069 Z " />
<glyph glyph-name="uni0434" unicode="&#x434;" horiz-adv-x="1253" d="M1219 201 L1219 -256 L1004 -256 L1004 0 L240 0 L240 -256 L25 -256 L25 201 L129 201 Q211 313 242.5 448 Q274 583 274 764 L274 1069 L1057 1069 L1057 201 L1219 201 Z M825 866 L500 866 L500 766 Q500 588 471.5 452.5 Q443 317 369 201 L825 201 L825 866 Z " />
<glyph glyph-name="uni0435" unicode="&#x435;" horiz-adv-x="1143" d="M594 -23 Q433 -23 315.5 48.5 Q198 120 136 245.5 Q74 371 74 530 Q74 693 136 820.5 Q198 948 313 1020 Q428 1092 582 1092 Q731 1092 841.5 1025 Q952 958 1010.5 841.5 Q1069 725 1069 578 Q1069 511 1063 461 L309 461 Q319 379 355 315 Q391 251 452.5 214.5 Q514 178 596 178 Q687 178 749.5 220 Q812 262 834 334 L1063 334 Q1025 163 900.5 70 Q776 -23 594 -23 Z M309 639 L840 639 Q828 757 763.5 824 Q699 891 582 891 Q465 891 395 824 Q325 757 309 639 Z " />
<glyph glyph-name="uni0451" unicode="&#x451;" horiz-adv-x="1143" d="M594 -23 Q433 -23 315.5 48.5 Q198 120 136 245.5 Q74 371 74 530 Q74 693 136 820.5 Q198 948 313 1020 Q428 1092 582 1092 Q731 1092 841.5 1025 Q952 958 1010.5 841.5 Q1069 725 1069 578 Q1069 511 1063 461 L309 461 Q319 379 355 315 Q391 251 452.5 214.5 Q514 178 596 178 Q687 178 749.5 220 Q812 262 834 334 L1063 334 Q1025 163 900.5 70 Q776 -23 594 -23 Z M309 639 L840 639 Q828 757 763.5 824 Q699 891 582 891 Q465 891 395 824 Q325 757 309 639 Z M479 1458 L479 1229 L260 1229 L260 1458 L479 1458 Z M889 1458 L889 1229 L670 1229 L670 1458 L889 1458 Z " />
<glyph glyph-name="uni0436" unicode="&#x436;" horiz-adv-x="1573" d="M999 444 L897 444 L897 0 L670 0 L670 444 L565 444 L293 0 L20 0 L375 539 L20 1069 L299 1069 L571 629 L670 629 L670 1069 L897 1069 L897 629 L999 629 L1268 1069 L1540 1069 L1194 539 L1552 0 L1274 0 L999 444 Z " />
<glyph glyph-name="uni0437" unicode="&#x437;" horiz-adv-x="1030" d="M367 633 L543 633 Q620 633 661 668 Q702 703 702 760 Q702 824 653 858.5 Q604 893 510 893 Q419 893 366.5 858.5 Q314 824 311 768 L72 768 Q75 861 123.5 932.5 Q172 1004 268 1045.5 Q364 1087 506 1087 Q646 1087 744.5 1046.5 Q843 1006 892.5 936 Q942 866 942 776 Q942 700 905 640.5 Q868 581 797 543 L797 541 Q876 501 918.5 439.5 Q961 378 961 297 Q961 205 909 133.5 Q857 62 754.5 22 Q652 -18 506 -18 Q359 -18 259 23 Q159 64 109.5 137 Q60 210 59 305 L299 305 Q302 245 358 209.5 Q414 174 512 174 Q611 174 666 211 Q721 248 721 313 Q721 373 675.5 408.5 Q630 444 549 444 L367 444 L367 633 Z " />
<glyph glyph-name="uni0438" unicode="&#x438;" horiz-adv-x="1243" d="M1100 1069 L1100 0 L868 0 L868 743 L864 743 L358 0 L143 0 L143 1069 L375 1069 L375 365 L379 365 L854 1069 L1100 1069 Z " />
<glyph glyph-name="uni0439" unicode="&#x439;" horiz-adv-x="1243" d="M1100 1069 L1100 0 L868 0 L868 743 L864 743 L358 0 L143 0 L143 1069 L375 1069 L375 365 L379 365 L854 1069 L1100 1069 Z M623 1161 Q515 1161 430.5 1202.5 Q346 1244 296 1318 Q246 1392 236 1487 L443 1487 Q458 1407 502.5 1364 Q547 1321 623 1321 Q700 1321 744.5 1364.5 Q789 1408 802 1487 L1010 1487 Q1001 1392 951 1318 Q901 1244 816.5 1202.5 Q732 1161 623 1161 Z " />
<glyph glyph-name="uni043A" unicode="&#x43a;" horiz-adv-x="1108" d="M535 438 L377 438 L377 0 L143 0 L143 1069 L377 1069 L377 637 L535 637 L799 1069 L1077 1069 L729 539 L1087 0 L807 0 L535 438 Z " />
<glyph glyph-name="uni045C" unicode="&#x45c;" horiz-adv-x="1108" d="M535 438 L377 438 L377 0 L143 0 L143 1069 L377 1069 L377 637 L535 637 L799 1069 L1077 1069 L729 539 L1087 0 L807 0 L535 438 Z M430 1184 L611 1503 L844 1503 L619 1184 L430 1184 Z " />
<glyph glyph-name="uni043B" unicode="&#x43b;" horiz-adv-x="1171" d="M469 864 L469 696 Q469 486 436 334 Q403 182 315 91 Q227 0 72 0 L25 0 L25 203 L49 203 Q131 203 172.5 269 Q214 335 227 439 Q240 543 240 694 L240 1069 L1028 1069 L1028 0 L795 0 L795 864 L469 864 Z " />
<glyph glyph-name="uni043C" unicode="&#x43c;" horiz-adv-x="1466" d="M457 1069 L735 279 L737 279 L1014 1069 L1323 1069 L1323 0 L1096 0 L1096 772 L1092 772 L827 0 L633 0 L369 764 L365 764 L365 0 L143 0 L143 1069 L457 1069 Z " />
<glyph glyph-name="uni043D" unicode="&#x43d;" horiz-adv-x="1225" d="M143 1069 L377 1069 L377 641 L848 641 L848 1069 L1081 1069 L1081 0 L848 0 L848 436 L377 436 L377 0 L143 0 L143 1069 Z " />
<glyph glyph-name="uni043E" unicode="&#x43e;" horiz-adv-x="1214" d="M74 535 Q74 691 138.5 817.5 Q203 944 324 1018 Q445 1092 608 1092 Q770 1092 891 1018 Q1012 944 1076.5 817 Q1141 690 1141 535 Q1141 379 1076.5 252 Q1012 125 891 51 Q770 -23 608 -23 Q445 -23 324 51 Q203 125 138.5 252 Q74 379 74 535 Z M901 535 Q901 634 867 713.5 Q833 793 767 839 Q701 885 608 885 Q516 885 449 839 Q382 793 347.5 713 Q313 633 313 535 Q313 436 347.5 356.5 Q382 277 449 230.5 Q516 184 608 184 Q701 184 767 230 Q833 276 867 356 Q901 436 901 535 Z " />
<glyph glyph-name="uni043F" unicode="&#x43f;" horiz-adv-x="1198" d="M1055 1069 L1055 0 L821 0 L821 864 L377 864 L377 0 L143 0 L143 1069 L1055 1069 Z " />
<glyph glyph-name="uni0440" unicode="&#x440;" horiz-adv-x="1253" d="M143 1069 L369 1069 L369 938 L373 938 Q434 1012 517.5 1052 Q601 1092 700 1092 Q847 1092 955.5 1019.5 Q1064 947 1122 821 Q1180 695 1180 539 Q1180 382 1120 254 Q1060 126 949 51.5 Q838 -23 690 -23 Q596 -23 517.5 10 Q439 43 381 104 L377 104 L377 -360 L143 -360 L143 1069 Z M940 532 Q940 632 907.5 711.5 Q875 791 811 837 Q747 883 655 883 Q563 883 498.5 837 Q434 791 401.5 711.5 Q369 632 369 532 Q369 430 402 351 Q435 272 499 228 Q563 184 655 184 Q746 184 810 229.5 Q874 275 907 353.5 Q940 432 940 532 Z " />
<glyph glyph-name="uni0441" unicode="&#x441;" horiz-adv-x="1116" d="M586 -23 Q430 -23 314 49.5 Q198 122 136 248.5 Q74 375 74 532 Q74 690 136 817.5 Q198 945 315 1018.5 Q432 1092 590 1092 Q717 1092 816 1042.5 Q915 993 976 903.5 Q1037 814 1055 698 L821 698 Q800 786 738.5 835.5 Q677 885 588 885 Q501 885 439 839 Q377 793 345 714 Q313 635 313 537 Q313 436 345 356 Q377 276 439.5 230 Q502 184 590 184 Q681 184 743 235 Q805 286 825 373 L1057 373 Q1039 256 977 166.5 Q915 77 815 27 Q715 -23 586 -23 Z " />
<glyph glyph-name="uni0442" unicode="&#x442;" horiz-adv-x="1008" d="M387 862 L29 862 L29 1069 L979 1069 L979 862 L621 862 L621 0 L387 0 L387 862 Z " />
<glyph glyph-name="uni0443" unicode="&#x443;" horiz-adv-x="1077" d="M1059 1069 L707 150 Q657 20 602.5 -62 Q548 -144 461 -231 L307 -385 L154 -231 L322 -63 Q383 -2 414 45 L18 1069 L276 1069 L543 311 L547 311 L809 1069 L1059 1069 Z " />
<glyph glyph-name="uni045E" unicode="&#x45e;" horiz-adv-x="1077" d="M1059 1069 L707 150 Q657 20 602.5 -62 Q548 -144 461 -231 L307 -385 L154 -231 L322 -63 Q383 -2 414 45 L18 1069 L276 1069 L543 311 L547 311 L809 1069 L1059 1069 Z M545 1161 Q437 1161 352.5 1202.5 Q268 1244 218 1318 Q168 1392 158 1487 L365 1487 Q380 1407 424.5 1364 Q469 1321 545 1321 Q622 1321 666.5 1364.5 Q711 1408 724 1487 L932 1487 Q923 1392 873 1318 Q823 1244 738.5 1202.5 Q654 1161 545 1161 Z " />
<glyph glyph-name="uni0444" unicode="&#x444;" horiz-adv-x="1589" d="M1520 539 Q1520 386 1451.5 262 Q1383 138 1250 66 Q1117 -6 930 -6 L911 -6 L911 -360 L680 -360 L680 -6 L664 -6 Q470 -6 336 67 Q202 140 136 262 Q70 384 70 532 Q70 686 138.5 809.5 Q207 933 341 1005 Q475 1077 662 1077 L680 1077 L680 1511 L911 1511 L911 1077 L926 1077 Q1120 1077 1254 1004.5 Q1388 932 1454 810 Q1520 688 1520 539 Z M672 190 L684 190 L684 881 L670 881 Q498 881 402.5 790.5 Q307 700 307 537 Q307 429 351 351 Q395 273 477.5 231.5 Q560 190 672 190 Z M1284 535 Q1284 644 1240.5 721.5 Q1197 799 1114.5 840 Q1032 881 918 881 L907 881 L907 190 L922 190 Q1095 190 1189.5 280 Q1284 370 1284 535 Z " />
<glyph glyph-name="uni0445" unicode="&#x445;" horiz-adv-x="1059" d="M381 545 L39 1069 L307 1069 L532 696 L535 696 L762 1069 L1022 1069 L678 547 L1038 0 L770 0 L526 395 L524 395 L281 0 L20 0 L381 545 Z " />
<glyph glyph-name="uni0447" unicode="&#x447;" horiz-adv-x="1137" d="M758 362 Q709 347 644 338.5 Q579 330 516 330 Q307 330 202.5 426.5 Q98 523 98 713 L98 1069 L334 1069 L334 729 Q334 626 386.5 580.5 Q439 535 559 535 Q606 535 659.5 541 Q713 547 758 557 L758 1069 L993 1069 L993 0 L758 0 L758 362 Z " />
<glyph glyph-name="uni0446" unicode="&#x446;" horiz-adv-x="1229" d="M143 0 L143 1069 L377 1069 L377 203 L799 203 L799 1069 L1032 1069 L1032 203 L1194 203 L1194 -256 L979 -256 L979 0 L143 0 Z " />
<glyph glyph-name="uni0448" unicode="&#x448;" horiz-adv-x="1688" d="M143 1069 L377 1069 L377 203 L727 203 L727 1069 L961 1069 L961 203 L1311 203 L1311 1069 L1544 1069 L1544 0 L143 0 L143 1069 Z " />
<glyph glyph-name="uni0449" unicode="&#x449;" horiz-adv-x="1704" d="M1669 203 L1669 -256 L1454 -256 L1454 0 L143 0 L143 1069 L377 1069 L377 203 L709 203 L709 1069 L942 1069 L942 203 L1274 203 L1274 1069 L1507 1069 L1507 203 L1669 203 Z " />
<glyph glyph-name="uni045F" unicode="&#x45f;" horiz-adv-x="1190" d="M487 0 L143 0 L143 1069 L377 1069 L377 203 L813 203 L813 1069 L1047 1069 L1047 0 L702 0 L702 -268 L487 -268 L487 0 Z " />
<glyph glyph-name="uni044C" unicode="&#x44c;" horiz-adv-x="1135" d="M143 1069 L377 1069 L377 725 L653 725 Q767 725 859.5 682.5 Q952 640 1006.5 558.5 Q1061 477 1061 365 Q1061 253 1006.5 170.5 Q952 88 858 44 Q764 0 647 0 L143 0 L143 1069 Z M629 201 Q715 201 769 241 Q823 281 823 360 Q823 441 768.5 482.5 Q714 524 629 524 L375 524 L375 201 L629 201 Z " />
<glyph glyph-name="uni044A" unicode="&#x44a;" horiz-adv-x="1282" d="M305 864 L29 864 L29 1069 L537 1069 L537 725 L801 725 Q914 725 1006.5 682.5 Q1099 640 1153.5 558.5 Q1208 477 1208 365 Q1208 253 1154 170.5 Q1100 88 1006.5 44 Q913 0 797 0 L305 0 L305 864 Z M778 201 Q864 201 917.5 241 Q971 281 971 360 Q971 441 917 482.5 Q863 524 778 524 L537 524 L537 201 L778 201 Z " />
<glyph glyph-name="uni044B" unicode="&#x44b;" horiz-adv-x="1493" d="M143 1069 L377 1069 L377 723 L606 723 Q720 723 813 681 Q906 639 960 558 Q1014 477 1014 365 Q1014 253 960.5 170.5 Q907 88 814 44 Q721 0 604 0 L143 0 L143 1069 Z M1350 1069 L1350 0 L1116 0 L1116 1069 L1350 1069 Z M584 199 Q669 199 723.5 239.5 Q778 280 778 360 Q778 441 723.5 482.5 Q669 524 584 524 L375 524 L375 199 L584 199 Z " />
<glyph glyph-name="uni0459" unicode="&#x459;" horiz-adv-x="1751" d="M780 864 L469 864 L469 696 Q469 486 436 334 Q403 182 316 91 Q229 0 74 0 L25 0 L25 203 L49 203 Q131 203 172.5 269 Q214 335 227 439 Q240 543 240 694 L240 1069 L1012 1069 L1012 725 L1270 725 Q1384 725 1476.5 682.5 Q1569 640 1623 559 Q1677 478 1677 367 Q1677 254 1623 171 Q1569 88 1475.5 44 Q1382 0 1266 0 L780 0 L780 864 Z M1245 201 Q1332 201 1386 240.5 Q1440 280 1440 360 Q1440 441 1385 482.5 Q1330 524 1245 524 L1010 524 L1010 201 L1245 201 Z " />
<glyph glyph-name="uni045A" unicode="&#x45a;" horiz-adv-x="1802" d="M831 485 L377 485 L377 0 L143 0 L143 1069 L377 1069 L377 686 L834 686 L831 1069 L1063 1069 L1063 686 L1343 686 Q1451 686 1539 645.5 Q1627 605 1678 527.5 Q1729 450 1729 344 Q1729 238 1678 160 Q1627 82 1538.5 41 Q1450 0 1339 0 L834 0 L831 485 Z M1321 201 Q1397 201 1444 236.5 Q1491 272 1491 342 Q1491 411 1443 448 Q1395 485 1321 485 L1061 485 L1061 201 L1321 201 Z " />
<glyph glyph-name="uni0455" unicode="&#x455;" horiz-adv-x="991" d="M496 168 Q592 168 647 203.5 Q702 239 702 301 Q702 338 680.5 361.5 Q659 385 605.5 404 Q552 423 446 446 Q333 470 257.5 502 Q182 534 135 595.5 Q88 657 88 756 Q88 854 137.5 930 Q187 1006 279.5 1049 Q372 1092 498 1092 Q621 1092 712.5 1052 Q804 1012 853.5 938 Q903 864 905 766 L680 766 Q680 829 633 864 Q586 899 498 899 Q412 899 364.5 867 Q317 835 317 780 Q317 741 343.5 717.5 Q370 694 420.5 678 Q471 662 571 641 Q694 614 772 578 Q850 542 892 481.5 Q934 421 934 326 Q934 222 880 143 Q826 64 726 20.5 Q626 -23 494 -23 Q357 -23 258 20.5 Q159 64 106.5 143.5 Q54 223 53 330 L276 330 Q276 252 333 210 Q390 168 496 168 Z " />
<glyph glyph-name="uni0454" unicode="&#x454;" horiz-adv-x="1139" d="M1079 352 Q1057 240 994 155.5 Q931 71 830 24 Q729 -23 598 -23 Q435 -23 317 47.5 Q199 118 136.5 243.5 Q74 369 74 532 Q74 696 136.5 822.5 Q199 949 318.5 1020.5 Q438 1092 602 1092 Q731 1092 830 1045.5 Q929 999 991.5 914.5 Q1054 830 1077 717 L844 717 Q817 798 754.5 843.5 Q692 889 600 889 Q480 889 408 821 Q336 753 317 633 L733 633 L733 453 L315 453 Q333 325 406 252.5 Q479 180 600 180 Q693 180 757 225 Q821 270 846 352 L1079 352 Z " />
<glyph glyph-name="uni044D" unicode="&#x44d;" horiz-adv-x="1145" d="M1071 535 Q1071 370 1008.5 244.5 Q946 119 827 49.5 Q708 -20 543 -20 Q410 -20 309 25.5 Q208 71 145 154.5 Q82 238 59 352 L295 352 Q321 270 382.5 225 Q444 180 541 180 Q670 180 742 251 Q814 322 829 453 L410 453 L410 633 L827 633 Q807 756 735 823.5 Q663 891 543 891 Q449 891 386.5 846 Q324 801 297 717 L61 717 Q84 829 146.5 914 Q209 999 310.5 1046.5 Q412 1094 547 1094 Q710 1094 828.5 1023.5 Q947 953 1009 826.5 Q1071 700 1071 535 Z " />
<glyph glyph-name="uni0456" unicode="&#x456;" horiz-adv-x="575" d="M432 1511 L432 1276 L180 1276 L180 1511 L432 1511 Z M432 0 L199 0 L199 864 L31 864 L31 1069 L432 1069 L432 0 Z " />
<glyph glyph-name="uni0457" unicode="&#x457;" horiz-adv-x="575" d="M240 1458 L240 1229 L20 1229 L20 1458 L240 1458 Z M602 1458 L602 1229 L383 1229 L383 1458 L602 1458 Z M432 0 L199 0 L199 864 L31 864 L31 1069 L432 1069 L432 0 Z " />
<glyph glyph-name="uni0458" unicode="&#x458;" horiz-adv-x="575" d="M432 1511 L432 1276 L180 1276 L180 1511 L432 1511 Z M432 61 Q432 -13 420 -66 Q408 -119 378.5 -166.5 Q349 -214 295 -268 L178 -385 L25 -231 L131 -125 Q171 -85 185 -53 Q199 -21 199 39 L199 864 L31 864 L31 1069 L432 1069 L432 61 Z " />
<glyph glyph-name="uni045B" unicode="&#x45b;" horiz-adv-x="1217" d="M143 1186 L6 1186 L6 1368 L143 1368 L143 1511 L377 1511 L377 1368 L811 1368 L811 1186 L377 1186 L377 911 L381 911 Q435 981 516.5 1021 Q598 1061 698 1061 Q812 1061 898 1012 Q984 963 1030.5 876 Q1077 789 1077 680 L1077 0 L844 0 L844 635 Q844 732 790 792 Q736 852 633 852 Q559 852 500.5 820 Q442 788 409.5 730 Q377 672 377 596 L377 0 L143 0 L143 1186 Z " />
<glyph glyph-name="uni044E" unicode="&#x44e;" horiz-adv-x="1671" d="M1597 535 Q1597 377 1534.5 250 Q1472 123 1353.5 50 Q1235 -23 1073 -23 Q929 -23 819 36.5 Q709 96 643.5 202 Q578 308 561 444 L375 444 L375 0 L143 0 L143 1069 L375 1069 L375 639 L563 639 Q583 772 649 874 Q715 976 823.5 1034 Q932 1092 1073 1092 Q1235 1092 1353.5 1019 Q1472 946 1534.5 819.5 Q1597 693 1597 535 Z M1358 537 Q1358 637 1325.5 715.5 Q1293 794 1228.5 839.5 Q1164 885 1071 885 Q981 885 917 839.5 Q853 794 820.5 715.5 Q788 637 788 537 Q788 435 820.5 355 Q853 275 917 229.5 Q981 184 1071 184 Q1164 184 1228.5 229.5 Q1293 275 1325.5 355 Q1358 435 1358 537 Z " />
<glyph glyph-name="uni044F" unicode="&#x44f;" horiz-adv-x="1141" d="M997 1069 L997 0 L766 0 L766 369 L541 369 L317 0 L63 0 L313 399 Q206 440 145 521.5 Q84 603 84 721 Q84 828 136 906.5 Q188 985 278.5 1027 Q369 1069 483 1069 L997 1069 Z M766 879 L514 879 Q429 879 375.5 839 Q322 799 322 719 Q322 638 375.5 596.5 Q429 555 514 555 L766 555 L766 879 Z " />
<glyph glyph-name="uni0452" unicode="&#x452;" horiz-adv-x="1217" d="M145 1184 L8 1184 L8 1368 L145 1368 L145 1511 L377 1511 L377 1368 L811 1368 L811 1184 L377 1184 L377 911 L381 911 Q435 981 516.5 1021 Q598 1061 698 1061 Q812 1061 898 1012 Q984 963 1030.5 876 Q1077 789 1077 680 L1077 61 Q1077 -14 1065.5 -66.5 Q1054 -119 1024.5 -166.5 Q995 -214 940 -268 L825 -385 L670 -229 L776 -123 Q816 -83 830 -51.5 Q844 -20 844 39 L844 635 Q844 731 789.5 791.5 Q735 852 633 852 Q559 852 500.5 820 Q442 788 409.5 730 Q377 672 377 596 L377 0 L145 0 L145 1184 Z " />
<glyph glyph-name="uni0463" unicode="&#x463;" horiz-adv-x="1284" d="M1210 358 Q1210 247 1156.5 166 Q1103 85 1010 42.5 Q917 0 801 0 L305 0 L305 944 L29 944 L29 1137 L305 1137 L305 1511 L537 1511 L537 1137 L956 1137 L956 944 L537 944 L537 711 L805 711 Q917 711 1009.5 669.5 Q1102 628 1156 548 Q1210 468 1210 358 Z M973 356 Q973 434 919 476 Q865 518 782 518 L537 518 L537 199 L782 199 Q866 199 919.5 239 Q973 279 973 356 Z " />
<glyph glyph-name="uni0473" unicode="&#x473;" horiz-adv-x="1214" d="M1141 535 Q1141 377 1077 251 Q1013 125 892 52.5 Q771 -20 606 -20 Q443 -20 322.5 52.5 Q202 125 138 251 Q74 377 74 535 Q74 692 138 818.5 Q202 945 322.5 1017.5 Q443 1090 606 1090 Q771 1090 892 1017.5 Q1013 945 1077 819 Q1141 693 1141 535 Z M311 629 L905 629 Q886 751 810 823 Q734 895 608 895 Q483 895 406.5 823 Q330 751 311 629 Z M907 457 L309 457 Q325 328 402 251 Q479 174 608 174 Q739 174 816 251 Q893 328 907 457 Z " />
<glyph glyph-name="uni0475" unicode="&#x475;" horiz-adv-x="1155" d="M18 1069 L274 1069 L543 324 L547 324 L686 776 Q717 881 763 944.5 Q809 1008 884.5 1038.5 Q960 1069 1079 1069 L1126 1069 L1126 860 L1100 860 Q1039 860 1004.5 848 Q970 836 945.5 800.5 Q921 765 897 692 L659 0 L438 0 L18 1069 Z " />
<glyph glyph-name="uni04D9" unicode="&#x4d9;" horiz-adv-x="1153" d="M559 1092 Q720 1092 837.5 1020.5 Q955 949 1017 823.5 Q1079 698 1079 539 Q1079 376 1017 248.5 Q955 121 839.5 49 Q724 -23 569 -23 Q418 -23 306 44 Q194 111 134 228 Q74 345 74 492 Q74 568 82 608 L844 608 Q835 690 799.5 754 Q764 818 702 854.5 Q640 891 557 891 Q465 891 402 849 Q339 807 317 735 L90 735 Q128 906 252.5 999 Q377 1092 559 1092 Z M846 430 L305 430 Q316 311 382.5 243.5 Q449 176 567 176 Q688 176 758 243.5 Q828 311 846 430 Z " />
<glyph glyph-name="uni04E3" unicode="&#x4e3;" horiz-adv-x="1243" d="M1100 1069 L1100 0 L868 0 L868 743 L864 743 L358 0 L143 0 L143 1069 L375 1069 L375 365 L379 365 L854 1069 L1100 1069 Z M909 1424 L909 1266 L328 1266 L328 1424 L909 1424 Z " />
</font>
</svg>
